<svg width="24" height="25" viewBox="0 0 24 25" fill="none"
    xmlns="http://www.w3.org/2000/svg">
    <path fill-rule="evenodd" clip-rule="evenodd" d="M3 9.06296C3 7.95839 3.89543 7.06296 5 7.06296H19C20.1046 7.06296 21 7.95839 21 9.06296V19.063C21 20.1675 20.1046 21.063 19 21.063H5C3.89543 21.063 3 20.1675 3 19.063V9.06296ZM19 9.06296H5V19.063H19V9.06296Z" />
    <path fill-rule="evenodd" clip-rule="evenodd" d="M8 12.063C8 11.5107 8.44772 11.063 9 11.063H15C15.5523 11.063 16 11.5107 16 12.063C16 12.6152 15.5523 13.063 15 13.063H9C8.44772 13.063 8 12.6152 8 12.063Z" />
    <path fill-rule="evenodd" clip-rule="evenodd" d="M2 5.06296C2 3.95839 2.89543 3.06296 4 3.06296H20C21.1046 3.06296 22 3.95839 22 5.06296V7.06296C22 8.16753 21.1046 9.06296 20 9.06296H4C2.89543 9.06296 2 8.16753 2 7.06296V5.06296ZM20 5.06296H4V7.06296H20V5.06296Z" />
</svg>
