<svg width="24" height="25" viewBox="0 0 24 25" fill="none"
    xmlns="http://www.w3.org/2000/svg">
    <path fill-rule="evenodd" clip-rule="evenodd" d="M7.03544 5.78925L18.3819 16.8879C19.3981 15.5463 20 13.8756 20 12.063C20 7.64468 16.4183 4.06296 12 4.06296C10.1241 4.06296 8.39997 4.70773 7.03544 5.78925ZM16.9856 18.3199L5.63443 7.21656C4.60838 8.56182 4 10.2406 4 12.063C4 16.4812 7.58172 20.063 12 20.063C13.8856 20.063 15.6178 19.4115 16.9856 18.3199ZM4.86174 5.05972C6.67528 3.21141 9.20443 2.06296 12 2.06296C17.5228 2.06296 22 6.54011 22 12.063C22 14.779 20.9159 17.2438 19.159 19.045C17.344 20.9057 14.8063 22.063 12 22.063C6.47715 22.063 2 17.5858 2 12.063C2 9.33624 3.09266 6.86272 4.86174 5.05972Z" />
</svg>
