<svg width="24" height="25" viewBox="0 0 24 25" fill="none"
    xmlns="http://www.w3.org/2000/svg">
    <path fill-rule="evenodd" clip-rule="evenodd" d="M4.8 8.06296C4.45467 8.06296 4 8.40896 4 9.06296V19.063C4 19.717 4.45467 20.063 4.8 20.063H19.2C19.5453 20.063 20 19.717 20 19.063V9.06296C20 8.40896 19.5453 8.06296 19.2 8.06296H4.8ZM2 9.06296C2 7.50782 3.1571 6.06296 4.8 6.06296H19.2C20.8429 6.06296 22 7.50782 22 9.06296V19.063C22 20.6181 20.8429 22.063 19.2 22.063H4.8C3.1571 22.063 2 20.6181 2 19.063V9.06296Z" />
    <path fill-rule="evenodd" clip-rule="evenodd" d="M7.87868 2.94164C8.44129 2.37903 9.20435 2.06296 10 2.06296H14C14.7956 2.06296 15.5587 2.37903 16.1213 2.94164C16.6839 3.50425 17 4.26731 17 5.06296V21.063C17 21.6152 16.5523 22.063 16 22.063C15.4477 22.063 15 21.6152 15 21.063V5.06296C15 4.79774 14.8946 4.54339 14.7071 4.35585C14.5196 4.16831 14.2652 4.06296 14 4.06296H10C9.73478 4.06296 9.48043 4.16831 9.29289 4.35585C9.10536 4.54339 9 4.79774 9 5.06296V21.063C9 21.6152 8.55228 22.063 8 22.063C7.44772 22.063 7 21.6152 7 21.063V5.06296C7 4.26731 7.31607 3.50425 7.87868 2.94164Z" />
</svg>
