<svg width="24" height="25" viewBox="0 0 24 25" fill="none"
    xmlns="http://www.w3.org/2000/svg">
    <path fill-rule="evenodd" clip-rule="evenodd" d="M12 6.26291C12.5523 6.26291 13 6.71062 13 7.26291L13 11.6629L16.8 11.6629C17.3523 11.6629 17.8 12.1106 17.8 12.6629C17.8 13.2151 17.3523 13.6629 16.8 13.6629L12.5 13.6629C11.6716 13.6629 11 12.9913 11 12.1629L11 7.26291C11 6.71062 11.4477 6.26291 12 6.26291Z" />
    <path fill-rule="evenodd" clip-rule="evenodd" d="M12 4.06296C7.58172 4.06296 4 7.64468 4 12.063C4 16.4812 7.58172 20.063 12 20.063C16.4183 20.063 20 16.4812 20 12.063C20 7.64468 16.4183 4.06296 12 4.06296ZM2 12.063C2 6.54011 6.47715 2.06296 12 2.06296C17.5228 2.06296 22 6.54011 22 12.063C22 17.5858 17.5228 22.063 12 22.063C6.47715 22.063 2 17.5858 2 12.063Z" />
</svg>
