<svg width="24" height="25" viewBox="0 0 24 25" fill="none"
    xmlns="http://www.w3.org/2000/svg">
    <path fill-rule="evenodd" clip-rule="evenodd" d="M16.9498 7.11321C17.3403 7.50373 17.3403 8.13689 16.9498 8.52742L8.46451 17.0127C8.07398 17.4032 7.44082 17.4032 7.05029 17.0127C6.65977 16.6222 6.65977 15.989 7.05029 15.5985L15.5356 7.11321C15.9261 6.72268 16.5593 6.72268 16.9498 7.11321Z" fill="black"/>
    <path fill-rule="evenodd" clip-rule="evenodd" d="M16.9496 17.0127C16.5591 17.4033 15.9259 17.4033 15.5354 17.0127L7.05014 8.52746C6.65962 8.13694 6.65962 7.50377 7.05014 7.11325C7.44067 6.72272 8.07383 6.72272 8.46435 7.11325L16.9496 15.5985C17.3402 15.9891 17.3402 16.6222 16.9496 17.0127Z" fill="black"/>
</svg>
