<svg width="24" height="25" viewBox="0 0 24 25" fill="none"
    xmlns="http://www.w3.org/2000/svg">
    <path fill-rule="evenodd" clip-rule="evenodd" d="M4.9288 6.06554C5.47968 6.02619 5.95815 6.44087 5.9975 6.99175L6.93116 20.063L17.0689 20.063L18.0026 6.99175C18.0419 6.44087 18.5204 6.02619 19.0713 6.06554C19.6222 6.10489 20.0368 6.58337 19.9975 7.13425L19.0638 20.2055C18.9891 21.2521 18.1182 22.063 17.0689 22.063H6.93116C5.88189 22.063 5.011 21.2521 4.93624 20.2055L4.00258 7.13425C3.96324 6.58337 4.37791 6.10489 4.9288 6.06554Z" />
    <path fill-rule="evenodd" clip-rule="evenodd" d="M2 7.06296C2 6.51067 2.44772 6.06296 3 6.06296H21C21.5523 6.06296 22 6.51067 22 7.06296C22 7.61524 21.5523 8.06296 21 8.06296H3C2.44772 8.06296 2 7.61524 2 7.06296Z" />
    <path fill-rule="evenodd" clip-rule="evenodd" d="M7 4.06296C7 2.95839 7.89543 2.06296 9 2.06296H15C16.1046 2.06296 17 2.95839 17 4.06296V6.06296C17 6.61524 16.5523 7.06296 16 7.06296C15.4477 7.06296 15 6.61524 15 6.06296V4.06296H9V6.06296C9 6.61524 8.55228 7.06296 8 7.06296C7.44772 7.06296 7 6.61524 7 6.06296V4.06296Z" />
</svg>
