<svg width="24" height="25" viewBox="0 0 24 25" fill="none"
    xmlns="http://www.w3.org/2000/svg">
    <path fill-rule="evenodd" clip-rule="evenodd" d="M3 7.06296C3 5.95839 3.89543 5.06296 5 5.06296H10C10.5523 5.06296 11 5.51067 11 6.06296C11 6.61524 10.5523 7.06296 10 7.06296H5V19.063H17V14.063C17 13.5107 17.4477 13.063 18 13.063C18.5523 13.063 19 13.5107 19 14.063V19.063C19 20.1675 18.1046 21.063 17 21.063H5C3.89543 21.063 3 20.1675 3 19.063V7.06296Z" />
    <path fill-rule="evenodd" clip-rule="evenodd" d="M16.2929 3.35585C16.6834 2.96533 17.3166 2.96533 17.7071 3.35585L20.7071 6.35585C21.0976 6.74638 21.0976 7.37954 20.7071 7.77006L11.7071 16.7701C11.5196 16.9576 11.2652 17.063 11 17.063H8C7.44772 17.063 7 16.6152 7 16.063V13.063C7 12.7977 7.10536 12.5434 7.29289 12.3559L16.2929 3.35585ZM9 13.4772V15.063H10.5858L18.5858 7.06296L17 5.47717L9 13.4772Z" />
</svg>
