<svg width="24" height="25" viewBox="0 0 24 25" fill="none"
    xmlns="http://www.w3.org/2000/svg">
    <path fill-rule="evenodd" clip-rule="evenodd" d="M13 5.06296C13 3.95839 13.8954 3.06296 15 3.06296H19C20.1046 3.06296 21 3.95839 21 5.06296V9.06296C21 10.1675 20.1046 11.063 19 11.063H15C13.8954 11.063 13 10.1675 13 9.06296V5.06296ZM19 5.06296H15V9.06296H19V5.06296Z" />
    <path fill-rule="evenodd" clip-rule="evenodd" d="M13 15.063C13 13.9584 13.8954 13.063 15 13.063H19C20.1046 13.063 21 13.9584 21 15.063V19.063C21 20.1675 20.1046 21.063 19 21.063H15C13.8954 21.063 13 20.1675 13 19.063V15.063ZM19 15.063H15V19.063H19V15.063Z" />
    <path fill-rule="evenodd" clip-rule="evenodd" d="M3 5.06296C3 3.95839 3.89543 3.06296 5 3.06296H9C10.1046 3.06296 11 3.95839 11 5.06296V9.06296C11 10.1675 10.1046 11.063 9 11.063H5C3.89543 11.063 3 10.1675 3 9.06296V5.06296ZM9 5.06296H5V9.06296H9V5.06296Z" />
    <path fill-rule="evenodd" clip-rule="evenodd" d="M3 15.063C3 13.9584 3.89543 13.063 5 13.063H9C10.1046 13.063 11 13.9584 11 15.063V19.063C11 20.1675 10.1046 21.063 9 21.063H5C3.89543 21.063 3 20.1675 3 19.063V15.063ZM9 15.063H5V19.063H9V15.063Z" />
</svg>
