<svg width="24" height="25" viewBox="0 0 24 25" fill="none"
    xmlns="http://www.w3.org/2000/svg">
    <path fill-rule="evenodd" clip-rule="evenodd" d="M4 12.063C4 10.9584 4.89543 10.063 6 10.063H18C19.1046 10.063 20 10.9584 20 12.063V20.063C20 21.1675 19.1046 22.063 18 22.063H6C4.89543 22.063 4 21.1675 4 20.063V12.063ZM18 12.063H6V20.063H18V12.063Z" />
    <path fill-rule="evenodd" clip-rule="evenodd" d="M12 4.06296C10.3523 4.06296 9 5.41524 9 7.06296V10.063H15V7.06296C15 5.41524 13.6477 4.06296 12 4.06296ZM7 7.06296C7 4.31067 9.24771 2.06296 12 2.06296C14.7523 2.06296 17 4.31067 17 7.06296V11.063C17 11.6152 16.5523 12.063 16 12.063H8C7.44772 12.063 7 11.6152 7 11.063V7.06296Z" />
</svg>
