<svg viewBox="0 0 213 61" fill="none"
    xmlns="http://www.w3.org/2000/svg">
    <path d="M30.6308 23.0278C32.1308 21.4067 31.8925 18.2895 29.5488 17.5083C29.0097 17.3872 28.5293 17.2075 28.0488 17.1489V15.8286C28.1113 14.3872 28.1113 12.9458 28.0488 11.5669C28.0488 11.3872 28.1113 11.2075 28.0488 11.0278C27.9316 8.92626 28.1699 6.28954 27.0293 4.42626C25.83 2.3872 23.3105 2.3286 21.5097 3.52782C19.4707 4.90673 19.83 7.30907 20.1894 9.40673C20.3105 11.8677 20.4902 14.3872 20.6113 16.8481C19.9511 16.9067 19.3496 17.0278 18.6894 17.0864C16.5918 17.2661 14.4902 17.4458 12.3925 17.7466H12.2714C12.0918 15.0474 11.9121 12.2895 11.7324 9.52782L11.5488 6.64892C11.4902 6.10595 11.2519 4.96923 10.6504 4.72704C10.4121 4.60595 10.2324 4.54735 9.99019 4.54735V4.42626C9.9316 3.04735 8.4316 2.08642 7.16988 2.2661C5.84957 2.44579 4.83004 3.70751 5.00973 5.08642C5.61129 9.64892 5.73238 14.3286 5.79098 18.9458H5.66988C5.61129 18.9458 5.54879 19.0669 5.49019 19.1294C5.31051 16.9067 5.07223 14.5669 4.83004 12.3481C4.52926 9.40673 4.34957 6.40673 3.75191 3.52782C3.75191 3.40673 3.57222 3.40673 3.57222 3.52782C3.45113 6.34814 3.68941 9.22704 3.75191 12.0474C3.8691 14.5083 3.9316 16.9692 3.99019 19.3677C3.09176 19.6684 2.31051 20.1489 1.83004 20.9263C1.47066 21.227 1.11129 21.5864 0.869101 21.9458C-0.568399 23.9263 1.52926 26.3872 3.57222 25.5474L4.16988 25.3091C4.34957 29.7466 4.41207 34.2466 4.77144 38.688C4.77144 39.1059 5.18941 39.3481 5.54879 39.3481C5.66988 39.6489 5.79098 39.9458 5.97066 40.2466C7.11129 42.3481 9.33004 42.1059 10.83 40.5474C11.5488 39.7661 11.7324 38.3872 11.8496 37.3677C11.9121 36.8872 11.9121 36.3481 11.9707 35.8677V35.688C12.33 33.7661 12.2714 31.727 12.2714 29.7466C12.2714 28.0083 12.2089 26.2661 12.1504 24.5278C14.4316 24.4067 16.7714 24.3481 19.0488 24.3481C19.4707 24.3481 19.83 24.3481 20.2519 24.3481V26.5669C20.2519 28.8481 20.3105 31.188 20.4316 33.4692C20.4902 35.8091 20.6113 38.0864 20.791 40.4263C20.8496 41.2075 20.9707 42.227 21.5097 42.8286C22.1699 43.6684 23.2519 44.0278 24.33 43.3677C24.6308 43.188 24.9316 42.9458 25.1113 42.7075C25.1699 42.7075 25.1699 42.7075 25.1699 42.6489C26.4316 41.9263 26.6699 39.8872 26.8496 38.5669C27.0293 37.1294 27.1504 35.688 27.2714 34.188C27.4511 31.2466 27.6308 28.2466 27.7519 25.3091C29.0722 25.4888 30.4511 24.6489 30.6308 23.2075V23.0278ZM14.3105 22.727C16.291 22.6059 18.2714 22.6684 20.2519 22.727V23.0278C19.8925 23.0278 19.4707 23.0278 19.0488 22.9692C16.7714 22.9692 14.4316 23.0864 12.0918 23.3286V23.0864C12.2089 23.0278 12.2714 22.9067 12.33 22.7895C12.9902 22.7895 13.6504 22.727 14.3105 22.727Z" fill="#2B2B2B"/>
    <path d="M27.2105 7.24658C27.3316 7.84814 28.1714 8.32861 28.7105 8.5083C29.6089 8.86767 30.5112 8.98877 31.4722 8.98877C32.6089 8.98877 33.9292 8.68799 34.6519 7.84814C35.7925 7.60595 36.9292 7.06689 37.8316 6.40674C38.312 6.04736 38.73 5.4458 38.4917 4.78955C37.8901 3.22705 36.6909 2.32861 35.0698 1.90674C33.2105 1.42627 31.3511 2.14892 29.7925 3.22705C29.6714 3.28955 29.5503 3.40674 29.4292 3.52783C28.8316 3.9458 28.3511 4.42627 27.9292 5.02783C27.5112 5.62939 26.9722 6.46924 27.2105 7.24658ZM31.23 8.68799C30.5112 8.62939 29.8511 8.5083 29.1909 8.26611C28.7691 8.14892 28.4097 7.90674 28.0503 7.60595C27.5698 7.18799 27.6323 6.76611 27.8706 6.22705C28.1089 5.80908 28.3511 5.4458 28.6519 5.08642C28.0503 6.46924 28.7105 7.84814 30.4487 8.20752C31.8316 8.4458 32.6089 8.32861 33.3316 8.14892C33.3901 8.14892 32.9722 8.68799 31.23 8.68799ZM37.4722 38.688C37.5894 39.2895 38.5503 39.227 38.4917 38.6294C37.3511 30.106 36.8706 21.5864 37.1089 13.0083C37.1089 12.9458 36.6909 13.0083 36.6909 13.1294C36.4487 17.3872 36.4487 23.688 36.6323 27.9458C36.5112 27.9458 36.3316 25.8481 36.2105 25.9067C36.1519 25.3677 36.0894 24.8286 36.0894 24.4067C36.0308 22.188 35.9097 19.9692 35.9097 17.8091C35.9097 15.5864 36.0308 13.4263 36.0308 11.2075C35.9722 10.6685 35.4917 10.4263 35.0698 10.4888C34.1089 8.08642 31.0503 10.3091 29.7925 11.1489C29.6089 11.3286 29.4292 11.5083 29.312 11.7466C28.5894 12.4692 28.23 13.606 28.0503 14.7466C27.812 16.9067 27.8706 19.1294 27.8706 21.2895C27.812 25.7895 28.1089 30.227 28.6519 34.6685C28.8901 36.3481 28.9487 38.1489 30.2105 39.3481C30.5112 39.5864 30.812 39.7661 31.1089 39.8872L31.23 40.0669C32.3706 41.2075 34.1714 41.5669 35.6089 40.8481C36.1519 40.606 36.2691 40.1294 36.2105 39.7075C36.6909 39.5278 37.1714 39.1685 37.4722 38.688ZM30.812 14.2075C30.812 14.0864 31.0503 13.727 31.23 13.606H31.2925C30.6323 15.5278 30.5112 17.7466 30.5112 19.7895C30.4487 22.4888 30.5112 25.188 30.5112 27.8872H30.3316C30.1519 26.4458 29.9722 25.0083 29.8511 23.5669C29.8511 23.5083 29.8511 23.5083 29.8511 23.4458V22.8481C29.9722 20.0864 29.9097 16.9067 30.812 14.2075Z" fill="#2B2B2B"/>
    <path d="M67.7098 19.0083C67.8895 17.688 67.5301 16.6059 66.5692 15.8872C65.7918 15.2895 64.952 14.6294 64.1122 14.0278C63.9911 13.5474 63.7489 13.0669 63.2723 12.7075C57.3895 8.74657 51.452 4.66844 44.8504 2.56688C44.7918 2.56688 44.7293 2.50829 44.6708 2.50829C44.2489 2.3286 43.8309 2.20751 43.409 2.02782C43.2918 1.90672 43.1122 1.78954 42.87 1.78954C40.8895 1.42626 37.2918 0.648913 36.1512 2.86766C35.4911 4.24657 36.1512 5.92626 37.2918 6.88719C36.9325 7.42626 36.5106 7.84813 36.0301 8.20751C36.5106 10.2466 36.9325 12.3481 37.3504 14.3872C36.9911 14.3872 36.6317 14.3872 36.2723 14.4458C34.4715 14.4458 33.7489 17.4458 35.4325 18.5278C35.9715 18.8872 36.6317 19.2466 37.2293 19.4888L35.8504 19.6684C36.5106 19.9067 37.1708 20.1489 37.8309 20.3286C38.0692 20.3872 38.1903 20.5669 38.1903 20.7466C38.3114 20.7466 38.4325 20.7466 38.5497 20.7466L38.909 22.8481C39.3895 25.6684 39.87 28.4888 40.3504 31.3091L40.8895 35.2661C41.0106 36.5864 40.8895 38.0278 41.1903 39.2895C41.1903 39.9458 41.7918 40.3677 42.2723 40.2466C42.3309 40.6059 42.452 40.9067 42.6317 41.2075C43.3504 42.0474 44.5497 41.9888 45.3309 41.3286C45.9325 40.8481 46.3504 40.2466 46.7098 39.5278C46.7098 39.227 46.7098 38.8677 46.6512 38.5083C46.8309 35.5669 46.5301 32.5083 46.3504 29.5669C46.2293 26.8091 45.9911 24.0474 45.6903 21.3481C47.2489 21.4067 48.87 21.5278 50.4325 21.5864C50.7293 22.1294 51.0887 22.727 51.452 23.2661V23.3286C51.8114 23.9263 52.1122 24.5278 52.409 25.188C53.5497 27.4067 55.1708 31.3677 55.8309 32.9263C57.0301 35.688 58.2293 38.5083 59.3114 41.3286C59.5497 41.4458 59.909 41.3286 60.0887 41.1489C60.0887 41.2075 60.1512 41.2075 60.2098 41.2075C60.7489 41.4458 61.2918 41.4458 61.8309 41.3872C62.8504 41.8091 64.2293 41.5083 64.409 40.188C64.8895 36.2895 62.7918 32.5083 61.1708 29.0864C59.909 26.5083 58.4715 24.0474 56.8504 21.6489C59.6708 21.8872 62.4911 22.1294 65.3114 22.3091C66.2723 22.4263 67.409 21.4067 67.5301 20.2661L67.7098 19.0083ZM43.3504 9.8286L43.1708 8.86766C48.3309 10.0669 53.1317 12.6489 57.7489 15.8286L51.9325 15.1059C50.5497 13.9692 48.5692 12.3481 46.7723 13.4888C46.4715 13.727 46.2918 14.0864 46.2293 14.3872C45.9325 14.3286 45.5692 14.3286 45.2723 14.2661C45.0301 13.0083 44.7293 11.7466 44.4325 10.4888C44.37 9.94579 43.7723 9.94579 43.4715 10.2466C43.409 10.1294 43.409 9.94579 43.3504 9.8286ZM47.6122 36.8286C47.8504 35.3872 48.3309 34.7895 48.1512 32.6294C47.8504 29.0278 47.5497 25.4263 46.952 21.9458H46.4715C47.1903 26.8677 47.37 31.8481 47.6122 36.8286Z" fill="#2B2B2B"/>
    <path d="M64.8294 10.188C64.7123 10.3091 64.7123 10.4888 64.8294 10.5473C66.1498 9.94579 67.4701 9.40672 68.849 8.98875C72.8099 7.60594 76.8919 6.7075 80.9701 5.80907C83.3099 5.2661 85.7123 4.66844 88.0521 4.06688C87.5091 4.06688 86.9701 4.06688 86.431 4.12938C83.849 4.30907 81.3919 4.78954 78.931 5.2661L77.5521 5.62938C73.2318 6.7661 68.7904 8.08641 64.8294 10.188ZM98.4896 34.6059C99.2123 34.0669 99.6888 33.227 99.6302 32.1489C99.3919 28.727 98.2513 23.4458 93.6302 24.4067C92.9701 24.5864 92.3724 24.8872 91.7123 25.0669L89.3724 25.7895C87.931 26.2661 86.4896 26.8091 85.0521 27.3481C84.1498 27.6489 83.2513 28.0083 82.349 28.3677L77.2513 30.3481C75.931 30.8872 74.6107 31.4263 73.2904 32.0278L73.1107 32.1489C73.1107 32.0278 73.1107 31.9692 73.1107 31.9067L72.7513 28.0083C74.431 27.1684 76.0521 26.3286 77.7904 25.6059C80.6107 24.4067 83.431 23.5083 86.3099 22.727C87.7513 22.3677 89.2513 22.0669 90.6888 21.8286C92.0716 21.5278 93.3919 21.5864 94.6498 20.9888C95.7318 20.4458 96.4505 19.1294 96.2123 17.9888C96.0912 17.3872 95.7318 16.7895 95.1888 16.4888C95.1302 16.4888 95.1302 16.4888 95.0716 16.4263C95.0091 16.188 94.8919 15.9458 94.7708 15.7075C94.7123 15.5864 94.6498 15.4067 94.5287 15.227C93.6888 13.7895 92.2513 13.727 90.7513 13.7895C90.0287 13.8481 89.3724 13.9067 88.6498 14.0278L87.8724 14.2075C85.9505 14.7466 83.9701 15.2895 82.0521 15.7661C78.6302 17.0278 75.3294 18.4692 71.9701 19.9067C71.9701 19.6059 71.6107 17.4458 71.5521 16.8481L71.6693 16.727C73.5287 15.9458 75.4505 15.227 77.3724 14.5669C78.0287 14.2661 83.9701 12.4692 87.0287 11.6294C87.1498 11.6294 87.2708 11.5669 87.3919 11.5083C88.7708 11.1489 90.1498 10.727 91.4701 10.3091L94.4701 9.40672C94.7123 8.2075 94.5287 6.94579 94.1107 5.68797C93.8099 5.44579 93.4505 5.14891 93.1498 4.90672L92.1888 4.54735C91.8294 4.42625 91.4115 4.36766 90.9896 4.30907C87.8724 5.14891 84.7513 5.98875 81.5716 6.7075C77.4896 7.54735 73.4115 8.44579 69.4505 9.8286C68.1888 10.2466 66.8724 10.727 65.6107 11.2661C65.5521 11.4458 65.431 11.6294 65.3724 11.7466C64.5287 12.4692 63.9896 13.3677 63.8724 14.5669C63.7513 15.5864 64.1107 16.727 64.8294 17.5083L65.5521 24.3481L66.2708 31.5473C66.4505 33.6489 66.5716 35.8091 66.931 37.8481C66.3919 39.4067 67.4115 41.2075 68.9115 41.8091C68.849 42.1059 68.849 42.3481 68.9701 42.6489C69.4505 43.6684 70.5287 43.727 71.4896 43.5473C71.7318 43.5473 72.0912 43.4888 72.0912 43.4888C72.0287 43.5473 75.4505 42.5278 76.1693 42.0473L76.2318 41.9888C76.8919 41.688 77.5521 41.4458 78.2123 41.1489C78.3294 41.0864 78.5091 41.0278 78.6302 40.9692H78.6888C80.6693 40.1294 82.7123 39.4067 84.7513 38.688C89.0091 37.188 93.4505 36.0473 97.8919 35.2075C98.2513 35.1489 98.431 34.9067 98.4896 34.6059ZM83.9701 21.8872L84.0287 22.0669C83.6693 22.188 83.3724 22.3091 83.0091 22.4888C80.0091 23.688 76.8919 24.8286 73.9505 26.3286C74.431 25.9067 74.7904 25.3091 74.9115 24.6489C76.0521 24.3481 77.1888 23.9888 78.3919 23.6294C80.2513 23.0278 82.1107 22.4888 83.9701 21.8872ZM70.7123 42.6489C71.9115 42.3481 73.0521 41.8677 74.1888 41.4458C75.3294 41.0864 76.4115 40.6684 77.4896 40.2466V40.3677C76.5912 40.8481 75.6888 41.3286 74.7318 41.8091C74.3099 42.0473 73.8294 42.2895 73.349 42.5278C73.2904 42.5864 73.2318 42.5864 73.1693 42.5864C72.9896 42.6489 71.6107 42.7661 70.7123 42.6489Z" fill="#2B2B2B"/>
    <path d="M130.112 35.7466C129.932 34.0083 129.51 32.2661 129.151 30.5278C128.729 28.5473 128.369 26.6294 128.01 24.6489C127.83 23.8091 127.651 22.9067 127.412 22.0083C127.291 20.9887 127.112 19.9067 126.932 18.8872C126.451 16.188 125.971 13.4887 125.311 10.7895C124.709 8.32859 123.69 5.92625 121.83 4.06687C121.112 3.28953 119.791 3.28953 118.951 3.94578C118.229 3.52781 117.33 3.40672 116.311 3.7075C115.651 3.82859 114.99 4.42625 114.869 5.02781C114.151 10.2466 112.83 15.4067 111.69 20.5669C110.912 23.9262 110.19 27.2895 109.412 30.6489C108.03 24.5864 106.709 17.5669 105.69 11.3872C105.451 9.88719 105.151 8.38719 105.03 6.94578C104.971 6.34812 104.729 5.74656 104.369 5.32859C103.951 4.24656 103.049 3.46922 101.912 3.22703C100.951 2.92625 99.8694 3.04734 98.9124 3.6489C98.1897 4.06687 97.8889 4.66844 97.8889 5.26609C97.3499 6.40672 97.4124 7.72703 97.471 8.92625C97.471 10.3677 97.5295 11.7466 97.5295 13.188V14.5669C97.4124 14.5669 97.3499 13.2466 97.2288 13.2466C97.1702 10.6684 97.1116 7.90672 96.7522 5.50828C96.6897 5.2075 96.092 5.2075 96.0295 5.50828C95.3694 8.92625 95.6116 12.5278 95.6702 15.9458C95.6702 19.4887 95.7288 23.0864 95.8499 26.6294C95.9124 30.1059 96.1506 33.4692 96.6311 36.9458C96.8108 38.3872 96.9319 40.188 98.01 41.2661C98.5491 41.8091 99.3889 41.9262 100.112 41.688C100.17 41.8091 100.229 41.8677 100.291 41.9263C100.53 42.227 100.951 42.227 101.311 42.0473C103.229 41.2075 103.049 38.9887 102.99 37.2466C102.869 32.2075 102.69 26.9262 102.451 21.8872C102.569 22.4262 102.752 22.9067 102.932 23.3872C103.412 25.3677 103.951 27.4067 104.49 29.3872L107.069 38.5669C107.311 39.5278 107.549 40.4263 108.092 41.2661C108.209 41.5083 108.451 41.5669 108.631 41.4458C108.869 41.6294 109.17 41.688 109.471 41.688C109.651 41.8091 109.951 41.8091 110.252 41.7466C111.209 41.5083 111.569 40.8481 111.869 40.0083C112.049 39.4067 112.17 38.8677 112.291 38.2661C112.291 38.3872 112.471 38.4458 112.53 38.2075C113.01 35.688 113.85 31.9692 114.631 28.6684C115.471 25.3091 116.971 20.0864 118.412 15.8872C118.951 18.4067 119.49 20.9262 120.092 23.4458C121.412 28.6684 122.069 33.4692 122.19 38.7466C122.19 40.188 123.272 41.3872 124.651 41.688C126.151 43.188 128.369 42.227 129.272 40.6684C130.112 39.1684 130.229 37.4262 130.112 35.7466ZM105.209 19.4262C105.209 19.3091 105.151 19.188 105.092 19.1294C104.311 15.4067 103.471 11.8091 102.569 8.1489C102.631 8.02781 102.631 7.96922 102.631 7.90672C102.932 7.84812 103.229 7.72703 103.471 7.54734C103.709 8.50828 103.83 9.40672 103.951 10.3091C104.49 13.3677 105.272 17.7466 105.869 20.8091C105.51 20.4458 105.451 20.0278 105.209 19.4262ZM114.33 28.5473H114.272C114.209 28.5473 114.151 28.5473 114.092 28.4887C114.272 27.5864 114.451 26.688 114.569 25.7895C115.53 21.7075 116.612 17.688 117.932 13.727C118.049 14.1489 118.112 14.5669 118.229 14.9262C116.729 19.4262 115.412 23.9887 114.33 28.5473Z" fill="#2B2B2B"/>
    <path d="M145.891 40.0669C147.27 44.3872 151.712 44.2661 151.052 38.8677C150.571 35.2661 149.552 30.4067 148.77 26.8677C152.071 24.7661 151.411 19.3677 146.852 18.8286C146.43 15.227 146.071 6.16844 146.009 6.7661C145.77 8.74657 145.649 10.8481 145.591 12.8872C145.532 12.8872 145.532 12.8872 145.469 12.8286C145.231 10.4888 144.989 8.02782 144.809 5.62938C144.63 3.7075 143.372 2.50829 141.63 2.38719C141.149 1.42625 139.95 0.707504 138.93 0.766098C135.872 0.828598 134.669 4.54735 133.591 6.88719C132.032 10.6059 131.071 14.5083 130.231 18.4692C123.091 19.5473 123.091 26.0864 126.93 27.0473C126.989 27.227 126.93 27.4692 126.872 27.5864C127.352 27.5864 127.95 27.5278 128.489 27.4692C127.591 30.9458 126.989 34.4263 126.509 37.9692C125.731 43.6059 133.169 44.4458 133.649 38.9888L134.009 36.2895C134.009 36.2895 135.032 30.1684 135.809 27.227H136.352C135.212 30.7661 134.669 34.4263 134.372 38.0278C134.309 38.7466 135.329 38.7466 135.329 38.0278C135.63 34.3677 136.29 30.8286 137.192 27.227L141.872 27.1684C142.352 29.3286 144.751 39.6489 145.891 40.0669ZM137.009 19.4263C137.552 16.6059 138.27 14.2075 139.231 10.8481C139.829 13.6059 140.13 17.688 140.372 19.188C139.532 19.2466 137.852 19.3091 137.009 19.4263Z" fill="#2B2B2B"/>
    <path d="M180.932 6.52781C182.37 5.92625 182.432 3.64891 181.049 2.86766C180.932 2.74656 180.811 2.68797 180.69 2.62937C180.811 2.56687 180.991 2.56687 181.112 2.56687C181.709 2.44578 181.53 1.42625 180.991 1.48875C180.092 1.60594 179.19 1.66844 178.291 1.78953C177.932 1.72703 177.569 1.78953 177.272 1.78953C176.67 1.84812 176.069 1.90672 175.409 2.02781C167.069 2.74656 158.67 2.92625 150.272 2.44578C150.092 2.38719 150.03 2.74656 150.209 2.74656C153.452 3.28953 156.69 3.64891 159.932 3.82859C159.932 3.88719 159.87 3.94578 159.87 4.00828C156.569 4.00828 153.331 3.76609 150.03 3.46922C148.709 3.34813 147.51 4.48875 147.151 5.68797C146.791 7.12938 147.51 8.56687 148.709 9.22703C149.069 10.188 149.85 11.0278 150.631 11.5669C151.709 12.227 153.03 12.4067 154.291 12.5864C155.85 12.7075 157.471 12.7661 159.092 12.7661C159.87 12.7661 160.651 12.7661 161.432 12.7661V14.688L161.311 17.3286C161.19 20.4458 161.01 23.5669 160.831 26.6294C160.709 29.688 160.651 32.8091 160.831 35.8677C160.952 38.2075 161.491 40.9692 164.01 41.7466C165.272 42.1059 166.772 41.3872 167.19 40.0669C167.612 38.8677 167.67 37.188 167.909 36.1059V38.3872C167.85 39.227 167.85 40.0669 167.791 40.9067V41.0278C168.87 40.188 169.112 38.7466 169.229 37.3091C169.17 35.2075 169.049 33.1059 168.991 31.0083C168.991 27.3481 168.932 23.688 168.932 20.0278C168.932 17.3872 168.991 14.7466 168.991 12.1059C172.049 11.688 175.049 11.1489 178.112 10.5473C178.291 10.5473 178.409 10.4263 178.53 10.3091C178.831 10.2466 179.19 10.1294 179.432 9.94578C180.389 9.28953 180.631 8.2075 180.69 7.12937C180.811 6.94578 180.87 6.76609 180.932 6.52781ZM154.291 11.1489C152.85 11.0864 151.291 10.6684 150.331 9.76609C152.67 10.4887 155.069 10.9067 157.471 11.1489C156.389 11.2075 155.311 11.2075 154.291 11.1489Z" fill="#2B2B2B"/>
    <path d="M177.389 10.188C177.272 10.3091 177.272 10.4888 177.389 10.5473C178.71 9.94579 180.03 9.40672 181.409 8.98875C185.37 7.60594 189.452 6.7075 193.53 5.80907C195.87 5.2661 198.272 4.66844 200.612 4.06688C200.069 4.06688 199.53 4.06688 198.991 4.12938C196.409 4.30907 193.952 4.78954 191.491 5.2661L190.112 5.62938C185.792 6.7661 181.35 8.08641 177.389 10.188ZM211.049 34.6059C211.772 34.0669 212.249 33.227 212.19 32.1489C211.952 28.727 210.811 23.4458 206.19 24.4067C205.53 24.5864 204.932 24.8872 204.272 25.0669L201.932 25.7895C200.491 26.2661 199.049 26.8091 197.612 27.3481C196.71 27.6489 195.811 28.0083 194.909 28.3677L189.811 30.3481C188.491 30.8872 187.17 31.4263 185.85 32.0278L185.67 32.1489C185.67 32.0278 185.67 31.9692 185.67 31.9067L185.311 28.0083C186.991 27.1684 188.612 26.3286 190.35 25.6059C193.17 24.4067 195.991 23.5083 198.87 22.727C200.311 22.3677 201.811 22.0669 203.249 21.8286C204.631 21.5278 205.952 21.5864 207.21 20.9888C208.292 20.4458 209.01 19.1294 208.772 17.9888C208.651 17.3872 208.292 16.7895 207.749 16.4888C207.69 16.4888 207.69 16.4888 207.631 16.4263C207.569 16.188 207.452 15.9458 207.331 15.7075C207.272 15.5864 207.21 15.4067 207.088 15.227C206.249 13.7895 204.811 13.727 203.311 13.7895C202.588 13.8481 201.932 13.9067 201.21 14.0278L200.432 14.2075C198.51 14.7466 196.53 15.2895 194.612 15.7661C191.19 17.0278 187.889 18.4692 184.53 19.9067C184.53 19.6059 184.17 17.4458 184.112 16.8481L184.229 16.727C186.088 15.9458 188.01 15.227 189.932 14.5669C190.588 14.2661 196.53 12.4692 199.588 11.6294C199.71 11.6294 199.831 11.5669 199.952 11.5083C201.331 11.1489 202.71 10.727 204.03 10.3091L207.03 9.40672C207.272 8.2075 207.088 6.94579 206.67 5.68797C206.37 5.44579 206.01 5.14891 205.71 4.90672L204.749 4.54735C204.389 4.42625 203.971 4.36766 203.549 4.30907C200.432 5.14891 197.311 5.98875 194.131 6.7075C190.049 7.54735 185.971 8.44579 182.01 9.8286C180.749 10.2466 179.432 10.727 178.17 11.2661C178.112 11.4458 177.991 11.6294 177.932 11.7466C177.088 12.4692 176.549 13.3677 176.432 14.5669C176.311 15.5864 176.67 16.727 177.389 17.5083L178.112 24.3481L178.831 31.5473C179.01 33.6489 179.131 35.8091 179.491 37.8481C178.952 39.4067 179.971 41.2075 181.471 41.8091C181.409 42.1059 181.409 42.3481 181.53 42.6489C182.01 43.6684 183.088 43.727 184.049 43.5473C184.292 43.5473 184.651 43.4888 184.651 43.4888C184.588 43.5473 188.01 42.5278 188.729 42.0473L188.792 41.9888C189.452 41.688 190.112 41.4458 190.772 41.1489C190.889 41.0864 191.069 41.0278 191.19 40.9692H191.249C193.229 40.1294 195.272 39.4067 197.311 38.688C201.569 37.188 206.01 36.0473 210.452 35.2075C210.811 35.1489 210.991 34.9067 211.049 34.6059ZM196.53 21.8872L196.588 22.0669C196.229 22.188 195.932 22.3091 195.569 22.4888C192.569 23.688 189.452 24.8286 186.51 26.3286C186.991 25.9067 187.35 25.3091 187.471 24.6489C188.612 24.3481 189.749 23.9888 190.952 23.6294C192.811 23.0278 194.67 22.4888 196.53 21.8872ZM183.272 42.6489C184.471 42.3481 185.612 41.8677 186.749 41.4458C187.889 41.0864 188.971 40.6684 190.049 40.2466V40.3677C189.151 40.8481 188.249 41.3286 187.292 41.8091C186.87 42.0473 186.389 42.2895 185.909 42.5278C185.85 42.5864 185.792 42.5864 185.729 42.5864C185.549 42.6489 184.17 42.7661 183.272 42.6489Z" fill="#2B2B2B"/>
    <path d="M29.9692 60.1831C32.3754 60.1831 33.9184 59.269 33.9106 57.9214C33.9106 56.7495 32.9692 56.1518 30.7856 55.937L29.5825 55.8003C28.7426 55.7182 28.3793 55.5737 28.3911 55.3315C28.3989 54.9878 29.0668 54.769 29.9965 54.7612C30.9926 54.7534 32.059 55.0424 32.77 55.5112L33.4223 54.1479C32.6098 53.6323 31.3246 53.3237 29.9809 53.3237C27.6489 53.3237 26.0786 54.1089 26.0668 55.5034C26.0668 56.6479 26.9536 57.2182 29.0121 57.4331L30.2036 57.5698C31.1801 57.6714 31.5981 57.851 31.5981 58.1206C31.5981 58.4721 31.02 58.6831 30.0981 58.6831C28.852 58.6831 27.4496 58.2495 26.6801 57.6518L25.895 59.0698C26.7621 59.73 28.4262 60.1831 29.9692 60.1831Z" fill="#2B2B2B"/>
    <path d="M34.4153 59.9917H36.7903V53.5229H34.4153V59.9917Z" fill="#2B2B2B"/>
    <path d="M37.5677 59.9917H39.8177V55.9604H39.8333L41.931 59.9917H43.9466L45.9701 55.9526H45.9857V59.9917H48.2357V53.5229H45.1185L42.9076 57.8862H42.888L40.638 53.5229H37.5677V59.9917Z" fill="#2B2B2B"/>
    <path d="M49.0123 59.9917H51.3951V57.9956H54.2506C56.0865 57.9956 57.106 57.2104 57.106 55.7924C57.106 54.3354 56.0943 53.5229 54.2701 53.5229H49.0123V59.9917ZM51.3951 56.6674V54.851H53.4654C54.2701 54.851 54.7115 55.1753 54.7115 55.7534C54.7115 56.3432 54.2701 56.6674 53.4654 56.6674H51.3951Z" fill="#2B2B2B"/>
    <path d="M57.6024 59.9917H63.9345V58.2495H59.9853V53.5229H57.6024V59.9917Z" fill="#2B2B2B"/>
    <path d="M64.4132 59.9917H66.7882V53.5229H64.4132V59.9917Z" fill="#2B2B2B"/>
    <path d="M67.5656 59.9917H69.9484V57.7221H73.8507V56.3706H69.9484V55.1948H74.3937V53.5229H67.5656V59.9917Z" fill="#2B2B2B"/>
    <path d="M77.5747 59.9917H79.9575V57.7768L83.0474 53.5229H80.52L78.7739 56.2339H78.7661L76.9302 53.5229H74.438L77.5747 57.7768V59.9917Z" fill="#2B2B2B"/>
    <path d="M84.3104 60.0815C85.0057 60.0815 85.5018 59.6674 85.5018 59.0698C85.5018 58.4721 85.0057 58.0581 84.3104 58.0581C83.6229 58.0581 83.1268 58.4721 83.1268 59.0698C83.1268 59.6674 83.6229 60.0815 84.3104 60.0815Z" fill="#2B2B2B"/>
    <path d="M92.5872 60.144C94.9817 60.144 96.7044 59.144 97.0481 57.5542L94.845 57.1635C94.6653 57.9682 93.8059 58.4721 92.6497 58.4721C91.1848 58.4721 90.2552 57.8042 90.2473 56.7573C90.2473 55.6987 91.0755 55.0424 92.3763 55.0424C93.2981 55.0424 94.0325 55.4643 94.2591 56.1323L96.427 55.6909C95.9934 54.2651 94.3919 53.3589 92.3138 53.3589C89.5872 53.3589 87.8606 54.6792 87.8606 56.7573C87.8606 58.8979 89.6966 60.144 92.5872 60.144Z" fill="#2B2B2B"/>
    <path d="M102.099 60.2182C104.951 60.2182 106.849 58.8354 106.849 56.7573C106.849 54.6714 104.951 53.2964 102.099 53.2964C99.2435 53.2964 97.3451 54.6714 97.3451 56.7573C97.3451 58.8354 99.2435 60.2182 102.099 60.2182ZM102.099 58.5464C100.677 58.5464 99.7318 57.8315 99.7318 56.7573C99.7318 55.6831 100.677 54.9682 102.099 54.9682C103.517 54.9682 104.454 55.6831 104.454 56.7573C104.454 57.8315 103.517 58.5464 102.099 58.5464Z" fill="#2B2B2B"/>
    <path d="M107.463 59.9917H109.713V55.7378H109.721L113.19 59.9917H116.053V53.5229H113.803V57.7221H113.795L110.327 53.5229H107.463V59.9917Z" fill="#2B2B2B"/>
    <path d="M116.83 59.9917H119.08V55.7378H119.088L122.557 59.9917H125.42V53.5229H123.17V57.7221H123.162L119.694 53.5229H116.83V59.9917Z" fill="#2B2B2B"/>
    <path d="M126.197 59.9917H133.127V58.5268H128.51V57.3276H132.674V56.0698H128.51V54.9878H133.033V53.5229H126.197V59.9917Z" fill="#2B2B2B"/>
    <path d="M138.194 60.144C140.588 60.144 142.311 59.144 142.655 57.5542L140.452 57.1635C140.272 57.9682 139.412 58.4721 138.256 58.4721C136.791 58.4721 135.862 57.8042 135.854 56.7573C135.854 55.6987 136.682 55.0424 137.983 55.0424C138.905 55.0424 139.639 55.4643 139.866 56.1323L142.034 55.6909C141.6 54.2651 139.998 53.3589 137.92 53.3589C135.194 53.3589 133.467 54.6792 133.467 56.7573C133.467 58.8979 135.303 60.144 138.194 60.144Z" fill="#2B2B2B"/>
    <path d="M145.256 59.9917H147.639V55.1948H150.151V53.5229H142.745V55.1948H145.256V59.9917Z" fill="#2B2B2B"/>
    <path d="M151.496 60.0815C152.191 60.0815 152.688 59.6674 152.688 59.0698C152.688 58.4721 152.191 58.0581 151.496 58.0581C150.809 58.0581 150.313 58.4721 150.313 59.0698C150.313 59.6674 150.809 60.0815 151.496 60.0815Z" fill="#2B2B2B"/>
    <path d="M155.21 59.9917H157.593V57.4174H161.128V59.9917H163.519V53.5229H161.128V55.8081H157.593V53.5229H155.21V59.9917Z" fill="#2B2B2B"/>
    <path d="M164.297 59.9917H166.672V53.5229H164.297V59.9917Z" fill="#2B2B2B"/>
    <path d="M174.532 60.1714C175.118 60.1714 175.833 59.9643 176.184 59.6674L175.805 58.7104C175.696 58.8354 175.481 58.9057 175.325 58.9057C175.063 58.9057 174.903 58.8003 174.774 58.6167L174.333 57.9487C174.18 57.7221 173.981 57.5346 173.762 57.4604V57.4526C174.946 57.226 175.641 56.5503 175.641 55.5737C175.641 54.2729 174.641 53.5229 172.907 53.5229H167.45V59.9917H169.833V57.851H171.173C171.622 57.851 172.012 58.0385 172.282 58.4292L172.661 59.0503C173.04 59.5932 173.54 60.1714 174.532 60.1714ZM169.833 56.5229V54.9214H172.184C172.852 54.9214 173.251 55.2221 173.251 55.7182C173.251 56.226 172.852 56.5229 172.173 56.5229H169.833Z" fill="#2B2B2B"/>
    <path d="M176.51 59.9917H183.439V58.5268H178.822V57.3276H182.986V56.0698H178.822V54.9878H183.346V53.5229H176.51V59.9917Z" fill="#2B2B2B"/>
    <path d="M184.881 60.0815C185.577 60.0815 186.073 59.6674 186.073 59.0698C186.073 58.4721 185.577 58.0581 184.881 58.0581C184.194 58.0581 183.698 58.4721 183.698 59.0698C183.698 59.6674 184.194 60.0815 184.881 60.0815Z" fill="#2B2B2B"/>
</svg>
