<svg viewBox="0 0 213 44" fill="none"
    xmlns="http://www.w3.org/2000/svg">
    <path d="M30.6294 22.9352C32.1294 21.3141 31.8911 18.1969 29.5473 17.4156C29.0083 17.2945 28.5278 17.1148 28.0473 17.0562V15.7359C28.1098 14.2945 28.1098 12.8531 28.0473 11.4742C28.0473 11.2945 28.1098 11.1148 28.0473 10.9352C27.9302 8.83359 28.1684 6.19687 27.0278 4.33359C25.8286 2.29453 23.3091 2.23594 21.5083 3.43516C19.4692 4.81406 19.8286 7.21641 20.188 9.31406C20.3091 11.775 20.4888 14.2945 20.6098 16.7555C19.9497 16.8141 19.3481 16.9352 18.688 16.9937C16.5903 17.1734 14.4888 17.3531 12.3911 17.6539H12.27C12.0903 14.9547 11.9106 12.1969 11.7309 9.43516L11.5473 6.55625C11.4888 6.01328 11.2505 4.87656 10.6489 4.63438C10.4106 4.51328 10.2309 4.45469 9.98875 4.45469V4.33359C9.93016 2.95469 8.43016 1.99375 7.16844 2.17344C5.84813 2.35312 4.8286 3.61484 5.00828 4.99375C5.60985 9.55625 5.73094 14.2359 5.78953 18.8531H5.66844C5.60985 18.8531 5.54735 18.9742 5.48875 19.0367C5.30906 16.8141 5.07078 14.4742 4.8286 12.2555C4.52782 9.31406 4.34813 6.31406 3.75047 3.43516C3.75047 3.31406 3.57078 3.31406 3.57078 3.43516C3.44969 6.25547 3.68797 9.13437 3.75047 11.9547C3.86766 14.4156 3.93016 16.8766 3.98875 19.275C3.09031 19.5758 2.30906 20.0562 1.8286 20.8336C1.46922 21.1344 1.10985 21.4937 0.867659 21.8531C-0.569841 23.8336 1.52781 26.2945 3.57078 25.4547L4.16844 25.2164C4.34813 29.6539 4.41063 34.1539 4.77 38.5953C4.77 39.0133 5.18797 39.2555 5.54735 39.2555C5.66844 39.5563 5.78953 39.8531 5.96922 40.1539C7.10985 42.2555 9.3286 42.0133 10.8286 40.4547C11.5473 39.6734 11.7309 38.2945 11.8481 37.275C11.9106 36.7945 11.9106 36.2555 11.9692 35.775V35.5953C12.3286 33.6734 12.27 31.6344 12.27 29.6539C12.27 27.9156 12.2075 26.1734 12.1489 24.4352C14.4302 24.3141 16.77 24.2555 19.0473 24.2555C19.4692 24.2555 19.8286 24.2555 20.2505 24.2555V26.4742C20.2505 28.7555 20.3091 31.0953 20.4302 33.3766C20.4888 35.7164 20.6098 37.9938 20.7895 40.3336C20.8481 41.1148 20.9692 42.1344 21.5083 42.7359C22.1684 43.5758 23.2505 43.9352 24.3286 43.275C24.6294 43.0953 24.9302 42.8531 25.1098 42.6148C25.1684 42.6148 25.1684 42.6148 25.1684 42.5563C26.4302 41.8336 26.6684 39.7945 26.8481 38.4742C27.0278 37.0367 27.1489 35.5953 27.27 34.0953C27.4497 31.1539 27.6294 28.1539 27.7505 25.2164C29.0708 25.3961 30.4497 24.5562 30.6294 23.1148V22.9352ZM14.3091 22.6344C16.2895 22.5133 18.27 22.5758 20.2505 22.6344V22.9352C19.8911 22.9352 19.4692 22.9352 19.0473 22.8766C16.77 22.8766 14.4302 22.9937 12.0903 23.2359V22.9937C12.2075 22.9352 12.27 22.8141 12.3286 22.6969C12.9888 22.6969 13.6489 22.6344 14.3091 22.6344Z" fill="#2B2B2B"/>
    <path d="M27.209 7.1539C27.3301 7.75546 28.17 8.23593 28.709 8.41562C29.6075 8.77499 30.5098 8.89609 31.4708 8.89609C32.6075 8.89609 33.9278 8.5953 34.6504 7.75546C35.7911 7.51327 36.9278 6.97421 37.8301 6.31405C38.3106 5.95468 38.7286 5.35312 38.4903 4.69687C37.8887 3.13437 36.6895 2.23593 35.0684 1.81405C33.209 1.33359 31.3497 2.05624 29.7911 3.13437C29.67 3.19687 29.5489 3.31405 29.4278 3.43515C28.8301 3.85312 28.3497 4.33359 27.9278 4.93515C27.5098 5.53671 26.9708 6.37655 27.209 7.1539ZM31.2286 8.5953C30.5098 8.53671 29.8497 8.41562 29.1895 8.17343C28.7676 8.05624 28.4083 7.81405 28.0489 7.51327C27.5684 7.0953 27.6309 6.67343 27.8692 6.13437C28.1075 5.7164 28.3497 5.35312 28.6504 4.99374C28.0489 6.37655 28.709 7.75546 30.4473 8.11484C31.8301 8.35312 32.6075 8.23593 33.3301 8.05624C33.3887 8.05624 32.9708 8.5953 31.2286 8.5953ZM37.4708 38.5953C37.5879 39.1969 38.5489 39.1344 38.4903 38.5367C37.3497 30.0133 36.8692 21.4937 37.1075 12.9156C37.1075 12.8531 36.6895 12.9156 36.6895 13.0367C36.4473 17.2945 36.4473 23.5953 36.6309 27.8531C36.5098 27.8531 36.3301 25.7555 36.209 25.8141C36.1504 25.275 36.0879 24.7359 36.0879 24.3141C36.0294 22.0953 35.9083 19.8766 35.9083 17.7164C35.9083 15.4937 36.0294 13.3336 36.0294 11.1148C35.9708 10.5758 35.4903 10.3336 35.0684 10.3961C34.1075 7.99374 31.0489 10.2164 29.7911 11.0562C29.6075 11.2359 29.4278 11.4156 29.3106 11.6539C28.5879 12.3766 28.2286 13.5133 28.0489 14.6539C27.8106 16.8141 27.8692 19.0367 27.8692 21.1969C27.8106 25.6969 28.1075 30.1344 28.6504 34.5758C28.8887 36.2555 28.9473 38.0562 30.209 39.2555C30.5098 39.4937 30.8106 39.6734 31.1075 39.7945L31.2286 39.9742C32.3692 41.1148 34.17 41.4742 35.6075 40.7555C36.1504 40.5133 36.2676 40.0367 36.209 39.6148C36.6895 39.4351 37.17 39.0758 37.4708 38.5953ZM30.8106 14.1148C30.8106 13.9937 31.0489 13.6344 31.2286 13.5133H31.2911C30.6309 15.4351 30.5098 17.6539 30.5098 19.6969C30.4473 22.3961 30.5098 25.0953 30.5098 27.7945H30.3301C30.1504 26.3531 29.9708 24.9156 29.8497 23.4742C29.8497 23.4156 29.8497 23.4156 29.8497 23.3531V22.7555C29.9708 19.9937 29.9083 16.8141 30.8106 14.1148Z" fill="#2B2B2B"/>
    <path d="M67.7084 18.9156C67.8881 17.5953 67.5287 16.5133 66.5678 15.7945C65.7904 15.1969 64.9506 14.5367 64.1107 13.9352C63.9897 13.4547 63.7475 12.9742 63.2709 12.6148C57.3881 8.6539 51.4506 4.57578 44.849 2.47421C44.7904 2.47421 44.7279 2.41562 44.6693 2.41562C44.2475 2.23593 43.8295 2.11484 43.4076 1.93515C43.2904 1.81406 43.1107 1.69687 42.8686 1.69687C40.8881 1.33359 37.2904 0.556246 36.1498 2.775C35.4897 4.1539 36.1498 5.83359 37.2904 6.79453C36.9311 7.33359 36.5092 7.75546 36.0287 8.11484C36.5092 10.1539 36.9311 12.2555 37.349 14.2945C36.9897 14.2945 36.6303 14.2945 36.2709 14.3531C34.4701 14.3531 33.7475 17.3531 35.4311 18.4352C35.9701 18.7945 36.6303 19.1539 37.2279 19.3961L35.849 19.5758C36.5092 19.8141 37.1693 20.0562 37.8295 20.2359C38.0678 20.2945 38.1889 20.4742 38.1889 20.6539C38.31 20.6539 38.4311 20.6539 38.5482 20.6539L38.9076 22.7555C39.3881 25.5758 39.8686 28.3961 40.349 31.2164L40.8881 35.1734C41.0092 36.4937 40.8881 37.9352 41.1889 39.1969C41.1889 39.8531 41.7904 40.275 42.2709 40.1539C42.3295 40.5133 42.4506 40.8141 42.6303 41.1148C43.349 41.9547 44.5482 41.8961 45.3295 41.2359C45.9311 40.7555 46.349 40.1539 46.7084 39.4352C46.7084 39.1344 46.7084 38.775 46.6498 38.4156C46.8295 35.4742 46.5287 32.4156 46.349 29.4742C46.2279 26.7164 45.9897 23.9547 45.6889 21.2555C47.2475 21.3141 48.8686 21.4352 50.4311 21.4937C50.7279 22.0367 51.0873 22.6344 51.4506 23.1734V23.2359C51.81 23.8336 52.1107 24.4352 52.4076 25.0953C53.5482 27.3141 55.1693 31.275 55.8295 32.8336C57.0287 35.5953 58.2279 38.4156 59.31 41.2359C59.5482 41.3531 59.9076 41.2359 60.0873 41.0562C60.0873 41.1148 60.1498 41.1148 60.2084 41.1148C60.7475 41.3531 61.2904 41.3531 61.8295 41.2945C62.849 41.7164 64.2279 41.4156 64.4076 40.0953C64.8881 36.1969 62.7904 32.4156 61.1693 28.9937C59.9076 26.4156 58.4701 23.9547 56.849 21.5562C59.6693 21.7945 62.4897 22.0367 65.31 22.2164C66.2709 22.3336 67.4076 21.3141 67.5287 20.1734L67.7084 18.9156ZM43.349 9.73593L43.1693 8.775C48.3295 9.97421 53.1303 12.5562 57.7475 15.7359L51.9311 15.0133C50.5482 13.8766 48.5678 12.2555 46.7709 13.3961C46.4701 13.6344 46.2904 13.9937 46.2279 14.2945C45.9311 14.2359 45.5678 14.2359 45.2709 14.1734C45.0287 12.9156 44.7279 11.6539 44.4311 10.3961C44.3686 9.85312 43.7709 9.85312 43.4701 10.1539C43.4076 10.0367 43.4076 9.85312 43.349 9.73593ZM47.6107 36.7359C47.849 35.2945 48.3295 34.6969 48.1498 32.5367C47.849 28.9352 47.5482 25.3336 46.9506 21.8531H46.4701C47.1889 26.775 47.3686 31.7555 47.6107 36.7359Z" fill="#2B2B2B"/>
    <path d="M64.8281 10.0953C64.7109 10.2164 64.7109 10.3961 64.8281 10.4547C66.1484 9.85312 67.4687 9.31406 68.8476 8.89609C72.8085 7.51327 76.8906 6.61484 80.9687 5.7164C83.3085 5.17343 85.7109 4.57577 88.0507 3.97421C87.5077 3.97421 86.9687 3.97421 86.4296 4.03671C83.8476 4.2164 81.3906 4.69687 78.9296 5.17343L77.5507 5.53671C73.2304 6.67343 68.789 7.99374 64.8281 10.0953ZM98.4882 34.5133C99.2109 33.9742 99.6874 33.1344 99.6288 32.0562C99.3906 28.6344 98.2499 23.3531 93.6288 24.3141C92.9687 24.4937 92.371 24.7945 91.7109 24.9742L89.371 25.6969C87.9296 26.1734 86.4882 26.7164 85.0507 27.2555C84.1484 27.5562 83.2499 27.9156 82.3476 28.275L77.2499 30.2555C75.9296 30.7945 74.6093 31.3336 73.289 31.9352L73.1093 32.0562C73.1093 31.9351 73.1093 31.8766 73.1093 31.8141L72.7499 27.9156C74.4296 27.0758 76.0507 26.2359 77.789 25.5133C80.6093 24.3141 83.4296 23.4156 86.3085 22.6344C87.7499 22.275 89.2499 21.9742 90.6874 21.7359C92.0702 21.4351 93.3906 21.4937 94.6484 20.8961C95.7304 20.3531 96.4491 19.0367 96.2109 17.8961C96.0898 17.2945 95.7304 16.6969 95.1874 16.3961C95.1288 16.3961 95.1288 16.3961 95.0702 16.3336C95.0077 16.0953 94.8906 15.8531 94.7695 15.6148C94.7109 15.4937 94.6484 15.3141 94.5273 15.1344C93.6874 13.6969 92.2499 13.6344 90.7499 13.6969C90.0273 13.7555 89.371 13.8141 88.6484 13.9352L87.871 14.1148C85.9491 14.6539 83.9687 15.1969 82.0507 15.6734C78.6288 16.9351 75.3281 18.3766 71.9687 19.8141C71.9687 19.5133 71.6093 17.3531 71.5507 16.7555L71.6679 16.6344C73.5273 15.8531 75.4491 15.1344 77.371 14.4742C78.0273 14.1734 83.9687 12.3766 87.0273 11.5367C87.1484 11.5367 87.2695 11.4742 87.3906 11.4156C88.7695 11.0562 90.1484 10.6344 91.4687 10.2164L94.4687 9.31406C94.7109 8.11484 94.5273 6.85312 94.1093 5.59531C93.8085 5.35312 93.4491 5.05624 93.1484 4.81406L92.1874 4.45468C91.8281 4.33359 91.4101 4.27499 90.9882 4.2164C87.871 5.05624 84.7499 5.89609 81.5702 6.61484C77.4882 7.45468 73.4101 8.35312 69.4491 9.73593C68.1874 10.1539 66.871 10.6344 65.6093 11.1734C65.5507 11.3531 65.4296 11.5367 65.371 11.6539C64.5273 12.3766 63.9882 13.275 63.871 14.4742C63.7499 15.4937 64.1093 16.6344 64.8281 17.4156L65.5507 24.2555L66.2695 31.4547C66.4491 33.5562 66.5702 35.7164 66.9296 37.7555C66.3906 39.3141 67.4101 41.1148 68.9101 41.7164C68.8476 42.0133 68.8476 42.2555 68.9687 42.5562C69.4491 43.5758 70.5273 43.6344 71.4882 43.4547C71.7304 43.4547 72.0898 43.3961 72.0898 43.3961C72.0273 43.4547 75.4491 42.4351 76.1679 41.9547L76.2304 41.8961C76.8906 41.5953 77.5507 41.3531 78.2109 41.0562C78.3281 40.9937 78.5077 40.9352 78.6288 40.8766H78.6874C80.6679 40.0367 82.7109 39.3141 84.7499 38.5953C89.0077 37.0953 93.4492 35.9547 97.8906 35.1148C98.2499 35.0562 98.4296 34.8141 98.4882 34.5133ZM83.9687 21.7945L84.0273 21.9742C83.6679 22.0953 83.371 22.2164 83.0077 22.3961C80.0077 23.5953 76.8906 24.7359 73.9491 26.2359C74.4296 25.8141 74.789 25.2164 74.9101 24.5562C76.0507 24.2555 77.1874 23.8961 78.3906 23.5367C80.2499 22.9351 82.1093 22.3961 83.9687 21.7945ZM70.7109 42.5562C71.9101 42.2555 73.0507 41.775 74.1874 41.3531C75.3281 40.9937 76.4101 40.5758 77.4882 40.1539V40.275C76.5898 40.7555 75.6874 41.2359 74.7304 41.7164C74.3085 41.9547 73.8281 42.1969 73.3476 42.4352C73.289 42.4937 73.2304 42.4937 73.1679 42.4937C72.9882 42.5562 71.6093 42.6734 70.7109 42.5562Z" fill="#2B2B2B"/>
    <path d="M130.11 35.6539C129.931 33.9156 129.509 32.1734 129.149 30.4352C128.727 28.4547 128.368 26.5367 128.009 24.5563C127.829 23.7164 127.649 22.8141 127.411 21.9156C127.29 20.8961 127.11 19.8141 126.931 18.7945C126.45 16.0953 125.97 13.3961 125.309 10.6969C124.708 8.23594 123.688 5.8336 121.829 3.97422C121.11 3.19688 119.79 3.19688 118.95 3.85313C118.227 3.43516 117.329 3.31407 116.309 3.61485C115.649 3.73594 114.989 4.3336 114.868 4.93516C114.149 10.1539 112.829 15.3141 111.688 20.4742C110.911 23.8336 110.188 27.1969 109.411 30.5563C108.028 24.4938 106.708 17.4742 105.688 11.2945C105.45 9.79453 105.149 8.29453 105.028 6.85313C104.97 6.25547 104.727 5.65391 104.368 5.23594C103.95 4.15391 103.048 3.37657 101.911 3.13438C100.95 2.8336 99.868 2.95469 98.911 3.55625C98.1883 3.97422 97.8876 4.57578 97.8876 5.17344C97.3485 6.31406 97.411 7.63438 97.4696 8.8336C97.4696 10.275 97.5282 11.6539 97.5282 13.0953V14.4742C97.411 14.4742 97.3485 13.1539 97.2274 13.1539C97.1688 10.5758 97.1102 7.81407 96.7508 5.41563C96.6883 5.11485 96.0907 5.11485 96.0282 5.41563C95.368 8.8336 95.6102 12.4352 95.6688 15.8531C95.6688 19.3961 95.7274 22.9938 95.8485 26.5367C95.911 30.0133 96.1493 33.3766 96.6297 36.8531C96.8094 38.2945 96.9305 40.0953 98.0086 41.1734C98.5477 41.7164 99.3876 41.8336 100.11 41.5953C100.169 41.7164 100.227 41.775 100.29 41.8336C100.528 42.1344 100.95 42.1344 101.309 41.9547C103.227 41.1148 103.048 38.8961 102.989 37.1539C102.868 32.1148 102.688 26.8336 102.45 21.7945C102.567 22.3336 102.751 22.8141 102.931 23.2945C103.411 25.275 103.95 27.3141 104.489 29.2945L107.067 38.4742C107.309 39.4352 107.548 40.3336 108.091 41.1734C108.208 41.4156 108.45 41.4742 108.63 41.3531C108.868 41.5367 109.169 41.5953 109.47 41.5953C109.649 41.7164 109.95 41.7164 110.251 41.6539C111.208 41.4156 111.567 40.7555 111.868 39.9156C112.048 39.3141 112.169 38.775 112.29 38.1734C112.29 38.2945 112.47 38.3531 112.528 38.1148C113.009 35.5953 113.848 31.8766 114.63 28.5758C115.47 25.2164 116.97 19.9938 118.411 15.7945C118.95 18.3141 119.489 20.8336 120.091 23.3531C121.411 28.5758 122.067 33.3766 122.188 38.6539C122.188 40.0953 123.27 41.2945 124.649 41.5953C126.149 43.0953 128.368 42.1344 129.27 40.5758C130.11 39.0758 130.227 37.3336 130.11 35.6539ZM105.208 19.3336C105.208 19.2164 105.149 19.0953 105.091 19.0367C104.309 15.3141 103.47 11.7164 102.567 8.05625C102.63 7.93516 102.63 7.87657 102.63 7.81407C102.931 7.75547 103.227 7.63438 103.47 7.45469C103.708 8.41563 103.829 9.31407 103.95 10.2164C104.489 13.275 105.27 17.6539 105.868 20.7164C105.509 20.3531 105.45 19.9352 105.208 19.3336ZM114.329 28.4547H114.27C114.208 28.4547 114.149 28.4547 114.091 28.3961C114.27 27.4938 114.45 26.5953 114.567 25.6969C115.528 21.6148 116.61 17.5953 117.931 13.6344C118.048 14.0563 118.11 14.4742 118.227 14.8336C116.727 19.3336 115.411 23.8961 114.329 28.4547Z" fill="#2B2B2B"/>
    <path d="M145.89 39.9742C147.269 44.2945 151.71 44.1734 151.05 38.775C150.57 35.1734 149.55 30.3141 148.769 26.775C152.07 24.6734 151.41 19.275 146.851 18.7359C146.429 15.1344 146.07 6.07577 146.007 6.67343C145.769 8.6539 145.648 10.7555 145.589 12.7945C145.531 12.7945 145.531 12.7945 145.468 12.7359C145.23 10.3961 144.988 7.93515 144.808 5.53671C144.628 3.61484 143.37 2.41562 141.628 2.29453C141.148 1.33359 139.949 0.614837 138.929 0.673431C135.87 0.735931 134.667 4.45468 133.589 6.79453C132.031 10.5133 131.07 14.4156 130.23 18.3766C123.089 19.4547 123.089 25.9937 126.929 26.9547C126.988 27.1344 126.929 27.3766 126.87 27.4937C127.351 27.4937 127.949 27.4352 128.488 27.3766C127.589 30.8531 126.988 34.3336 126.507 37.8766C125.73 43.5133 133.167 44.3531 133.648 38.8961L134.007 36.1969C134.007 36.1969 135.031 30.0758 135.808 27.1344H136.351C135.21 30.6734 134.667 34.3336 134.37 37.9352C134.308 38.6539 135.328 38.6539 135.328 37.9352C135.628 34.275 136.288 30.7359 137.191 27.1344L141.87 27.0758C142.351 29.2359 144.749 39.5562 145.89 39.9742ZM137.007 19.3336C137.55 16.5133 138.269 14.1148 139.23 10.7555C139.828 13.5133 140.128 17.5953 140.37 19.0953C139.531 19.1539 137.851 19.2164 137.007 19.3336Z" fill="#2B2B2B"/>
    <path d="M180.931 6.43516C182.368 5.8336 182.431 3.55625 181.048 2.775C180.931 2.65391 180.81 2.59532 180.689 2.53672C180.81 2.47422 180.989 2.47422 181.11 2.47422C181.708 2.35313 181.528 1.3336 180.989 1.3961C180.091 1.51329 179.189 1.57579 178.29 1.69688C177.931 1.63438 177.567 1.69688 177.271 1.69688C176.669 1.75547 176.067 1.81407 175.407 1.93516C167.067 2.65391 158.669 2.8336 150.271 2.35313C150.091 2.29454 150.028 2.65391 150.208 2.65391C153.45 3.19688 156.689 3.55625 159.931 3.73594C159.931 3.79454 159.868 3.85313 159.868 3.91563C156.567 3.91563 153.329 3.67344 150.028 3.37657C148.708 3.25547 147.509 4.3961 147.149 5.59532C146.79 7.03672 147.509 8.47422 148.708 9.13438C149.067 10.0953 149.849 10.9352 150.63 11.4742C151.708 12.1344 153.028 12.3141 154.29 12.4938C155.849 12.6148 157.47 12.6734 159.091 12.6734C159.868 12.6734 160.649 12.6734 161.431 12.6734V14.5953L161.31 17.2359C161.189 20.3531 161.009 23.4742 160.829 26.5367C160.708 29.5953 160.649 32.7164 160.829 35.775C160.95 38.1148 161.489 40.8766 164.009 41.6539C165.271 42.0133 166.771 41.2945 167.189 39.9742C167.61 38.775 167.669 37.0953 167.907 36.0133V38.2945C167.849 39.1344 167.849 39.9742 167.79 40.8141V40.9352C168.868 40.0953 169.11 38.6539 169.228 37.2164C169.169 35.1148 169.048 33.0133 168.989 30.9156C168.989 27.2555 168.931 23.5953 168.931 19.9352C168.931 17.2945 168.989 14.6539 168.989 12.0133C172.048 11.5953 175.048 11.0563 178.11 10.4547C178.29 10.4547 178.407 10.3336 178.528 10.2164C178.829 10.1539 179.189 10.0367 179.431 9.85313C180.388 9.19688 180.63 8.11485 180.689 7.03672C180.81 6.85313 180.868 6.67344 180.931 6.43516ZM154.29 11.0563C152.849 10.9938 151.29 10.5758 150.329 9.67344C152.669 10.3961 155.067 10.8141 157.47 11.0563C156.388 11.1148 155.31 11.1148 154.29 11.0563Z" fill="#2B2B2B"/>
    <path d="M177.388 10.0953C177.271 10.2164 177.271 10.3961 177.388 10.4547C178.708 9.85312 180.029 9.31406 181.407 8.89609C185.368 7.51327 189.45 6.61484 193.529 5.7164C195.868 5.17343 198.271 4.57577 200.611 3.97421C200.068 3.97421 199.529 3.97421 198.989 4.03671C196.407 4.2164 193.95 4.69687 191.489 5.17343L190.111 5.53671C185.79 6.67343 181.349 7.99374 177.388 10.0953ZM211.048 34.5133C211.771 33.9742 212.247 33.1344 212.189 32.0562C211.95 28.6344 210.81 23.3531 206.189 24.3141C205.529 24.4937 204.931 24.7945 204.271 24.9742L201.931 25.6969C200.489 26.1734 199.048 26.7164 197.611 27.2555C196.708 27.5562 195.81 27.9156 194.907 28.275L189.81 30.2555C188.489 30.7945 187.169 31.3336 185.849 31.9352L185.669 32.0562C185.669 31.9351 185.669 31.8766 185.669 31.8141L185.31 27.9156C186.989 27.0758 188.611 26.2359 190.349 25.5133C193.169 24.3141 195.989 23.4156 198.868 22.6344C200.31 22.275 201.81 21.9742 203.247 21.7359C204.63 21.4351 205.95 21.4937 207.208 20.8961C208.29 20.3531 209.009 19.0367 208.771 17.8961C208.65 17.2945 208.29 16.6969 207.747 16.3961C207.689 16.3961 207.689 16.3961 207.63 16.3336C207.568 16.0953 207.45 15.8531 207.329 15.6148C207.271 15.4937 207.208 15.3141 207.087 15.1344C206.247 13.6969 204.81 13.6344 203.31 13.6969C202.587 13.7555 201.931 13.8141 201.208 13.9352L200.431 14.1148C198.509 14.6539 196.529 15.1969 194.611 15.6734C191.189 16.9351 187.888 18.3766 184.529 19.8141C184.529 19.5133 184.169 17.3531 184.111 16.7555L184.228 16.6344C186.087 15.8531 188.009 15.1344 189.931 14.4742C190.587 14.1734 196.529 12.3766 199.587 11.5367C199.708 11.5367 199.829 11.4742 199.95 11.4156C201.329 11.0562 202.708 10.6344 204.029 10.2164L207.029 9.31406C207.271 8.11484 207.087 6.85312 206.669 5.59531C206.368 5.35312 206.009 5.05624 205.708 4.81406L204.747 4.45468C204.388 4.33359 203.97 4.27499 203.548 4.2164C200.431 5.05624 197.31 5.89609 194.13 6.61484C190.048 7.45468 185.97 8.35312 182.009 9.73593C180.747 10.1539 179.431 10.6344 178.169 11.1734C178.111 11.3531 177.989 11.5367 177.931 11.6539C177.087 12.3766 176.548 13.275 176.431 14.4742C176.31 15.4937 176.669 16.6344 177.388 17.4156L178.111 24.2555L178.829 31.4547C179.009 33.5562 179.13 35.7164 179.489 37.7555C178.95 39.3141 179.97 41.1148 181.47 41.7164C181.407 42.0133 181.407 42.2555 181.529 42.5562C182.009 43.5758 183.087 43.6344 184.048 43.4547C184.29 43.4547 184.65 43.3961 184.65 43.3961C184.587 43.4547 188.009 42.4351 188.728 41.9547L188.79 41.8961C189.45 41.5953 190.111 41.3531 190.771 41.0562C190.888 40.9937 191.068 40.9352 191.189 40.8766H191.247C193.228 40.0367 195.271 39.3141 197.31 38.5953C201.568 37.0953 206.009 35.9547 210.45 35.1148C210.81 35.0562 210.989 34.8141 211.048 34.5133ZM196.529 21.7945L196.587 21.9742C196.228 22.0953 195.931 22.2164 195.568 22.3961C192.568 23.5953 189.45 24.7359 186.509 26.2359C186.989 25.8141 187.349 25.2164 187.47 24.5562C188.611 24.2555 189.747 23.8961 190.95 23.5367C192.81 22.9351 194.669 22.3961 196.529 21.7945ZM183.271 42.5562C184.47 42.2555 185.611 41.775 186.747 41.3531C187.888 40.9937 188.97 40.5758 190.048 40.1539V40.275C189.15 40.7555 188.247 41.2359 187.29 41.7164C186.868 41.9547 186.388 42.1969 185.907 42.4352C185.849 42.4937 185.79 42.4937 185.728 42.4937C185.548 42.5562 184.169 42.6734 183.271 42.5562Z" fill="#2B2B2B"/>
</svg>
