<svg xmlns="http://www.w3.org/2000/svg"
    xmlns:xlink="http://www.w3.org/1999/xlink" width="500" zoomAndPan="magnify" viewBox="0 0 375 374.999991" height="500" preserveAspectRatio="xMidYMid meet" version="1.0">
    <defs>
        <g/>
    </defs>
    <g fill="#2b2b2b" fill-opacity="1">
        <g transform="translate(85.503437, 282.041771)">
            <g>
                <path d="M 160.339844 -98.527344 C 168.183594 -107 166.929688 -123.316406 154.691406 -127.394531 C 151.867188 -128.019531 149.359375 -128.960938 146.847656 -129.277344 L 146.847656 -136.179688 C 147.160156 -143.710938 147.160156 -151.242188 146.847656 -158.457031 C 146.847656 -159.398438 147.160156 -160.339844 146.847656 -161.28125 C 146.21875 -172.265625 147.476562 -186.070312 141.515625 -195.796875 C 135.238281 -206.464844 122.058594 -206.78125 112.644531 -200.503906 C 101.976562 -193.289062 103.859375 -180.734375 105.742188 -169.753906 C 106.371094 -156.890625 107.3125 -143.710938 107.941406 -130.84375 C 104.488281 -130.53125 101.351562 -129.902344 97.898438 -129.589844 C 86.917969 -128.648438 75.933594 -127.707031 64.953125 -126.140625 L 64.324219 -126.140625 C 63.382812 -140.257812 62.441406 -154.691406 61.5 -169.125 L 60.558594 -184.1875 C 60.246094 -187.011719 58.992188 -192.972656 55.851562 -194.230469 C 54.597656 -194.855469 53.65625 -195.171875 52.402344 -195.171875 L 52.402344 -195.796875 C 52.085938 -203.015625 44.242188 -208.035156 37.652344 -207.09375 C 30.75 -206.152344 25.417969 -199.5625 26.355469 -192.347656 C 29.496094 -168.5 30.121094 -144.023438 30.4375 -119.863281 L 29.808594 -119.863281 C 29.496094 -119.863281 29.179688 -119.234375 28.867188 -118.921875 C 27.925781 -130.53125 26.671875 -142.769531 25.417969 -154.378906 C 23.847656 -169.753906 22.90625 -185.441406 19.769531 -200.503906 C 19.769531 -201.132812 18.828125 -201.132812 18.828125 -200.503906 C 18.199219 -185.757812 19.453125 -170.695312 19.769531 -155.949219 C 20.394531 -143.082031 20.710938 -130.21875 21.023438 -117.667969 C 16.316406 -116.097656 12.238281 -113.585938 9.726562 -109.507812 C 7.84375 -107.941406 5.960938 -106.058594 4.707031 -104.175781 C -2.824219 -93.820312 8.160156 -80.953125 18.828125 -85.347656 L 21.964844 -86.601562 C 22.90625 -63.382812 23.21875 -39.851562 25.101562 -16.628906 C 25.101562 -14.433594 27.296875 -13.179688 29.179688 -13.179688 C 29.808594 -11.609375 30.4375 -10.039062 31.378906 -8.472656 C 37.339844 2.511719 48.949219 1.253906 56.792969 -6.902344 C 60.558594 -10.980469 61.5 -18.199219 62.128906 -23.535156 C 62.441406 -26.042969 62.441406 -28.867188 62.753906 -31.378906 L 62.753906 -32.320312 C 64.636719 -42.359375 64.324219 -53.027344 64.324219 -63.382812 C 64.324219 -72.484375 64.011719 -81.582031 63.695312 -90.683594 C 75.621094 -91.308594 87.859375 -91.625 99.78125 -91.625 C 101.976562 -91.625 103.859375 -91.625 106.058594 -91.625 L 106.058594 -80.011719 C 106.058594 -68.089844 106.371094 -55.851562 107 -43.929688 C 107.3125 -31.691406 107.941406 -19.769531 108.882812 -7.53125 C 109.195312 -3.453125 109.824219 1.882812 112.644531 5.019531 C 116.097656 9.414062 121.746094 11.296875 127.394531 7.84375 C 128.960938 6.902344 130.53125 5.648438 131.472656 4.394531 C 131.785156 4.394531 131.785156 4.394531 131.785156 4.078125 C 138.375 0.3125 139.632812 -10.355469 140.574219 -17.257812 C 141.515625 -24.789062 142.140625 -32.320312 142.769531 -40.164062 C 143.710938 -55.539062 144.652344 -71.226562 145.277344 -86.601562 C 152.183594 -85.660156 159.398438 -90.054688 160.339844 -97.585938 Z M 74.992188 -100.09375 C 85.347656 -100.722656 95.703125 -100.410156 106.058594 -100.09375 L 106.058594 -98.527344 C 104.175781 -98.527344 101.976562 -98.527344 99.78125 -98.839844 C 87.859375 -98.839844 75.621094 -98.210938 63.382812 -96.957031 L 63.382812 -98.210938 C 64.011719 -98.527344 64.324219 -99.152344 64.636719 -99.78125 C 68.089844 -99.78125 71.542969 -100.09375 74.992188 -100.09375 Z M 74.992188 -100.09375 "/>
            </g>
        </g>
    </g>
    <g fill="#2b2b2b" fill-opacity="1">
        <g transform="translate(223.555106, 282.041771)">
            <g>
                <path d="M 4.394531 -181.050781 C 5.019531 -177.914062 9.414062 -175.402344 12.238281 -174.460938 C 16.945312 -172.578125 21.652344 -171.949219 26.671875 -171.949219 C 32.632812 -171.949219 39.535156 -173.519531 43.300781 -177.914062 C 49.261719 -179.167969 55.226562 -181.992188 59.929688 -185.441406 C 62.441406 -187.324219 64.636719 -190.464844 63.382812 -193.914062 C 60.246094 -202.074219 53.96875 -206.78125 45.496094 -208.976562 C 35.769531 -211.488281 26.042969 -207.722656 17.886719 -202.074219 C 17.257812 -201.757812 16.628906 -201.132812 16.003906 -200.503906 C 12.863281 -198.308594 10.355469 -195.796875 8.160156 -192.660156 C 5.960938 -189.523438 3.136719 -185.128906 4.394531 -181.050781 Z M 25.417969 -173.519531 C 21.652344 -173.832031 18.199219 -174.460938 14.746094 -175.714844 C 12.550781 -176.34375 10.667969 -177.597656 8.785156 -179.167969 C 6.277344 -181.363281 6.589844 -183.558594 7.84375 -186.382812 C 9.097656 -188.582031 10.355469 -190.464844 11.921875 -192.347656 C 8.785156 -185.128906 12.238281 -177.914062 21.335938 -176.03125 C 28.554688 -174.773438 32.632812 -175.402344 36.398438 -176.34375 C 36.710938 -176.34375 34.515625 -173.519531 25.417969 -173.519531 Z M 58.050781 -16.628906 C 58.675781 -13.492188 63.695312 -13.804688 63.382812 -16.945312 C 57.421875 -61.5 54.910156 -106.058594 56.167969 -150.925781 C 56.167969 -151.242188 53.96875 -150.925781 53.96875 -150.300781 C 52.714844 -128.019531 52.714844 -95.074219 53.65625 -72.796875 C 53.027344 -72.796875 52.085938 -83.777344 51.460938 -83.464844 C 51.144531 -86.289062 50.832031 -89.113281 50.832031 -91.308594 C 50.519531 -102.917969 49.890625 -114.527344 49.890625 -125.824219 C 49.890625 -137.433594 50.519531 -148.730469 50.519531 -160.339844 C 50.203125 -163.164062 47.695312 -164.417969 45.496094 -164.105469 C 40.476562 -176.65625 24.476562 -165.046875 17.886719 -160.65625 C 16.945312 -159.714844 16.003906 -158.773438 15.375 -157.515625 C 11.609375 -153.75 9.726562 -147.789062 8.785156 -141.828125 C 7.53125 -130.53125 7.84375 -118.921875 7.84375 -107.625 C 7.53125 -84.09375 9.097656 -60.871094 11.921875 -37.652344 C 13.179688 -28.867188 13.492188 -19.453125 20.082031 -13.179688 C 21.652344 -11.921875 23.21875 -10.980469 24.789062 -10.355469 L 25.417969 -9.414062 C 31.378906 -3.453125 40.792969 -1.570312 48.320312 -5.335938 C 51.144531 -6.589844 51.773438 -9.097656 51.460938 -11.296875 C 53.96875 -12.238281 56.480469 -14.121094 58.050781 -16.628906 Z M 23.21875 -144.652344 C 23.21875 -145.277344 24.476562 -147.160156 25.417969 -147.789062 L 25.730469 -147.789062 C 22.277344 -137.75 21.652344 -126.140625 21.652344 -115.46875 C 21.335938 -101.351562 21.652344 -87.230469 21.652344 -73.109375 L 20.710938 -73.109375 C 19.769531 -80.640625 18.828125 -88.171875 18.199219 -95.703125 C 18.199219 -96.015625 18.199219 -96.015625 18.199219 -96.328125 L 18.199219 -99.46875 C 18.828125 -113.902344 18.511719 -130.53125 23.21875 -144.652344 Z M 23.21875 -144.652344 "/>
            </g>
        </g>
    </g>
</svg>