<svg viewBox="0 0 39 42" fill="none"
    xmlns="http://www.w3.org/2000/svg">
    <path d="M30.6489 21.2851C32.1489 19.6641 31.9106 16.5469 29.5669 15.7656C29.0278 15.6445 28.5473 15.4648 28.0669 15.4062V14.0859C28.1294 12.6445 28.1294 11.2031 28.0669 9.82421C28.0669 9.64452 28.1294 9.46483 28.0669 9.28515C27.9497 7.18358 28.188 4.54687 27.0473 2.68358C25.8481 0.644522 23.3286 0.585929 21.5278 1.78515C19.4887 3.16405 19.8481 5.5664 20.2075 7.66405C20.3286 10.125 20.5083 12.6445 20.6294 15.1055C19.9692 15.1641 19.3677 15.2851 18.7075 15.3437C16.6098 15.5234 14.5083 15.7031 12.4106 16.0039H12.2895C12.1098 13.3047 11.9302 10.5469 11.7505 7.78515L11.5669 4.90624C11.5083 4.36327 11.27 3.22655 10.6684 2.98437C10.4302 2.86327 10.2505 2.80468 10.0083 2.80468V2.68358C9.94968 1.30468 8.44968 0.34374 7.18796 0.523428C5.86765 0.703115 4.84812 1.96483 5.02781 3.34374C5.62937 7.90624 5.75046 12.5859 5.80906 17.2031H5.68796C5.62937 17.2031 5.56687 17.3242 5.50828 17.3867C5.32859 15.1641 5.09031 12.8242 4.84812 10.6055C4.54734 7.66405 4.36765 4.66405 3.76999 1.78515C3.76999 1.66405 3.59031 1.66405 3.59031 1.78515C3.46921 4.60546 3.70749 7.48436 3.76999 10.3047C3.88718 12.7656 3.94968 15.2266 4.00828 17.625C3.10984 17.9258 2.32859 18.4062 1.84812 19.1836C1.48874 19.4844 1.12937 19.8437 0.887182 20.2031C-0.550318 22.1836 1.54734 24.6445 3.59031 23.8047L4.18796 23.5664C4.36765 28.0039 4.43015 32.5039 4.78953 36.9453C4.78953 37.3633 5.20749 37.6055 5.56687 37.6055C5.68796 37.9062 5.80906 38.2031 5.98874 38.5039C7.12937 40.6055 9.34812 40.3633 10.8481 38.8047C11.5669 38.0234 11.7505 36.6445 11.8677 35.625C11.9302 35.1445 11.9302 34.6055 11.9887 34.125V33.9453C12.3481 32.0234 12.2895 29.9844 12.2895 28.0039C12.2895 26.2656 12.227 24.5234 12.1684 22.7851C14.4497 22.6641 16.7895 22.6055 19.0669 22.6055C19.4887 22.6055 19.8481 22.6055 20.27 22.6055V24.8242C20.27 27.1055 20.3286 29.4453 20.4497 31.7266C20.5083 34.0664 20.6294 36.3437 20.8091 38.6836C20.8677 39.4648 20.9887 40.4844 21.5278 41.0859C22.188 41.9258 23.27 42.2851 24.3481 41.625C24.6489 41.4453 24.9497 41.2031 25.1294 40.9648C25.188 40.9648 25.188 40.9648 25.188 40.9062C26.4497 40.1836 26.688 38.1445 26.8677 36.8242C27.0473 35.3867 27.1684 33.9453 27.2895 32.4453C27.4692 29.5039 27.6489 26.5039 27.77 23.5664C29.0903 23.7461 30.4692 22.9062 30.6489 21.4648V21.2851ZM14.3286 20.9844C16.3091 20.8633 18.2895 20.9258 20.27 20.9844V21.2851C19.9106 21.2851 19.4887 21.2851 19.0669 21.2266C16.7895 21.2266 14.4497 21.3437 12.1098 21.5859V21.3437C12.227 21.2851 12.2895 21.1641 12.3481 21.0469C13.0083 21.0469 13.6684 20.9844 14.3286 20.9844Z" fill="#2B2B2B"/>
    <path d="M27.2286 5.5039C27.3496 6.10547 28.1895 6.58594 28.7286 6.76562C29.627 7.125 30.5293 7.24609 31.4903 7.24609C32.627 7.24609 33.9473 6.94531 34.67 6.10547C35.8106 5.86328 36.9473 5.32422 37.8497 4.66406C38.3301 4.30469 38.7481 3.70312 38.5098 3.04687C37.9082 1.48437 36.709 0.585936 35.0879 0.16406C33.2286 -0.316408 31.3692 0.406248 29.8106 1.48437C29.6895 1.54687 29.5684 1.66406 29.4473 1.78515C28.8496 2.20312 28.3692 2.68359 27.9473 3.28515C27.5293 3.88672 26.9903 4.72656 27.2286 5.5039ZM31.2481 6.94531C30.5293 6.88672 29.8692 6.76562 29.209 6.52344C28.7871 6.40625 28.4278 6.16406 28.0684 5.86328C27.5879 5.44531 27.6504 5.02344 27.8887 4.48437C28.127 4.0664 28.3692 3.70312 28.67 3.34375C28.0684 4.72656 28.7286 6.10547 30.4668 6.46484C31.8496 6.70312 32.627 6.58594 33.3496 6.40625C33.4082 6.40625 32.9903 6.94531 31.2481 6.94531ZM37.4903 36.9453C37.6075 37.5469 38.5684 37.4844 38.5098 36.8867C37.3692 28.3633 36.8887 19.8437 37.127 11.2656C37.127 11.2031 36.709 11.2656 36.709 11.3867C36.4668 15.6445 36.4668 21.9453 36.6504 26.2031C36.5293 26.2031 36.3496 24.1055 36.2286 24.1641C36.17 23.625 36.1075 23.0859 36.1075 22.6641C36.0489 20.4453 35.9278 18.2266 35.9278 16.0664C35.9278 13.8437 36.0489 11.6836 36.0489 9.46484C35.9903 8.92578 35.5098 8.68359 35.0879 8.74609C34.127 6.34375 31.0684 8.5664 29.8106 9.40625C29.627 9.58594 29.4473 9.76562 29.3301 10.0039C28.6075 10.7266 28.2481 11.8633 28.0684 13.0039C27.8301 15.1641 27.8887 17.3867 27.8887 19.5469C27.8301 24.0469 28.127 28.4844 28.67 32.9258C28.9082 34.6055 28.9668 36.4062 30.2286 37.6055C30.5293 37.8437 30.8301 38.0234 31.127 38.1445L31.2481 38.3242C32.3887 39.4648 34.1895 39.8242 35.627 39.1055C36.17 38.8633 36.2871 38.3867 36.2286 37.9648C36.709 37.7852 37.1895 37.4258 37.4903 36.9453ZM30.8301 12.4648C30.8301 12.3437 31.0684 11.9844 31.2481 11.8633H31.3106C30.6504 13.7852 30.5293 16.0039 30.5293 18.0469C30.4668 20.7461 30.5293 23.4453 30.5293 26.1445H30.3496C30.17 24.7031 29.9903 23.2656 29.8692 21.8242C29.8692 21.7656 29.8692 21.7656 29.8692 21.7031V21.1055C29.9903 18.3437 29.9278 15.1641 30.8301 12.4648Z" fill="#2B2B2B"/>
</svg>
