<svg xmlns="http://www.w3.org/2000/svg"
    xmlns:xlink="http://www.w3.org/1999/xlink" width="500" zoomAndPan="magnify" viewBox="0 0 375 374.999991" height="500" preserveAspectRatio="xMidYMid meet" version="1.0">
    <defs>
        <g/>
    </defs>
    <g fill="#e4e2dd" fill-opacity="1">
        <g transform="translate(22.559811, 215.624986)">
            <g>
                <path d="M 47.699219 -29.308594 C 50.03125 -31.832031 49.660156 -36.683594 46.019531 -37.898438 C 45.179688 -38.085938 44.433594 -38.363281 43.683594 -38.457031 L 43.683594 -40.511719 C 43.777344 -42.753906 43.777344 -44.992188 43.683594 -47.140625 C 43.683594 -47.417969 43.777344 -47.699219 43.683594 -47.980469 C 43.5 -51.246094 43.871094 -55.355469 42.097656 -58.246094 C 40.230469 -61.421875 36.3125 -61.515625 33.511719 -59.648438 C 30.335938 -57.5 30.898438 -53.765625 31.457031 -50.5 C 31.644531 -46.671875 31.925781 -42.753906 32.109375 -38.925781 C 31.082031 -38.832031 30.152344 -38.644531 29.125 -38.550781 C 25.855469 -38.269531 22.589844 -37.992188 19.324219 -37.523438 L 19.136719 -37.523438 C 18.855469 -41.726562 18.574219 -46.019531 18.296875 -50.3125 L 18.015625 -54.792969 C 17.921875 -55.632812 17.550781 -57.40625 16.617188 -57.78125 C 16.242188 -57.96875 15.960938 -58.0625 15.589844 -58.0625 L 15.589844 -58.246094 C 15.496094 -60.394531 13.160156 -61.886719 11.203125 -61.609375 C 9.148438 -61.328125 7.5625 -59.367188 7.839844 -57.21875 C 8.773438 -50.125 8.960938 -42.84375 9.054688 -35.65625 L 8.867188 -35.65625 C 8.773438 -35.65625 8.679688 -35.472656 8.585938 -35.378906 C 8.308594 -38.832031 7.933594 -42.472656 7.5625 -45.925781 C 7.09375 -50.5 6.8125 -55.167969 5.878906 -59.648438 C 5.878906 -59.835938 5.601562 -59.835938 5.601562 -59.648438 C 5.414062 -55.261719 5.789062 -50.78125 5.878906 -46.390625 C 6.066406 -42.566406 6.160156 -38.738281 6.253906 -35.003906 C 4.855469 -34.539062 3.640625 -33.789062 2.894531 -32.578125 C 2.332031 -32.109375 1.773438 -31.550781 1.398438 -30.992188 C -0.839844 -27.910156 2.425781 -24.082031 5.601562 -25.390625 L 6.535156 -25.761719 C 6.8125 -18.855469 6.90625 -11.855469 7.46875 -4.949219 C 7.46875 -4.292969 8.121094 -3.921875 8.679688 -3.921875 C 8.867188 -3.453125 9.054688 -2.988281 9.335938 -2.519531 C 11.109375 0.746094 14.5625 0.375 16.894531 -2.054688 C 18.015625 -3.265625 18.296875 -5.414062 18.480469 -7 C 18.574219 -7.746094 18.574219 -8.585938 18.667969 -9.335938 L 18.667969 -9.613281 C 19.230469 -12.601562 19.136719 -15.773438 19.136719 -18.855469 C 19.136719 -21.5625 19.042969 -24.269531 18.949219 -26.976562 C 22.496094 -27.164062 26.136719 -27.257812 29.683594 -27.257812 C 30.335938 -27.257812 30.898438 -27.257812 31.550781 -27.257812 L 31.550781 -23.804688 C 31.550781 -20.257812 31.644531 -16.617188 31.832031 -13.066406 C 31.925781 -9.429688 32.109375 -5.878906 32.390625 -2.242188 C 32.484375 -1.027344 32.671875 0.558594 33.511719 1.492188 C 34.539062 2.800781 36.21875 3.359375 37.898438 2.332031 C 38.363281 2.054688 38.832031 1.679688 39.113281 1.308594 C 39.203125 1.308594 39.203125 1.308594 39.203125 1.214844 C 41.164062 0.09375 41.539062 -3.082031 41.820312 -5.132812 C 42.097656 -7.375 42.285156 -9.613281 42.472656 -11.949219 C 42.753906 -16.523438 43.03125 -21.1875 43.21875 -25.761719 C 45.273438 -25.484375 47.417969 -26.789062 47.699219 -29.03125 Z M 22.308594 -29.777344 C 25.390625 -29.964844 28.46875 -29.871094 31.550781 -29.777344 L 31.550781 -29.308594 C 30.992188 -29.308594 30.335938 -29.308594 29.683594 -29.402344 C 26.136719 -29.402344 22.496094 -29.21875 18.855469 -28.84375 L 18.855469 -29.21875 C 19.042969 -29.308594 19.136719 -29.496094 19.230469 -29.683594 C 20.257812 -29.683594 21.28125 -29.777344 22.308594 -29.777344 Z M 22.308594 -29.777344 "/>
            </g>
        </g>
    </g>
    <g fill="#e4e2dd" fill-opacity="1">
        <g transform="translate(63.628436, 215.624986)">
            <g>
                <path d="M 1.308594 -53.859375 C 1.492188 -52.925781 2.800781 -52.179688 3.640625 -51.898438 C 5.039062 -51.339844 6.441406 -51.152344 7.933594 -51.152344 C 9.707031 -51.152344 11.761719 -51.621094 12.882812 -52.925781 C 14.65625 -53.300781 16.429688 -54.140625 17.828125 -55.167969 C 18.574219 -55.726562 19.230469 -56.660156 18.855469 -57.6875 C 17.921875 -60.113281 16.054688 -61.515625 13.535156 -62.167969 C 10.640625 -62.914062 7.746094 -61.792969 5.320312 -60.113281 C 5.132812 -60.019531 4.949219 -59.835938 4.761719 -59.648438 C 3.828125 -58.992188 3.082031 -58.246094 2.425781 -57.3125 C 1.773438 -56.378906 0.933594 -55.074219 1.308594 -53.859375 Z M 7.5625 -51.621094 C 6.441406 -51.714844 5.414062 -51.898438 4.386719 -52.273438 C 3.734375 -52.460938 3.171875 -52.832031 2.613281 -53.300781 C 1.867188 -53.953125 1.960938 -54.605469 2.332031 -55.445312 C 2.707031 -56.101562 3.082031 -56.660156 3.546875 -57.21875 C 2.613281 -55.074219 3.640625 -52.925781 6.347656 -52.367188 C 8.496094 -51.992188 9.707031 -52.179688 10.828125 -52.460938 C 10.921875 -52.460938 10.269531 -51.621094 7.5625 -51.621094 Z M 17.269531 -4.949219 C 17.457031 -4.015625 18.949219 -4.105469 18.855469 -5.039062 C 17.082031 -18.296875 16.335938 -31.550781 16.707031 -44.898438 C 16.707031 -44.992188 16.054688 -44.898438 16.054688 -44.710938 C 15.683594 -38.085938 15.683594 -28.285156 15.960938 -21.65625 C 15.773438 -21.65625 15.496094 -24.921875 15.308594 -24.828125 C 15.214844 -25.667969 15.121094 -26.511719 15.121094 -27.164062 C 15.027344 -30.617188 14.84375 -34.070312 14.84375 -37.429688 C 14.84375 -40.886719 15.027344 -44.246094 15.027344 -47.699219 C 14.933594 -48.539062 14.1875 -48.914062 13.535156 -48.820312 C 12.042969 -52.554688 7.28125 -49.097656 5.320312 -47.792969 C 5.039062 -47.511719 4.761719 -47.234375 4.574219 -46.859375 C 3.453125 -45.738281 2.894531 -43.964844 2.613281 -42.191406 C 2.242188 -38.832031 2.332031 -35.378906 2.332031 -32.015625 C 2.242188 -25.015625 2.707031 -18.109375 3.546875 -11.203125 C 3.921875 -8.585938 4.015625 -5.789062 5.972656 -3.921875 C 6.441406 -3.546875 6.90625 -3.265625 7.375 -3.082031 L 7.5625 -2.800781 C 9.335938 -1.027344 12.136719 -0.464844 14.375 -1.585938 C 15.214844 -1.960938 15.402344 -2.707031 15.308594 -3.359375 C 16.054688 -3.640625 16.800781 -4.199219 17.269531 -4.949219 Z M 6.90625 -43.03125 C 6.90625 -43.21875 7.28125 -43.777344 7.5625 -43.964844 L 7.652344 -43.964844 C 6.628906 -40.976562 6.441406 -37.523438 6.441406 -34.351562 C 6.347656 -30.152344 6.441406 -25.949219 6.441406 -21.75 L 6.160156 -21.75 C 5.878906 -23.988281 5.601562 -26.230469 5.414062 -28.46875 C 5.414062 -28.5625 5.414062 -28.5625 5.414062 -28.65625 L 5.414062 -29.589844 C 5.601562 -33.882812 5.507812 -38.832031 6.90625 -43.03125 Z M 6.90625 -43.03125 "/>
            </g>
        </g>
    </g>
    <g fill="#e4e2dd" fill-opacity="1">
        <g transform="translate(74.73499, 215.624986)">
            <g>
                <path d="M 53.207031 -35.5625 C 53.488281 -37.617188 52.925781 -39.296875 51.433594 -40.417969 C 50.21875 -41.351562 48.914062 -42.378906 47.605469 -43.3125 C 47.417969 -44.058594 47.046875 -44.804688 46.300781 -45.367188 C 37.152344 -51.527344 27.910156 -57.875 17.640625 -61.140625 C 17.550781 -61.140625 17.457031 -61.234375 17.363281 -61.234375 C 16.707031 -61.515625 16.054688 -61.699219 15.402344 -61.980469 C 15.214844 -62.167969 14.933594 -62.355469 14.5625 -62.355469 C 11.480469 -62.914062 5.878906 -64.128906 4.105469 -60.675781 C 3.082031 -58.527344 4.105469 -55.914062 5.878906 -54.421875 C 5.320312 -53.578125 4.667969 -52.925781 3.921875 -52.367188 C 4.667969 -49.191406 5.320312 -45.925781 5.972656 -42.753906 C 5.414062 -42.753906 4.855469 -42.753906 4.292969 -42.660156 C 1.492188 -42.660156 0.375 -37.992188 2.988281 -36.3125 C 3.828125 -35.75 4.855469 -35.191406 5.789062 -34.816406 L 3.640625 -34.539062 C 4.667969 -34.164062 5.695312 -33.789062 6.722656 -33.511719 C 7.09375 -33.417969 7.28125 -33.136719 7.28125 -32.859375 C 7.46875 -32.859375 7.652344 -32.859375 7.839844 -32.859375 L 8.402344 -29.589844 C 9.148438 -25.203125 9.894531 -20.816406 10.640625 -16.429688 L 11.480469 -10.269531 C 11.667969 -8.214844 11.480469 -5.972656 11.949219 -4.015625 C 11.949219 -2.988281 12.882812 -2.332031 13.628906 -2.519531 C 13.722656 -1.960938 13.910156 -1.492188 14.1875 -1.027344 C 15.308594 0.28125 17.175781 0.1875 18.390625 -0.839844 C 19.324219 -1.585938 19.976562 -2.519531 20.535156 -3.640625 C 20.535156 -4.105469 20.535156 -4.667969 20.441406 -5.226562 C 20.722656 -9.800781 20.257812 -14.5625 19.976562 -19.136719 C 19.789062 -23.429688 19.414062 -27.722656 18.949219 -31.925781 C 21.375 -31.832031 23.894531 -31.644531 26.324219 -31.550781 C 26.789062 -30.710938 27.351562 -29.777344 27.910156 -28.9375 L 27.910156 -28.84375 C 28.46875 -27.910156 28.9375 -26.976562 29.402344 -25.949219 C 31.175781 -22.496094 33.699219 -16.335938 34.722656 -13.910156 C 36.589844 -9.613281 38.457031 -5.226562 40.136719 -0.839844 C 40.511719 -0.652344 41.070312 -0.839844 41.351562 -1.121094 C 41.351562 -1.027344 41.445312 -1.027344 41.539062 -1.027344 C 42.378906 -0.652344 43.21875 -0.652344 44.058594 -0.746094 C 45.644531 -0.09375 47.792969 -0.558594 48.074219 -2.613281 C 48.820312 -8.679688 45.550781 -14.5625 43.03125 -19.882812 C 41.070312 -23.894531 38.832031 -27.722656 36.3125 -31.457031 C 40.699219 -31.082031 45.085938 -30.710938 49.472656 -30.429688 C 50.964844 -30.242188 52.738281 -31.832031 52.925781 -33.605469 Z M 15.308594 -49.847656 L 15.027344 -51.339844 C 23.054688 -49.472656 30.523438 -45.460938 37.710938 -40.511719 L 28.65625 -41.632812 C 26.511719 -43.40625 23.429688 -45.925781 20.628906 -44.152344 C 20.164062 -43.777344 19.882812 -43.21875 19.789062 -42.753906 C 19.324219 -42.84375 18.761719 -42.84375 18.296875 -42.9375 C 17.921875 -44.898438 17.457031 -46.859375 16.988281 -48.820312 C 16.894531 -49.660156 15.960938 -49.660156 15.496094 -49.191406 C 15.402344 -49.378906 15.402344 -49.660156 15.308594 -49.847656 Z M 21.9375 -7.839844 C 22.308594 -10.082031 23.054688 -11.015625 22.777344 -14.375 C 22.308594 -19.976562 21.84375 -25.578125 20.910156 -30.992188 L 20.164062 -30.992188 C 21.28125 -23.335938 21.5625 -15.589844 21.9375 -7.839844 Z M 21.9375 -7.839844 "/>
            </g>
        </g>
    </g>
    <g fill="#e4e2dd" fill-opacity="1">
        <g transform="translate(121.310666, 215.624986)">
            <g>
                <path d="M 2.148438 -49.285156 C 1.960938 -49.097656 1.960938 -48.820312 2.148438 -48.726562 C 4.199219 -49.660156 6.253906 -50.5 8.402344 -51.152344 C 14.5625 -53.300781 20.910156 -54.699219 27.257812 -56.101562 C 30.898438 -56.941406 34.632812 -57.875 38.269531 -58.808594 C 37.429688 -58.808594 36.589844 -58.808594 35.75 -58.714844 C 31.738281 -58.433594 27.910156 -57.6875 24.082031 -56.941406 L 21.9375 -56.378906 C 15.214844 -54.605469 8.308594 -52.554688 2.148438 -49.285156 Z M 54.511719 -11.292969 C 55.632812 -12.136719 56.378906 -13.441406 56.285156 -15.121094 C 55.914062 -20.441406 54.140625 -28.65625 46.953125 -27.164062 C 45.925781 -26.882812 44.992188 -26.417969 43.964844 -26.136719 L 40.324219 -25.015625 C 38.085938 -24.269531 35.84375 -23.429688 33.605469 -22.589844 C 32.203125 -22.121094 30.804688 -21.5625 29.402344 -21.003906 L 21.46875 -17.921875 C 19.414062 -17.082031 17.363281 -16.242188 15.308594 -15.308594 L 15.027344 -15.121094 C 15.027344 -15.308594 15.027344 -15.402344 15.027344 -15.496094 L 14.46875 -21.5625 C 17.082031 -22.871094 19.601562 -24.175781 22.308594 -25.296875 C 26.695312 -27.164062 31.082031 -28.5625 35.5625 -29.777344 C 37.804688 -30.335938 40.136719 -30.804688 42.378906 -31.175781 C 44.527344 -31.644531 46.578125 -31.550781 48.539062 -32.484375 C 50.21875 -33.324219 51.339844 -35.378906 50.964844 -37.152344 C 50.78125 -38.085938 50.21875 -39.019531 49.378906 -39.484375 C 49.285156 -39.484375 49.285156 -39.484375 49.191406 -39.578125 C 49.097656 -39.953125 48.914062 -40.324219 48.726562 -40.699219 C 48.632812 -40.886719 48.539062 -41.164062 48.351562 -41.445312 C 47.046875 -43.683594 44.804688 -43.777344 42.472656 -43.683594 C 41.351562 -43.59375 40.324219 -43.5 39.203125 -43.3125 L 37.992188 -43.03125 C 35.003906 -42.191406 31.925781 -41.351562 28.9375 -40.605469 C 23.617188 -38.644531 18.480469 -36.40625 13.253906 -34.164062 C 13.253906 -34.632812 12.695312 -37.992188 12.601562 -38.925781 L 12.789062 -39.113281 C 15.683594 -40.324219 18.667969 -41.445312 21.65625 -42.472656 C 22.683594 -42.9375 31.925781 -45.738281 36.683594 -47.046875 C 36.871094 -47.046875 37.058594 -47.140625 37.246094 -47.234375 C 39.390625 -47.792969 41.539062 -48.445312 43.59375 -49.097656 L 48.257812 -50.5 C 48.632812 -52.367188 48.351562 -54.328125 47.699219 -56.285156 C 47.234375 -56.660156 46.671875 -57.128906 46.207031 -57.5 L 44.710938 -58.0625 C 44.152344 -58.246094 43.5 -58.339844 42.84375 -58.433594 C 37.992188 -57.128906 33.136719 -55.820312 28.191406 -54.699219 C 21.84375 -53.394531 15.496094 -51.992188 9.335938 -49.847656 C 7.375 -49.191406 5.320312 -48.445312 3.359375 -47.605469 C 3.265625 -47.324219 3.082031 -47.046875 2.988281 -46.859375 C 1.679688 -45.738281 0.839844 -44.339844 0.652344 -42.472656 C 0.464844 -40.886719 1.027344 -39.113281 2.148438 -37.898438 L 3.265625 -27.257812 L 4.386719 -16.054688 C 4.667969 -12.789062 4.855469 -9.429688 5.414062 -6.253906 C 4.574219 -3.828125 6.160156 -1.027344 8.496094 -0.09375 C 8.402344 0.375 8.402344 0.746094 8.585938 1.214844 C 9.335938 2.800781 11.015625 2.894531 12.507812 2.613281 C 12.882812 2.613281 13.441406 2.519531 13.441406 2.519531 C 13.347656 2.613281 18.667969 1.027344 19.789062 0.28125 L 19.882812 0.1875 C 20.910156 -0.28125 21.9375 -0.652344 22.960938 -1.121094 C 23.148438 -1.214844 23.429688 -1.308594 23.617188 -1.398438 L 23.710938 -1.398438 C 26.789062 -2.707031 29.964844 -3.828125 33.136719 -4.949219 C 39.765625 -7.28125 46.671875 -9.054688 53.578125 -10.359375 C 54.140625 -10.453125 54.421875 -10.828125 54.511719 -11.292969 Z M 31.925781 -31.082031 L 32.015625 -30.804688 C 31.457031 -30.617188 30.992188 -30.429688 30.429688 -30.152344 C 25.761719 -28.285156 20.910156 -26.511719 16.335938 -24.175781 C 17.082031 -24.828125 17.640625 -25.761719 17.828125 -26.789062 C 19.601562 -27.257812 21.375 -27.816406 23.242188 -28.375 C 26.136719 -29.308594 29.03125 -30.152344 31.925781 -31.082031 Z M 11.292969 1.214844 C 13.160156 0.746094 14.933594 0 16.707031 -0.652344 C 18.480469 -1.214844 20.164062 -1.867188 21.84375 -2.519531 L 21.84375 -2.332031 C 20.441406 -1.585938 19.042969 -0.839844 17.550781 -0.09375 C 16.894531 0.28125 16.148438 0.652344 15.402344 1.027344 C 15.308594 1.121094 15.214844 1.121094 15.121094 1.121094 C 14.84375 1.214844 12.695312 1.398438 11.292969 1.214844 Z M 11.292969 1.214844 "/>
            </g>
        </g>
    </g>
    <g fill="#e4e2dd" fill-opacity="1">
        <g transform="translate(168.819734, 215.624986)">
            <g>
                <path d="M 56.195312 -9.519531 C 55.914062 -12.226562 55.261719 -14.933594 54.699219 -17.640625 C 54.046875 -20.722656 53.488281 -23.710938 52.925781 -26.789062 C 52.648438 -28.097656 52.367188 -29.496094 51.992188 -30.898438 C 51.804688 -32.484375 51.527344 -34.164062 51.246094 -35.75 C 50.5 -39.953125 49.753906 -44.152344 48.726562 -48.351562 C 47.792969 -52.179688 46.207031 -55.914062 43.3125 -58.808594 C 42.191406 -60.019531 40.136719 -60.019531 38.832031 -58.992188 C 37.710938 -59.648438 36.3125 -59.835938 34.722656 -59.367188 C 33.699219 -59.179688 32.671875 -58.246094 32.484375 -57.3125 C 31.363281 -49.191406 29.308594 -41.164062 27.535156 -33.136719 C 26.324219 -27.910156 25.203125 -22.683594 23.988281 -17.457031 C 21.84375 -26.882812 19.789062 -37.804688 18.203125 -47.417969 C 17.828125 -49.753906 17.363281 -52.085938 17.175781 -54.328125 C 17.082031 -55.261719 16.707031 -56.195312 16.148438 -56.847656 C 15.496094 -58.527344 14.09375 -59.742188 12.320312 -60.113281 C 10.828125 -60.582031 9.148438 -60.394531 7.652344 -59.460938 C 6.535156 -58.808594 6.066406 -57.875 6.066406 -56.941406 C 5.226562 -55.167969 5.320312 -53.113281 5.414062 -51.246094 C 5.414062 -49.007812 5.507812 -46.859375 5.507812 -44.617188 L 5.507812 -42.472656 C 5.320312 -42.472656 5.226562 -44.527344 5.039062 -44.527344 C 4.949219 -48.539062 4.855469 -52.832031 4.292969 -56.566406 C 4.199219 -57.035156 3.265625 -57.035156 3.171875 -56.566406 C 2.148438 -51.246094 2.519531 -45.644531 2.613281 -40.324219 C 2.613281 -34.816406 2.707031 -29.21875 2.894531 -23.710938 C 2.988281 -18.296875 3.359375 -13.066406 4.105469 -7.652344 C 4.386719 -5.414062 4.574219 -2.613281 6.253906 -0.933594 C 7.09375 -0.09375 8.402344 0.09375 9.519531 -0.28125 C 9.613281 -0.09375 9.707031 0 9.800781 0.09375 C 10.175781 0.558594 10.828125 0.558594 11.386719 0.28125 C 14.375 -1.027344 14.09375 -4.480469 14 -7.1875 C 13.816406 -15.027344 13.535156 -23.242188 13.160156 -31.082031 C 13.347656 -30.242188 13.628906 -29.496094 13.910156 -28.75 C 14.65625 -25.667969 15.496094 -22.496094 16.335938 -19.414062 L 20.347656 -5.132812 C 20.722656 -3.640625 21.097656 -2.242188 21.9375 -0.933594 C 22.121094 -0.558594 22.496094 -0.464844 22.777344 -0.652344 C 23.148438 -0.375 23.617188 -0.28125 24.082031 -0.28125 C 24.363281 -0.09375 24.828125 -0.09375 25.296875 -0.1875 C 26.789062 -0.558594 27.351562 -1.585938 27.816406 -2.894531 C 28.097656 -3.828125 28.285156 -4.667969 28.46875 -5.601562 C 28.46875 -5.414062 28.75 -5.320312 28.84375 -5.695312 C 29.589844 -9.613281 30.898438 -15.402344 32.109375 -20.535156 C 33.417969 -25.761719 35.75 -33.882812 37.992188 -40.417969 C 38.832031 -36.496094 39.671875 -32.578125 40.605469 -28.65625 C 42.660156 -20.535156 43.683594 -13.066406 43.871094 -4.855469 C 43.871094 -2.613281 45.550781 -0.746094 47.699219 -0.28125 C 50.03125 2.054688 53.488281 0.558594 54.886719 -1.867188 C 56.195312 -4.199219 56.378906 -6.90625 56.195312 -9.519531 Z M 17.457031 -34.910156 C 17.457031 -35.097656 17.363281 -35.285156 17.269531 -35.378906 C 16.054688 -41.164062 14.75 -46.765625 13.347656 -52.460938 C 13.441406 -52.648438 13.441406 -52.738281 13.441406 -52.832031 C 13.910156 -52.925781 14.375 -53.113281 14.75 -53.394531 C 15.121094 -51.898438 15.308594 -50.5 15.496094 -49.097656 C 16.335938 -44.339844 17.550781 -37.523438 18.480469 -32.765625 C 17.921875 -33.324219 17.828125 -33.976562 17.457031 -34.910156 Z M 31.644531 -20.722656 L 31.550781 -20.722656 C 31.457031 -20.722656 31.363281 -20.722656 31.269531 -20.816406 C 31.550781 -22.214844 31.832031 -23.617188 32.015625 -25.015625 C 33.511719 -31.363281 35.191406 -37.617188 37.246094 -43.777344 C 37.429688 -43.125 37.523438 -42.472656 37.710938 -41.910156 C 35.378906 -34.910156 33.324219 -27.816406 31.644531 -20.722656 Z M 31.644531 -20.722656 "/>
            </g>
        </g>
    </g>
    <g fill="#e4e2dd" fill-opacity="1">
        <g transform="translate(215.395399, 215.624986)">
            <g>
                <path d="M 34.164062 -2.800781 C 36.3125 3.921875 43.21875 3.734375 42.191406 -4.667969 C 41.445312 -10.269531 39.859375 -17.828125 38.644531 -23.335938 C 43.777344 -26.601562 42.753906 -35.003906 35.65625 -35.84375 C 35.003906 -41.445312 34.445312 -55.539062 34.351562 -54.605469 C 33.976562 -51.527344 33.789062 -48.257812 33.699219 -45.085938 C 33.605469 -45.085938 33.605469 -45.085938 33.511719 -45.179688 C 33.136719 -48.820312 32.765625 -52.648438 32.484375 -56.378906 C 32.203125 -59.367188 30.242188 -61.234375 27.535156 -61.421875 C 26.789062 -62.914062 24.921875 -64.035156 23.335938 -63.941406 C 18.574219 -63.847656 16.707031 -58.0625 15.027344 -54.421875 C 12.601562 -48.632812 11.109375 -42.566406 9.800781 -36.40625 C -1.308594 -34.722656 -1.308594 -24.550781 4.667969 -23.054688 C 4.761719 -22.777344 4.667969 -22.402344 4.574219 -22.214844 C 5.320312 -22.214844 6.253906 -22.308594 7.09375 -22.402344 C 5.695312 -16.988281 4.761719 -11.574219 4.015625 -6.066406 C 2.800781 2.707031 14.375 4.015625 15.121094 -4.480469 L 15.683594 -8.679688 C 15.683594 -8.679688 17.269531 -18.203125 18.480469 -22.777344 L 19.324219 -22.777344 C 17.550781 -17.269531 16.707031 -11.574219 16.242188 -5.972656 C 16.148438 -4.855469 17.734375 -4.855469 17.734375 -5.972656 C 18.203125 -11.667969 19.230469 -17.175781 20.628906 -22.777344 L 27.910156 -22.871094 C 28.65625 -19.507812 32.390625 -3.453125 34.164062 -2.800781 Z M 20.347656 -34.910156 C 21.1875 -39.296875 22.308594 -43.03125 23.804688 -48.257812 C 24.738281 -43.964844 25.203125 -37.617188 25.578125 -35.285156 C 24.269531 -35.191406 21.65625 -35.097656 20.347656 -34.910156 Z M 20.347656 -34.910156 "/>
            </g>
        </g>
    </g>
    <g fill="#e4e2dd" fill-opacity="1">
        <g transform="translate(250.770297, 215.624986)">
            <g>
                <path d="M 53.300781 -54.980469 C 55.539062 -55.914062 55.632812 -59.460938 53.488281 -60.675781 C 53.300781 -60.859375 53.113281 -60.953125 52.925781 -61.046875 C 53.113281 -61.140625 53.394531 -61.140625 53.578125 -61.140625 C 54.511719 -61.328125 54.234375 -62.914062 53.394531 -62.820312 C 51.992188 -62.632812 50.59375 -62.542969 49.191406 -62.355469 C 48.632812 -62.449219 48.074219 -62.355469 47.605469 -62.355469 C 46.671875 -62.261719 45.738281 -62.167969 44.710938 -61.980469 C 31.738281 -60.859375 18.667969 -60.582031 5.601562 -61.328125 C 5.320312 -61.421875 5.226562 -60.859375 5.507812 -60.859375 C 10.546875 -60.019531 15.589844 -59.460938 20.628906 -59.179688 C 20.628906 -59.085938 20.535156 -58.992188 20.535156 -58.902344 C 15.402344 -58.902344 10.359375 -59.273438 5.226562 -59.742188 C 3.171875 -59.925781 1.308594 -58.152344 0.746094 -56.285156 C 0.1875 -54.046875 1.308594 -51.804688 3.171875 -50.78125 C 3.734375 -49.285156 4.949219 -47.980469 6.160156 -47.140625 C 7.839844 -46.113281 9.894531 -45.832031 11.855469 -45.550781 C 14.28125 -45.367188 16.800781 -45.273438 19.324219 -45.273438 C 20.535156 -45.273438 21.75 -45.273438 22.960938 -45.273438 L 22.960938 -42.285156 L 22.777344 -38.179688 C 22.589844 -33.324219 22.308594 -28.46875 22.03125 -23.710938 C 21.84375 -18.949219 21.75 -14.09375 22.03125 -9.335938 C 22.214844 -5.695312 23.054688 -1.398438 26.976562 -0.1875 C 28.9375 0.375 31.269531 -0.746094 31.925781 -2.800781 C 32.578125 -4.667969 32.671875 -7.28125 33.042969 -8.960938 L 33.042969 -5.414062 C 32.949219 -4.105469 32.949219 -2.800781 32.859375 -1.492188 L 32.859375 -1.308594 C 34.539062 -2.613281 34.910156 -4.855469 35.097656 -7.09375 C 35.003906 -10.359375 34.816406 -13.628906 34.722656 -16.894531 C 34.722656 -22.589844 34.632812 -28.285156 34.632812 -33.976562 C 34.632812 -38.085938 34.722656 -42.191406 34.722656 -46.300781 C 39.484375 -46.953125 44.152344 -47.792969 48.914062 -48.726562 C 49.191406 -48.726562 49.378906 -48.914062 49.566406 -49.097656 C 50.03125 -49.191406 50.59375 -49.378906 50.964844 -49.660156 C 52.460938 -50.6875 52.832031 -52.367188 52.925781 -54.046875 C 53.113281 -54.328125 53.207031 -54.605469 53.300781 -54.980469 Z M 11.855469 -47.792969 C 9.613281 -47.886719 7.1875 -48.539062 5.695312 -49.941406 C 9.335938 -48.820312 13.066406 -48.167969 16.800781 -47.792969 C 15.121094 -47.699219 13.441406 -47.699219 11.855469 -47.792969 Z M 11.855469 -47.792969 "/>
            </g>
        </g>
    </g>
    <g fill="#e4e2dd" fill-opacity="1">
        <g transform="translate(296.412582, 215.624986)">
            <g>
                <path d="M 2.148438 -49.285156 C 1.960938 -49.097656 1.960938 -48.820312 2.148438 -48.726562 C 4.199219 -49.660156 6.253906 -50.5 8.402344 -51.152344 C 14.5625 -53.300781 20.910156 -54.699219 27.257812 -56.101562 C 30.898438 -56.941406 34.632812 -57.875 38.269531 -58.808594 C 37.429688 -58.808594 36.589844 -58.808594 35.75 -58.714844 C 31.738281 -58.433594 27.910156 -57.6875 24.082031 -56.941406 L 21.9375 -56.378906 C 15.214844 -54.605469 8.308594 -52.554688 2.148438 -49.285156 Z M 54.511719 -11.292969 C 55.632812 -12.136719 56.378906 -13.441406 56.285156 -15.121094 C 55.914062 -20.441406 54.140625 -28.65625 46.953125 -27.164062 C 45.925781 -26.882812 44.992188 -26.417969 43.964844 -26.136719 L 40.324219 -25.015625 C 38.085938 -24.269531 35.84375 -23.429688 33.605469 -22.589844 C 32.203125 -22.121094 30.804688 -21.5625 29.402344 -21.003906 L 21.46875 -17.921875 C 19.414062 -17.082031 17.363281 -16.242188 15.308594 -15.308594 L 15.027344 -15.121094 C 15.027344 -15.308594 15.027344 -15.402344 15.027344 -15.496094 L 14.46875 -21.5625 C 17.082031 -22.871094 19.601562 -24.175781 22.308594 -25.296875 C 26.695312 -27.164062 31.082031 -28.5625 35.5625 -29.777344 C 37.804688 -30.335938 40.136719 -30.804688 42.378906 -31.175781 C 44.527344 -31.644531 46.578125 -31.550781 48.539062 -32.484375 C 50.21875 -33.324219 51.339844 -35.378906 50.964844 -37.152344 C 50.78125 -38.085938 50.21875 -39.019531 49.378906 -39.484375 C 49.285156 -39.484375 49.285156 -39.484375 49.191406 -39.578125 C 49.097656 -39.953125 48.914062 -40.324219 48.726562 -40.699219 C 48.632812 -40.886719 48.539062 -41.164062 48.351562 -41.445312 C 47.046875 -43.683594 44.804688 -43.777344 42.472656 -43.683594 C 41.351562 -43.59375 40.324219 -43.5 39.203125 -43.3125 L 37.992188 -43.03125 C 35.003906 -42.191406 31.925781 -41.351562 28.9375 -40.605469 C 23.617188 -38.644531 18.480469 -36.40625 13.253906 -34.164062 C 13.253906 -34.632812 12.695312 -37.992188 12.601562 -38.925781 L 12.789062 -39.113281 C 15.683594 -40.324219 18.667969 -41.445312 21.65625 -42.472656 C 22.683594 -42.9375 31.925781 -45.738281 36.683594 -47.046875 C 36.871094 -47.046875 37.058594 -47.140625 37.246094 -47.234375 C 39.390625 -47.792969 41.539062 -48.445312 43.59375 -49.097656 L 48.257812 -50.5 C 48.632812 -52.367188 48.351562 -54.328125 47.699219 -56.285156 C 47.234375 -56.660156 46.671875 -57.128906 46.207031 -57.5 L 44.710938 -58.0625 C 44.152344 -58.246094 43.5 -58.339844 42.84375 -58.433594 C 37.992188 -57.128906 33.136719 -55.820312 28.191406 -54.699219 C 21.84375 -53.394531 15.496094 -51.992188 9.335938 -49.847656 C 7.375 -49.191406 5.320312 -48.445312 3.359375 -47.605469 C 3.265625 -47.324219 3.082031 -47.046875 2.988281 -46.859375 C 1.679688 -45.738281 0.839844 -44.339844 0.652344 -42.472656 C 0.464844 -40.886719 1.027344 -39.113281 2.148438 -37.898438 L 3.265625 -27.257812 L 4.386719 -16.054688 C 4.667969 -12.789062 4.855469 -9.429688 5.414062 -6.253906 C 4.574219 -3.828125 6.160156 -1.027344 8.496094 -0.09375 C 8.402344 0.375 8.402344 0.746094 8.585938 1.214844 C 9.335938 2.800781 11.015625 2.894531 12.507812 2.613281 C 12.882812 2.613281 13.441406 2.519531 13.441406 2.519531 C 13.347656 2.613281 18.667969 1.027344 19.789062 0.28125 L 19.882812 0.1875 C 20.910156 -0.28125 21.9375 -0.652344 22.960938 -1.121094 C 23.148438 -1.214844 23.429688 -1.308594 23.617188 -1.398438 L 23.710938 -1.398438 C 26.789062 -2.707031 29.964844 -3.828125 33.136719 -4.949219 C 39.765625 -7.28125 46.671875 -9.054688 53.578125 -10.359375 C 54.140625 -10.453125 54.421875 -10.828125 54.511719 -11.292969 Z M 31.925781 -31.082031 L 32.015625 -30.804688 C 31.457031 -30.617188 30.992188 -30.429688 30.429688 -30.152344 C 25.761719 -28.285156 20.910156 -26.511719 16.335938 -24.175781 C 17.082031 -24.828125 17.640625 -25.761719 17.828125 -26.789062 C 19.601562 -27.257812 21.375 -27.816406 23.242188 -28.375 C 26.136719 -29.308594 29.03125 -30.152344 31.925781 -31.082031 Z M 11.292969 1.214844 C 13.160156 0.746094 14.933594 0 16.707031 -0.652344 C 18.480469 -1.214844 20.164062 -1.867188 21.84375 -2.519531 L 21.84375 -2.332031 C 20.441406 -1.585938 19.042969 -0.839844 17.550781 -0.09375 C 16.894531 0.28125 16.148438 0.652344 15.402344 1.027344 C 15.308594 1.121094 15.214844 1.121094 15.121094 1.121094 C 14.84375 1.214844 12.695312 1.398438 11.292969 1.214844 Z M 11.292969 1.214844 "/>
            </g>
        </g>
    </g>
</svg>