<svg xmlns="http://www.w3.org/2000/svg"
    xmlns:xlink="http://www.w3.org/1999/xlink" width="500" zoomAndPan="magnify" viewBox="0 0 375 374.999991" height="500" preserveAspectRatio="xMidYMid meet" version="1.0">
    <defs>
        <g/>
    </defs>
    <g fill="#e4e2dd" fill-opacity="1">
        <g transform="translate(85.507562, 280.939604)">
            <g>
                <path d="M 160.347656 -98.53125 C 168.191406 -107.003906 166.9375 -123.320312 154.699219 -127.398438 C 151.875 -128.027344 149.363281 -128.96875 146.855469 -129.28125 L 146.855469 -136.1875 C 147.167969 -143.71875 147.167969 -151.246094 146.855469 -158.464844 C 146.855469 -159.40625 147.167969 -160.347656 146.855469 -161.289062 C 146.226562 -172.273438 147.484375 -186.078125 141.519531 -195.804688 C 135.246094 -206.476562 122.066406 -206.789062 112.652344 -200.511719 C 101.984375 -193.296875 103.867188 -180.746094 105.75 -169.761719 C 106.375 -156.894531 107.316406 -143.71875 107.945312 -130.851562 C 104.492188 -130.539062 101.355469 -129.910156 97.902344 -129.597656 C 86.921875 -128.65625 75.9375 -127.714844 64.953125 -126.144531 L 64.328125 -126.144531 C 63.386719 -140.265625 62.445312 -154.699219 61.503906 -169.132812 L 60.5625 -184.195312 C 60.25 -187.019531 58.992188 -192.980469 55.855469 -194.238281 C 54.601562 -194.863281 53.660156 -195.179688 52.402344 -195.179688 L 52.402344 -195.804688 C 52.089844 -203.023438 44.246094 -208.042969 37.65625 -207.101562 C 30.75 -206.160156 25.417969 -199.570312 26.359375 -192.355469 C 29.496094 -168.507812 30.125 -144.03125 30.4375 -119.867188 L 29.808594 -119.867188 C 29.496094 -119.867188 29.183594 -119.242188 28.867188 -118.925781 C 27.925781 -130.539062 26.671875 -142.777344 25.417969 -154.386719 C 23.847656 -169.761719 22.90625 -185.453125 19.769531 -200.511719 C 19.769531 -201.140625 18.828125 -201.140625 18.828125 -200.511719 C 18.199219 -185.765625 19.457031 -170.703125 19.769531 -155.953125 C 20.398438 -143.089844 20.710938 -130.222656 21.023438 -117.671875 C 16.316406 -116.101562 12.238281 -113.59375 9.726562 -109.511719 C 7.84375 -107.945312 5.960938 -106.0625 4.707031 -104.179688 C -2.824219 -93.824219 8.160156 -80.957031 18.828125 -85.351562 L 21.964844 -86.605469 C 22.90625 -63.386719 23.21875 -39.851562 25.101562 -16.632812 C 25.101562 -14.433594 27.300781 -13.179688 29.183594 -13.179688 C 29.808594 -11.609375 30.4375 -10.042969 31.378906 -8.472656 C 37.339844 2.511719 48.953125 1.253906 56.796875 -6.902344 C 60.5625 -10.984375 61.503906 -18.199219 62.132812 -23.535156 C 62.445312 -26.042969 62.445312 -28.867188 62.757812 -31.378906 L 62.757812 -32.320312 C 64.640625 -42.363281 64.328125 -53.03125 64.328125 -63.386719 C 64.328125 -72.484375 64.011719 -81.585938 63.699219 -90.6875 C 75.625 -91.3125 87.863281 -91.628906 99.785156 -91.628906 C 101.984375 -91.628906 103.867188 -91.628906 106.0625 -91.628906 L 106.0625 -80.015625 C 106.0625 -68.09375 106.375 -55.855469 107.003906 -43.929688 C 107.316406 -31.691406 107.945312 -19.769531 108.886719 -7.53125 C 109.199219 -3.453125 109.828125 1.882812 112.652344 5.019531 C 116.101562 9.414062 121.75 11.296875 127.398438 7.84375 C 128.96875 6.902344 130.539062 5.648438 131.480469 4.394531 C 131.792969 4.394531 131.792969 4.394531 131.792969 4.078125 C 138.382812 0.3125 139.636719 -10.355469 140.578125 -17.257812 C 141.519531 -24.789062 142.148438 -32.320312 142.777344 -40.164062 C 143.71875 -55.542969 144.660156 -71.230469 145.285156 -86.605469 C 152.1875 -85.664062 159.40625 -90.058594 160.347656 -97.589844 Z M 74.996094 -100.101562 C 85.351562 -100.726562 95.707031 -100.414062 106.0625 -100.101562 L 106.0625 -98.53125 C 104.179688 -98.53125 101.984375 -98.53125 99.785156 -98.84375 C 87.863281 -98.84375 75.625 -98.21875 63.386719 -96.960938 L 63.386719 -98.21875 C 64.011719 -98.53125 64.328125 -99.160156 64.640625 -99.785156 C 68.09375 -99.785156 71.542969 -100.101562 74.996094 -100.101562 Z M 74.996094 -100.101562 "/>
            </g>
        </g>
    </g>
    <g fill="#e4e2dd" fill-opacity="1">
        <g transform="translate(223.575931, 280.939604)">
            <g>
                <path d="M 4.394531 -181.058594 C 5.019531 -177.921875 9.414062 -175.410156 12.238281 -174.46875 C 16.945312 -172.585938 21.652344 -171.957031 26.671875 -171.957031 C 32.632812 -171.957031 39.539062 -173.527344 43.304688 -177.921875 C 49.265625 -179.175781 55.226562 -182 59.933594 -185.453125 C 62.445312 -187.335938 64.640625 -190.472656 63.386719 -193.921875 C 60.25 -202.082031 53.972656 -206.789062 45.5 -208.984375 C 35.773438 -211.496094 26.042969 -207.730469 17.886719 -202.082031 C 17.257812 -201.769531 16.632812 -201.140625 16.003906 -200.511719 C 12.867188 -198.316406 10.355469 -195.804688 8.160156 -192.667969 C 5.960938 -189.53125 3.136719 -185.136719 4.394531 -181.058594 Z M 25.417969 -173.527344 C 21.652344 -173.839844 18.199219 -174.46875 14.75 -175.722656 C 12.550781 -176.351562 10.667969 -177.605469 8.785156 -179.175781 C 6.277344 -181.371094 6.589844 -183.570312 7.84375 -186.394531 C 9.101562 -188.589844 10.355469 -190.472656 11.925781 -192.355469 C 8.785156 -185.136719 12.238281 -177.921875 21.335938 -176.039062 C 28.554688 -174.78125 32.632812 -175.410156 36.398438 -176.351562 C 36.714844 -176.351562 34.515625 -173.527344 25.417969 -173.527344 Z M 58.050781 -16.632812 C 58.679688 -13.492188 63.699219 -13.808594 63.386719 -16.945312 C 57.425781 -61.503906 54.914062 -106.0625 56.167969 -150.933594 C 56.167969 -151.246094 53.972656 -150.933594 53.972656 -150.304688 C 52.71875 -128.027344 52.71875 -95.078125 53.660156 -72.800781 C 53.03125 -72.800781 52.089844 -83.78125 51.460938 -83.46875 C 51.148438 -86.292969 50.835938 -89.117188 50.835938 -91.3125 C 50.519531 -102.925781 49.894531 -114.535156 49.894531 -125.832031 C 49.894531 -137.441406 50.519531 -148.738281 50.519531 -160.347656 C 50.207031 -163.171875 47.695312 -164.425781 45.5 -164.113281 C 40.480469 -176.664062 24.476562 -165.054688 17.886719 -160.660156 C 16.945312 -159.71875 16.003906 -158.777344 15.375 -157.523438 C 11.609375 -153.757812 9.726562 -147.796875 8.785156 -141.835938 C 7.53125 -130.539062 7.84375 -118.925781 7.84375 -107.628906 C 7.53125 -84.097656 9.101562 -60.875 11.925781 -37.65625 C 13.179688 -28.867188 13.492188 -19.457031 20.082031 -13.179688 C 21.652344 -11.925781 23.21875 -10.984375 24.789062 -10.355469 L 25.417969 -9.414062 C 31.378906 -3.453125 40.792969 -1.570312 48.324219 -5.335938 C 51.148438 -6.589844 51.777344 -9.101562 51.460938 -11.296875 C 53.972656 -12.238281 56.484375 -14.121094 58.050781 -16.632812 Z M 23.21875 -144.660156 C 23.21875 -145.285156 24.476562 -147.167969 25.417969 -147.796875 L 25.730469 -147.796875 C 22.277344 -137.753906 21.652344 -126.144531 21.652344 -115.476562 C 21.335938 -101.355469 21.652344 -87.234375 21.652344 -73.113281 L 20.710938 -73.113281 C 19.769531 -80.644531 18.828125 -88.175781 18.199219 -95.707031 C 18.199219 -96.019531 18.199219 -96.019531 18.199219 -96.335938 L 18.199219 -99.472656 C 18.828125 -113.90625 18.515625 -130.539062 23.21875 -144.660156 Z M 23.21875 -144.660156 "/>
            </g>
        </g>
    </g>
</svg>