<svg viewBox="0 0 213 60" fill="none"
    xmlns="http://www.w3.org/2000/svg">
    <path d="M30.6312 22.294C32.1312 20.6729 31.893 17.5557 29.5492 16.7745C29.0101 16.6534 28.5297 16.4737 28.0492 16.4151V15.0948C28.1117 13.6534 28.1117 12.212 28.0492 10.8331C28.0492 10.6534 28.1117 10.4737 28.0492 10.294C27.932 8.19245 28.1703 5.55573 27.0297 3.69245C25.8304 1.65339 23.3109 1.5948 21.5101 2.79402C19.4711 4.17292 19.8305 6.57527 20.1898 8.67292C20.3109 11.1339 20.4906 13.6534 20.6117 16.1143C19.9515 16.1729 19.35 16.294 18.6898 16.3526C16.5922 16.5323 14.4906 16.712 12.393 17.0128H12.2719C12.0922 14.3135 11.9125 11.5557 11.7328 8.79402L11.5492 5.91511C11.4906 5.37214 11.2523 4.23542 10.6508 3.99324C10.4125 3.87214 10.2328 3.81355 9.99061 3.81355V3.69245C9.93201 2.31355 8.43201 1.35261 7.17029 1.5323C5.84998 1.71198 4.83045 2.9737 5.01014 4.35261C5.6117 8.91511 5.73279 13.5948 5.79139 18.212H5.67029C5.6117 18.212 5.5492 18.3331 5.49061 18.3956C5.31092 16.1729 5.07264 13.8331 4.83045 11.6143C4.52967 8.67292 4.34998 5.67292 3.75232 2.79402C3.75232 2.67292 3.57264 2.67292 3.57264 2.79402C3.45154 5.61433 3.68982 8.49323 3.75232 11.3135C3.86951 13.7745 3.93201 16.2354 3.99061 18.6339C3.09217 18.9346 2.31092 19.4151 1.83045 20.1925C1.47107 20.4932 1.1117 20.8526 0.869513 21.212C-0.567987 23.1925 1.52967 25.6534 3.57264 24.8135L4.17029 24.5753C4.34998 29.0128 4.41248 33.5128 4.77186 37.9542C4.77186 38.3721 5.18983 38.6143 5.5492 38.6143C5.67029 38.9151 5.79139 39.212 5.97108 39.5128C7.1117 41.6143 9.33045 41.3721 10.8305 39.8135C11.5492 39.0323 11.7328 37.6534 11.85 36.6339C11.9125 36.1534 11.9125 35.6143 11.9711 35.1339V34.9542C12.3305 33.0323 12.2719 30.9932 12.2719 29.0128C12.2719 27.2745 12.2094 25.5323 12.1508 23.794C14.432 23.6729 16.7719 23.6143 19.0492 23.6143C19.4711 23.6143 19.8305 23.6143 20.2523 23.6143V25.8331C20.2523 28.1143 20.3109 30.4542 20.432 32.7354C20.4906 35.0753 20.6117 37.3526 20.7914 39.6925C20.85 40.4737 20.9711 41.4932 21.5101 42.0948C22.1703 42.9346 23.2523 43.294 24.3305 42.6339C24.6312 42.4542 24.932 42.212 25.1117 41.9737C25.1703 41.9737 25.1703 41.9737 25.1703 41.9151C26.432 41.1925 26.6703 39.1534 26.85 37.8331C27.0297 36.3956 27.1508 34.9542 27.2719 33.4542C27.4515 30.5128 27.6312 27.5128 27.7523 24.5753C29.0726 24.755 30.4515 23.9151 30.6312 22.4737V22.294ZM14.3109 21.9932C16.2914 21.8721 18.2719 21.9346 20.2523 21.9932V22.294C19.893 22.294 19.4711 22.294 19.0492 22.2354C16.7719 22.2354 14.432 22.3526 12.0922 22.5948V22.3526C12.2094 22.294 12.2719 22.1729 12.3305 22.0557C12.9906 22.0557 13.6508 21.9932 14.3109 21.9932Z" fill="#E4E2DD"/>
    <path d="M27.2109 6.51277C27.332 7.11433 28.1718 7.5948 28.7109 7.77449C29.6093 8.13386 30.5117 8.25496 31.4726 8.25496C32.6093 8.25496 33.9296 7.95417 34.6523 7.11433C35.7929 6.87214 36.9296 6.33308 37.832 5.67293C38.3124 5.31355 38.7304 4.71199 38.4921 4.05574C37.8906 2.49324 36.6913 1.5948 35.0702 1.17293C33.2109 0.692458 31.3515 1.41511 29.7929 2.49324C29.6718 2.55574 29.5507 2.67293 29.4296 2.79402C28.832 3.21199 28.3515 3.69246 27.9296 4.29402C27.5117 4.89558 26.9726 5.73543 27.2109 6.51277ZM31.2304 7.95418C30.5117 7.89558 29.8515 7.77449 29.1913 7.5323C28.7695 7.41511 28.4101 7.17293 28.0507 6.87214C27.5702 6.45418 27.6327 6.0323 27.871 5.49324C28.1093 5.07527 28.3515 4.71199 28.6523 4.35261C28.0507 5.73542 28.7109 7.11433 30.4492 7.47371C31.832 7.71199 32.6093 7.5948 33.332 7.41511C33.3906 7.41511 32.9726 7.95418 31.2304 7.95418ZM37.4726 37.9542C37.5898 38.5557 38.5507 38.4932 38.4921 37.8956C37.3515 29.3721 36.871 20.8526 37.1093 12.2745C37.1093 12.212 36.6913 12.2745 36.6913 12.3956C36.4492 16.6534 36.4492 22.9542 36.6327 27.212C36.5117 27.212 36.332 25.1143 36.2109 25.1729C36.1523 24.6339 36.0898 24.0948 36.0898 23.6729C36.0312 21.4542 35.9101 19.2354 35.9101 17.0753C35.9101 14.8526 36.0312 12.6925 36.0312 10.4737C35.9726 9.93464 35.4921 9.69246 35.0702 9.75496C34.1093 7.35261 31.0507 9.57527 29.7929 10.4151C29.6093 10.5948 29.4296 10.7745 29.3124 11.0128C28.5898 11.7354 28.2304 12.8721 28.0507 14.0128C27.8124 16.1729 27.871 18.3956 27.871 20.5557C27.8124 25.0557 28.1093 29.4932 28.6523 33.9346C28.8906 35.6143 28.9492 37.4151 30.2109 38.6143C30.5117 38.8526 30.8124 39.0323 31.1093 39.1534L31.2304 39.3331C32.371 40.4737 34.1718 40.8331 35.6093 40.1143C36.1523 39.8721 36.2695 39.3956 36.2109 38.9737C36.6913 38.794 37.1718 38.4346 37.4726 37.9542ZM30.8124 13.4737C30.8124 13.3526 31.0507 12.9932 31.2304 12.8721H31.2929C30.6327 14.794 30.5117 17.0128 30.5117 19.0557C30.4492 21.755 30.5117 24.4542 30.5117 27.1534H30.332C30.1523 25.712 29.9726 24.2745 29.8515 22.8331C29.8515 22.7745 29.8515 22.7745 29.8515 22.712V22.1143C29.9726 19.3526 29.9101 16.1729 30.8124 13.4737Z" fill="#E4E2DD"/>
    <path d="M67.7102 18.2745C67.8899 16.9542 67.5305 15.8721 66.5696 15.1534C65.7922 14.5557 64.9524 13.8956 64.1126 13.294C63.9915 12.8135 63.7493 12.3331 63.2727 11.9737C57.3899 8.01277 51.4524 3.93464 44.8508 1.83308C44.7922 1.83308 44.7297 1.77448 44.6712 1.77448C44.2493 1.5948 43.8313 1.4737 43.4094 1.29402C43.2922 1.17292 43.1126 1.05573 42.8704 1.05573C40.8899 0.692454 37.2922 -0.0848902 36.1516 2.13386C35.4915 3.51277 36.1516 5.19245 37.2922 6.15339C36.9329 6.69245 36.511 7.11433 36.0305 7.4737C36.511 9.51277 36.9329 11.6143 37.3508 13.6534C36.9915 13.6534 36.6321 13.6534 36.2727 13.712C34.4719 13.712 33.7493 16.712 35.4329 17.794C35.9719 18.1534 36.6321 18.5128 37.2297 18.755L35.8508 18.9346C36.511 19.1729 37.1712 19.4151 37.8313 19.5948C38.0696 19.6534 38.1907 19.8331 38.1907 20.0128C38.3118 20.0128 38.4329 20.0128 38.5501 20.0128L38.9094 22.1143C39.3899 24.9346 39.8704 27.755 40.3508 30.5753L40.8899 34.5323C41.011 35.8526 40.8899 37.294 41.1907 38.5557C41.1907 39.212 41.7922 39.6339 42.2727 39.5128C42.3313 39.8721 42.4524 40.1729 42.6321 40.4737C43.3508 41.3135 44.5501 41.255 45.3313 40.5948C45.9329 40.1143 46.3508 39.5128 46.7102 38.794C46.7102 38.4932 46.7102 38.1339 46.6516 37.7745C46.8313 34.8331 46.5305 31.7745 46.3508 28.8331C46.2297 26.0753 45.9915 23.3135 45.6907 20.6143C47.2493 20.6729 48.8704 20.794 50.4329 20.8526C50.7297 21.3956 51.0891 21.9932 51.4524 22.5323V22.5948C51.8118 23.1925 52.1126 23.794 52.4094 24.4542C53.5501 26.6729 55.1712 30.6339 55.8313 32.1925C57.0305 34.9542 58.2297 37.7745 59.3118 40.5948C59.5501 40.712 59.9094 40.5948 60.0891 40.4151C60.0891 40.4737 60.1516 40.4737 60.2102 40.4737C60.7493 40.712 61.2922 40.712 61.8313 40.6534C62.8508 41.0753 64.2297 40.7745 64.4094 39.4542C64.8899 35.5557 62.7922 31.7745 61.1712 28.3526C59.9094 25.7745 58.4719 23.3135 56.8508 20.9151C59.6711 21.1534 62.4915 21.3956 65.3118 21.5753C66.2727 21.6925 67.4094 20.6729 67.5305 19.5323L67.7102 18.2745ZM43.3508 9.0948L43.1712 8.13386C48.3313 9.33308 53.1321 11.9151 57.7493 15.0948L51.9329 14.3721C50.5501 13.2354 48.5696 11.6143 46.7727 12.755C46.4719 12.9932 46.2922 13.3526 46.2297 13.6534C45.9329 13.5948 45.5696 13.5948 45.2727 13.5323C45.0305 12.2745 44.7297 11.0128 44.4329 9.75495C44.3704 9.21198 43.7727 9.21198 43.4719 9.51277C43.4094 9.39558 43.4094 9.21198 43.3508 9.0948ZM47.6126 36.0948C47.8508 34.6534 48.3313 34.0557 48.1516 31.8956C47.8508 28.294 47.5501 24.6925 46.9524 21.212H46.4719C47.1907 26.1339 47.3704 31.1143 47.6126 36.0948Z" fill="#E4E2DD"/>
    <path d="M64.8298 9.45417C64.7127 9.57527 64.7127 9.75496 64.8298 9.81355C66.1502 9.21199 67.4705 8.67292 68.8494 8.25496C72.8103 6.87214 76.8923 5.97371 80.9705 5.07527C83.3103 4.5323 85.7127 3.93464 88.0525 3.33308C87.5095 3.33308 86.9705 3.33308 86.4314 3.39558C83.8494 3.57527 81.3923 4.05574 78.9314 4.5323L77.5525 4.89558C73.2322 6.0323 68.7908 7.35261 64.8298 9.45417ZM98.49 33.8721C99.2127 33.3331 99.6892 32.4932 99.6306 31.4151C99.3923 27.9932 98.2517 22.712 93.6306 23.6729C92.9705 23.8526 92.3728 24.1534 91.7127 24.3331L89.3728 25.0557C87.9314 25.5323 86.49 26.0753 85.0525 26.6143C84.1502 26.9151 83.2517 27.2745 82.3494 27.6339L77.2517 29.6143C75.9314 30.1534 74.6111 30.6925 73.2908 31.294L73.1111 31.4151C73.1111 31.294 73.1111 31.2354 73.1111 31.1729L72.7517 27.2745C74.4314 26.4346 76.0525 25.5948 77.7908 24.8721C80.6111 23.6729 83.4314 22.7745 86.3103 21.9932C87.7517 21.6339 89.2517 21.3331 90.6892 21.0948C92.072 20.794 93.3923 20.8526 94.6502 20.255C95.7322 19.712 96.4509 18.3956 96.2127 17.255C96.0916 16.6534 95.7322 16.0557 95.1892 15.755C95.1306 15.755 95.1306 15.755 95.072 15.6925C95.0095 15.4542 94.8923 15.212 94.7712 14.9737C94.7127 14.8526 94.6502 14.6729 94.5291 14.4932C93.6892 13.0557 92.2517 12.9932 90.7517 13.0557C90.0291 13.1143 89.3728 13.1729 88.6502 13.294L87.8728 13.4737C85.9509 14.0128 83.9705 14.5557 82.0525 15.0323C78.6306 16.294 75.3298 17.7354 71.9705 19.1729C71.9705 18.8721 71.6111 16.712 71.5525 16.1143L71.6697 15.9932C73.5291 15.212 75.4509 14.4932 77.3728 13.8331C78.0291 13.5323 83.9705 11.7354 87.0291 10.8956C87.1502 10.8956 87.2712 10.8331 87.3923 10.7745C88.7712 10.4151 90.1502 9.99324 91.4705 9.57527L94.4705 8.67292C94.7127 7.47371 94.5291 6.21199 94.1111 4.95417C93.8103 4.71199 93.4509 4.41511 93.1502 4.17292L92.1892 3.81355C91.8298 3.69246 91.4119 3.63386 90.99 3.57527C87.8728 4.41511 84.7517 5.25496 81.572 5.97371C77.49 6.81355 73.4119 7.71199 69.4509 9.0948C68.1892 9.51277 66.8728 9.99324 65.6111 10.5323C65.5525 10.712 65.4314 10.8956 65.3728 11.0128C64.5291 11.7354 63.99 12.6339 63.8728 13.8331C63.7517 14.8526 64.1111 15.9932 64.8298 16.7745L65.5525 23.6143L66.2712 30.8135C66.4509 32.9151 66.572 35.0753 66.9314 37.1143C66.3923 38.6729 67.4119 40.4737 68.9119 41.0753C68.8494 41.3721 68.8494 41.6143 68.9705 41.9151C69.4509 42.9346 70.5291 42.9932 71.49 42.8135C71.7322 42.8135 72.0916 42.755 72.0916 42.755C72.0291 42.8135 75.4509 41.794 76.1697 41.3135L76.2322 41.255C76.8923 40.9542 77.5525 40.712 78.2127 40.4151C78.3298 40.3526 78.5095 40.294 78.6306 40.2354H78.6892C80.6697 39.3956 82.7127 38.6729 84.7517 37.9542C89.0095 36.4542 93.4509 35.3135 97.8923 34.4737C98.2517 34.4151 98.4314 34.1729 98.49 33.8721ZM83.9705 21.1534L84.0291 21.3331C83.6697 21.4542 83.3728 21.5753 83.0095 21.755C80.0095 22.9542 76.8923 24.0948 73.9509 25.5948C74.4314 25.1729 74.7908 24.5753 74.9119 23.9151C76.0525 23.6143 77.1892 23.255 78.3923 22.8956C80.2517 22.294 82.1111 21.755 83.9705 21.1534ZM70.7127 41.9151C71.9119 41.6143 73.0525 41.1339 74.1892 40.712C75.3298 40.3526 76.4119 39.9346 77.49 39.5128V39.6339C76.5916 40.1143 75.6892 40.5948 74.7322 41.0753C74.3103 41.3135 73.8298 41.5557 73.3494 41.794C73.2908 41.8526 73.2322 41.8526 73.1697 41.8526C72.99 41.9151 71.6111 42.0323 70.7127 41.9151Z" fill="#E4E2DD"/>
    <path d="M130.112 35.0128C129.932 33.2745 129.51 31.5323 129.151 29.794C128.729 27.8135 128.37 25.8956 128.01 23.9151C127.831 23.0753 127.651 22.1729 127.413 21.2745C127.292 20.255 127.112 19.1729 126.932 18.1534C126.452 15.4542 125.971 12.755 125.311 10.0557C124.71 7.5948 123.69 5.19245 121.831 3.33308C121.112 2.55573 119.792 2.55573 118.952 3.21198C118.229 2.79402 117.331 2.67292 116.311 2.9737C115.651 3.0948 114.991 3.69245 114.87 4.29402C114.151 9.51277 112.831 14.6729 111.69 19.8331C110.913 23.1925 110.19 26.5557 109.413 29.9151C108.03 23.8526 106.71 16.8331 105.69 10.6534C105.452 9.15339 105.151 7.65339 105.03 6.21198C104.971 5.61433 104.729 5.01277 104.37 4.5948C103.952 3.51277 103.049 2.73542 101.913 2.49323C100.952 2.19245 99.8698 2.31355 98.9128 2.91511C98.1901 3.33308 97.8893 3.93464 97.8893 4.5323C97.3503 5.67292 97.4128 6.99323 97.4714 8.19245C97.4714 9.63386 97.53 11.0128 97.53 12.4542V13.8331C97.4128 13.8331 97.3503 12.5128 97.2292 12.5128C97.1706 9.93464 97.112 7.17292 96.7526 4.77448C96.6901 4.4737 96.0925 4.4737 96.03 4.77448C95.3698 8.19245 95.612 11.794 95.6706 15.212C95.6706 18.755 95.7292 22.3526 95.8503 25.8956C95.9128 29.3721 96.151 32.7354 96.6315 36.212C96.8112 37.6534 96.9323 39.4542 98.0104 40.5323C98.5495 41.0753 99.3893 41.1925 100.112 40.9542C100.171 41.0753 100.229 41.1339 100.292 41.1925C100.53 41.4932 100.952 41.4932 101.311 41.3135C103.229 40.4737 103.049 38.255 102.991 36.5128C102.87 31.4737 102.69 26.1925 102.452 21.1534C102.569 21.6925 102.753 22.1729 102.932 22.6534C103.413 24.6339 103.952 26.6729 104.491 28.6534L107.069 37.8331C107.311 38.794 107.549 39.6925 108.092 40.5323C108.21 40.7745 108.452 40.8331 108.632 40.712C108.87 40.8956 109.171 40.9542 109.471 40.9542C109.651 41.0753 109.952 41.0753 110.253 41.0128C111.21 40.7745 111.569 40.1143 111.87 39.2745C112.049 38.6729 112.171 38.1339 112.292 37.5323C112.292 37.6534 112.471 37.712 112.53 37.4737C113.01 34.9542 113.85 31.2354 114.632 27.9346C115.471 24.5753 116.971 19.3526 118.413 15.1534C118.952 17.6729 119.491 20.1925 120.092 22.712C121.413 27.9346 122.069 32.7354 122.19 38.0128C122.19 39.4542 123.272 40.6534 124.651 40.9542C126.151 42.4542 128.37 41.4932 129.272 39.9346C130.112 38.4346 130.229 36.6925 130.112 35.0128ZM105.21 18.6925C105.21 18.5753 105.151 18.4542 105.092 18.3956C104.311 14.6729 103.471 11.0753 102.569 7.41511C102.632 7.29402 102.632 7.23542 102.632 7.17292C102.932 7.11433 103.229 6.99323 103.471 6.81355C103.71 7.77448 103.831 8.67292 103.952 9.57527C104.491 12.6339 105.272 17.0128 105.87 20.0753C105.51 19.712 105.452 19.294 105.21 18.6925ZM114.331 27.8135H114.272C114.21 27.8135 114.151 27.8135 114.092 27.755C114.272 26.8526 114.452 25.9542 114.569 25.0557C115.53 20.9737 116.612 16.9542 117.932 12.9932C118.049 13.4151 118.112 13.8331 118.229 14.1925C116.729 18.6925 115.413 23.255 114.331 27.8135Z" fill="#E4E2DD"/>
    <path d="M145.892 39.3331C147.271 43.6534 151.712 43.5323 151.052 38.1339C150.571 34.5323 149.552 29.6729 148.771 26.1339C152.071 24.0323 151.411 18.6339 146.853 18.0948C146.431 14.4932 146.071 5.43464 146.009 6.0323C145.771 8.01277 145.65 10.1143 145.591 12.1534C145.532 12.1534 145.532 12.1534 145.47 12.0948C145.232 9.75496 144.989 7.29402 144.81 4.89558C144.63 2.97371 143.372 1.77449 141.63 1.65339C141.15 0.692456 139.95 -0.0262949 138.931 0.0322991C135.872 0.0947991 134.669 3.81355 133.591 6.15339C132.032 9.87214 131.071 13.7745 130.232 17.7354C123.091 18.8135 123.091 25.3526 126.931 26.3136C126.989 26.4932 126.931 26.7354 126.872 26.8526C127.353 26.8526 127.95 26.794 128.489 26.7354C127.591 30.212 126.989 33.6925 126.509 37.2354C125.732 42.8721 133.169 43.712 133.65 38.255L134.009 35.5557C134.009 35.5557 135.032 29.4346 135.81 26.4932H136.353C135.212 30.0323 134.669 33.6925 134.372 37.294C134.31 38.0128 135.329 38.0128 135.329 37.294C135.63 33.6339 136.29 30.0948 137.193 26.4932L141.872 26.4346C142.353 28.5948 144.751 38.9151 145.892 39.3331ZM137.009 18.6925C137.552 15.8721 138.271 13.4737 139.232 10.1143C139.829 12.8721 140.13 16.9542 140.372 18.4542C139.532 18.5128 137.853 18.5753 137.009 18.6925Z" fill="#E4E2DD"/>
    <path d="M180.932 5.79402C182.37 5.19245 182.432 2.91511 181.05 2.13386C180.932 2.01277 180.811 1.95417 180.69 1.89558C180.811 1.83308 180.991 1.83308 181.112 1.83308C181.71 1.71199 181.53 0.692455 180.991 0.754955C180.093 0.872142 179.19 0.934642 178.292 1.05574C177.932 0.993236 177.569 1.05574 177.272 1.05574C176.671 1.11433 176.069 1.17292 175.409 1.29402C167.069 2.01277 158.671 2.19245 150.272 1.71199C150.093 1.65339 150.03 2.01277 150.21 2.01277C153.452 2.55574 156.69 2.91511 159.932 3.0948C159.932 3.15339 159.87 3.21199 159.87 3.27449C156.569 3.27449 153.331 3.0323 150.03 2.73542C148.71 2.61433 147.511 3.75496 147.151 4.95417C146.792 6.39558 147.511 7.83308 148.71 8.49324C149.069 9.45417 149.85 10.294 150.632 10.8331C151.71 11.4932 153.03 11.6729 154.292 11.8526C155.85 11.9737 157.472 12.0323 159.093 12.0323C159.87 12.0323 160.651 12.0323 161.432 12.0323V13.9542L161.311 16.5948C161.19 19.712 161.011 22.8331 160.831 25.8956C160.71 28.9542 160.651 32.0753 160.831 35.1339C160.952 37.4737 161.491 40.2354 164.011 41.0128C165.272 41.3721 166.772 40.6534 167.19 39.3331C167.612 38.1339 167.671 36.4542 167.909 35.3721V37.6534C167.85 38.4932 167.85 39.3331 167.792 40.1729V40.294C168.87 39.4542 169.112 38.0128 169.229 36.5753C169.171 34.4737 169.05 32.3721 168.991 30.2745C168.991 26.6143 168.932 22.9542 168.932 19.294C168.932 16.6534 168.991 14.0128 168.991 11.3721C172.05 10.9542 175.05 10.4151 178.112 9.81355C178.292 9.81355 178.409 9.69245 178.53 9.57527C178.831 9.51277 179.19 9.39558 179.432 9.21199C180.39 8.55574 180.632 7.4737 180.69 6.39558C180.811 6.21199 180.87 6.0323 180.932 5.79402ZM154.292 10.4151C152.85 10.3526 151.292 9.93464 150.331 9.0323C152.671 9.75495 155.069 10.1729 157.472 10.4151C156.39 10.4737 155.311 10.4737 154.292 10.4151Z" fill="#E4E2DD"/>
    <path d="M177.39 9.45417C177.272 9.57527 177.272 9.75496 177.39 9.81355C178.71 9.21199 180.03 8.67292 181.409 8.25496C185.37 6.87214 189.452 5.97371 193.53 5.07527C195.87 4.5323 198.272 3.93464 200.612 3.33308C200.069 3.33308 199.53 3.33308 198.991 3.39558C196.409 3.57527 193.952 4.05574 191.491 4.5323L190.112 4.89558C185.792 6.0323 181.351 7.35261 177.39 9.45417ZM211.05 33.8721C211.772 33.3331 212.249 32.4932 212.19 31.4151C211.952 27.9932 210.812 22.712 206.19 23.6729C205.53 23.8526 204.933 24.1534 204.272 24.3331L201.933 25.0557C200.491 25.5323 199.05 26.0753 197.612 26.6143C196.71 26.9151 195.812 27.2745 194.909 27.6339L189.812 29.6143C188.491 30.1534 187.171 30.6925 185.851 31.294L185.671 31.4151C185.671 31.294 185.671 31.2354 185.671 31.1729L185.312 27.2745C186.991 26.4346 188.612 25.5948 190.351 24.8721C193.171 23.6729 195.991 22.7745 198.87 21.9932C200.312 21.6339 201.812 21.3331 203.249 21.0948C204.632 20.794 205.952 20.8526 207.21 20.255C208.292 19.712 209.011 18.3956 208.772 17.255C208.651 16.6534 208.292 16.0557 207.749 15.755C207.69 15.755 207.69 15.755 207.632 15.6925C207.569 15.4542 207.452 15.212 207.331 14.9737C207.272 14.8526 207.21 14.6729 207.089 14.4932C206.249 13.0557 204.812 12.9932 203.312 13.0557C202.589 13.1143 201.933 13.1729 201.21 13.294L200.433 13.4737C198.511 14.0128 196.53 14.5557 194.612 15.0323C191.19 16.294 187.89 17.7354 184.53 19.1729C184.53 18.8721 184.171 16.712 184.112 16.1143L184.229 15.9932C186.089 15.212 188.011 14.4932 189.933 13.8331C190.589 13.5323 196.53 11.7354 199.589 10.8956C199.71 10.8956 199.831 10.8331 199.952 10.7745C201.331 10.4151 202.71 9.99324 204.03 9.57527L207.03 8.67292C207.272 7.47371 207.089 6.21199 206.671 4.95417C206.37 4.71199 206.011 4.41511 205.71 4.17292L204.749 3.81355C204.39 3.69246 203.972 3.63386 203.55 3.57527C200.433 4.41511 197.312 5.25496 194.132 5.97371C190.05 6.81355 185.972 7.71199 182.011 9.0948C180.749 9.51277 179.433 9.99324 178.171 10.5323C178.112 10.712 177.991 10.8956 177.933 11.0128C177.089 11.7354 176.55 12.6339 176.433 13.8331C176.312 14.8526 176.671 15.9932 177.39 16.7745L178.112 23.6143L178.831 30.8135C179.011 32.9151 179.132 35.0753 179.491 37.1143C178.952 38.6729 179.972 40.4737 181.472 41.0753C181.409 41.3721 181.409 41.6143 181.53 41.9151C182.011 42.9346 183.089 42.9932 184.05 42.8135C184.292 42.8135 184.651 42.755 184.651 42.755C184.589 42.8135 188.011 41.794 188.729 41.3135L188.792 41.255C189.452 40.9542 190.112 40.712 190.772 40.4151C190.89 40.3526 191.069 40.294 191.19 40.2354H191.249C193.229 39.3956 195.272 38.6729 197.312 37.9542C201.569 36.4542 206.011 35.3135 210.452 34.4737C210.812 34.4151 210.991 34.1729 211.05 33.8721ZM196.53 21.1534L196.589 21.3331C196.229 21.4542 195.933 21.5753 195.569 21.755C192.569 22.9542 189.452 24.0948 186.511 25.5948C186.991 25.1729 187.351 24.5753 187.472 23.9151C188.612 23.6143 189.749 23.255 190.952 22.8956C192.812 22.294 194.671 21.755 196.53 21.1534ZM183.272 41.9151C184.472 41.6143 185.612 41.1339 186.749 40.712C187.89 40.3526 188.972 39.9346 190.05 39.5128V39.6339C189.151 40.1143 188.249 40.5948 187.292 41.0753C186.87 41.3135 186.39 41.5557 185.909 41.794C185.851 41.8526 185.792 41.8526 185.729 41.8526C185.55 41.9151 184.171 42.0323 183.272 41.9151Z" fill="#E4E2DD"/>
    <path d="M29.9692 59.4493C32.3754 59.4493 33.9184 58.5352 33.9106 57.1875C33.9106 56.0157 32.9692 55.418 30.7856 55.2032L29.5824 55.0665C28.7426 54.9844 28.3793 54.8399 28.391 54.5977C28.3988 54.254 29.0668 54.0352 29.9965 54.0274C30.9926 54.0196 32.059 54.3086 32.7699 54.7774L33.4223 53.4141C32.6098 52.8985 31.3246 52.5899 29.9809 52.5899C27.6488 52.5899 26.0785 53.375 26.0668 54.7696C26.0668 55.9141 26.9535 56.4844 29.0121 56.6993L30.2035 56.836C31.1801 56.9375 31.5981 57.1172 31.5981 57.3868C31.5981 57.7383 31.0199 57.9493 30.0981 57.9493C28.852 57.9493 27.4496 57.5157 26.6801 56.918L25.8949 58.336C26.7621 58.9961 28.4262 59.4493 29.9692 59.4493Z" fill="#FF5757"/>
    <path d="M34.4153 59.2579H36.7903V52.7891H34.4153V59.2579Z" fill="#FF5757"/>
    <path d="M37.5677 59.2579H39.8177V55.2266H39.8333L41.931 59.2579H43.9466L45.9701 55.2188H45.9857V59.2579H48.2357V52.7891H45.1185L42.9076 57.1524H42.888L40.638 52.7891H37.5677V59.2579Z" fill="#FF5757"/>
    <path d="M49.0123 59.2579H51.3951V57.2618H54.2506C56.0865 57.2618 57.106 56.4766 57.106 55.0586C57.106 53.6016 56.0943 52.7891 54.2701 52.7891H49.0123V59.2579ZM51.3951 55.9336V54.1172H53.4654C54.2701 54.1172 54.7115 54.4415 54.7115 55.0196C54.7115 55.6094 54.2701 55.9336 53.4654 55.9336H51.3951Z" fill="#FF5757"/>
    <path d="M57.6025 59.2579H63.9345V57.5157H59.9853V52.7891H57.6025V59.2579Z" fill="#FF5757"/>
    <path d="M64.4132 59.2579H66.7882V52.7891H64.4132V59.2579Z" fill="#FF5757"/>
    <path d="M67.5656 59.2579H69.9484V56.9883H73.8507V55.6368H69.9484V54.461H74.3937V52.7891H67.5656V59.2579Z" fill="#FF5757"/>
    <path d="M77.5747 59.2579H79.9575V57.043L83.0474 52.7891H80.52L78.774 55.5H78.7661L76.9302 52.7891H74.438L77.5747 57.043V59.2579Z" fill="#FF5757"/>
    <path d="M84.3104 59.3477C85.0057 59.3477 85.5018 58.9336 85.5018 58.336C85.5018 57.7383 85.0057 57.3243 84.3104 57.3243C83.6229 57.3243 83.1268 57.7383 83.1268 58.336C83.1268 58.9336 83.6229 59.3477 84.3104 59.3477Z" fill="#FF5757"/>
    <path d="M92.5872 59.4102C94.9818 59.4102 96.7044 58.4102 97.0482 56.8204L94.845 56.4297C94.6653 57.2344 93.806 57.7383 92.6497 57.7383C91.1849 57.7383 90.2552 57.0704 90.2474 56.0235C90.2474 54.9649 91.0755 54.3086 92.3763 54.3086C93.2982 54.3086 94.0325 54.7305 94.2591 55.3985L96.4271 54.9571C95.9935 53.5313 94.3919 52.625 92.3138 52.625C89.5872 52.625 87.8607 53.9454 87.8607 56.0235C87.8607 58.1641 89.6966 59.4102 92.5872 59.4102Z" fill="#FF5757"/>
    <path d="M102.099 59.4844C104.951 59.4844 106.849 58.1016 106.849 56.0235C106.849 53.9375 104.951 52.5625 102.099 52.5625C99.2435 52.5625 97.3451 53.9375 97.3451 56.0235C97.3451 58.1016 99.2435 59.4844 102.099 59.4844ZM102.099 57.8125C100.677 57.8125 99.7318 57.0977 99.7318 56.0235C99.7318 54.9493 100.677 54.2344 102.099 54.2344C103.517 54.2344 104.454 54.9493 104.454 56.0235C104.454 57.0977 103.517 57.8125 102.099 57.8125Z" fill="#FF5757"/>
    <path d="M107.463 59.2579H109.713V55.004H109.721L113.19 59.2579H116.053V52.7891H113.803V56.9883H113.795L110.327 52.7891H107.463V59.2579Z" fill="#FF5757"/>
    <path d="M116.83 59.2579H119.08V55.004H119.088L122.557 59.2579H125.42V52.7891H123.17V56.9883H123.162L119.694 52.7891H116.83V59.2579Z" fill="#FF5757"/>
    <path d="M126.197 59.2579H133.127V57.793H128.51V56.5938H132.674V55.336H128.51V54.254H133.033V52.7891H126.197V59.2579Z" fill="#FF5757"/>
    <path d="M138.194 59.4102C140.588 59.4102 142.311 58.4102 142.655 56.8204L140.452 56.4297C140.272 57.2344 139.413 57.7383 138.256 57.7383C136.791 57.7383 135.862 57.0704 135.854 56.0235C135.854 54.9649 136.682 54.3086 137.983 54.3086C138.905 54.3086 139.639 54.7305 139.866 55.3985L142.034 54.9571C141.6 53.5313 139.998 52.625 137.92 52.625C135.194 52.625 133.467 53.9454 133.467 56.0235C133.467 58.1641 135.303 59.4102 138.194 59.4102Z" fill="#FF5757"/>
    <path d="M145.256 59.2579H147.639V54.461H150.151V52.7891H142.745V54.461H145.256V59.2579Z" fill="#FF5757"/>
    <path d="M151.496 59.3477C152.192 59.3477 152.688 58.9336 152.688 58.336C152.688 57.7383 152.192 57.3243 151.496 57.3243C150.809 57.3243 150.313 57.7383 150.313 58.336C150.313 58.9336 150.809 59.3477 151.496 59.3477Z" fill="#FF5757"/>
    <path d="M155.21 59.2579H157.593V56.6836H161.128V59.2579H163.519V52.7891H161.128V55.0743H157.593V52.7891H155.21V59.2579Z" fill="#FF5757"/>
    <path d="M164.297 59.2579H166.672V52.7891H164.297V59.2579Z" fill="#FF5757"/>
    <path d="M174.532 59.4375C175.118 59.4375 175.833 59.2305 176.184 58.9336L175.805 57.9766C175.696 58.1016 175.481 58.1719 175.325 58.1719C175.063 58.1719 174.903 58.0665 174.774 57.8829L174.333 57.2149C174.18 56.9883 173.981 56.8008 173.762 56.7266V56.7188C174.946 56.4922 175.641 55.8165 175.641 54.8399C175.641 53.5391 174.641 52.7891 172.907 52.7891H167.45V59.2579H169.833V57.1172H171.173C171.622 57.1172 172.012 57.3047 172.282 57.6954L172.661 58.3165C173.04 58.8594 173.54 59.4375 174.532 59.4375ZM169.833 55.7891V54.1875H172.184C172.852 54.1875 173.251 54.4883 173.251 54.9844C173.251 55.4922 172.852 55.7891 172.173 55.7891H169.833Z" fill="#FF5757"/>
    <path d="M176.51 59.2579H183.439V57.793H178.822V56.5938H182.986V55.336H178.822V54.254H183.346V52.7891H176.51V59.2579Z" fill="#FF5757"/>
    <path d="M184.881 59.3477C185.577 59.3477 186.073 58.9336 186.073 58.336C186.073 57.7383 185.577 57.3243 184.881 57.3243C184.194 57.3243 183.698 57.7383 183.698 58.336C183.698 58.9336 184.194 59.3477 184.881 59.3477Z" fill="#FF5757"/>
</svg>
