<svg xmlns="http://www.w3.org/2000/svg"
    xmlns:xlink="http://www.w3.org/1999/xlink" zoomAndPan="magnify" viewBox="0 0 75 74.999997" preserveAspectRatio="xMidYMid meet" version="1.0">
    <defs>
        <g/>
    </defs>
    <g fill="#e4e2dd" fill-opacity="1">
        <g transform="translate(17.848125, 55.124994)">
            <g>
                <path d="M 30.660156 -18.839844 C 32.160156 -20.460938 31.921875 -23.578125 29.578125 -24.359375 C 29.039062 -24.480469 28.558594 -24.660156 28.078125 -24.71875 L 28.078125 -26.039062 C 28.140625 -27.480469 28.140625 -28.921875 28.078125 -30.300781 C 28.078125 -30.480469 28.140625 -30.660156 28.078125 -30.839844 C 27.960938 -32.941406 28.199219 -35.578125 27.058594 -37.441406 C 25.859375 -39.480469 23.339844 -39.539062 21.539062 -38.339844 C 19.5 -36.960938 19.859375 -34.558594 20.21875 -32.460938 C 20.339844 -30 20.519531 -27.480469 20.640625 -25.019531 C 19.980469 -24.960938 19.378906 -24.839844 18.71875 -24.78125 C 16.621094 -24.601562 14.519531 -24.421875 12.421875 -24.121094 L 12.300781 -24.121094 C 12.121094 -26.820312 11.941406 -29.578125 11.761719 -32.339844 L 11.578125 -35.21875 C 11.519531 -35.761719 11.28125 -36.898438 10.679688 -37.140625 C 10.441406 -37.261719 10.261719 -37.320312 10.019531 -37.320312 L 10.019531 -37.441406 C 9.960938 -38.820312 8.460938 -39.78125 7.199219 -39.601562 C 5.878906 -39.421875 4.859375 -38.160156 5.039062 -36.78125 C 5.640625 -32.21875 5.761719 -27.539062 5.820312 -22.921875 L 5.699219 -22.921875 C 5.640625 -22.921875 5.578125 -22.800781 5.519531 -22.738281 C 5.339844 -24.960938 5.101562 -27.300781 4.859375 -29.519531 C 4.558594 -32.460938 4.378906 -35.460938 3.78125 -38.339844 C 3.78125 -38.460938 3.601562 -38.460938 3.601562 -38.339844 C 3.480469 -35.519531 3.71875 -32.640625 3.78125 -29.820312 C 3.898438 -27.359375 3.960938 -24.898438 4.019531 -22.5 C 3.121094 -22.199219 2.339844 -21.71875 1.859375 -20.941406 C 1.5 -20.640625 1.140625 -20.28125 0.898438 -19.921875 C -0.539062 -17.941406 1.558594 -15.480469 3.601562 -16.320312 L 4.199219 -16.558594 C 4.378906 -12.121094 4.441406 -7.621094 4.800781 -3.179688 C 4.800781 -2.761719 5.21875 -2.519531 5.578125 -2.519531 C 5.699219 -2.21875 5.820312 -1.921875 6 -1.621094 C 7.140625 0.480469 9.359375 0.238281 10.859375 -1.320312 C 11.578125 -2.101562 11.761719 -3.480469 11.878906 -4.5 C 11.941406 -4.980469 11.941406 -5.519531 12 -6 L 12 -6.179688 C 12.359375 -8.101562 12.300781 -10.140625 12.300781 -12.121094 C 12.300781 -13.859375 12.238281 -15.601562 12.179688 -17.339844 C 14.460938 -17.460938 16.800781 -17.519531 19.078125 -17.519531 C 19.5 -17.519531 19.859375 -17.519531 20.28125 -17.519531 L 20.28125 -15.300781 C 20.28125 -13.019531 20.339844 -10.679688 20.460938 -8.398438 C 20.519531 -6.058594 20.640625 -3.78125 20.820312 -1.441406 C 20.878906 -0.660156 21 0.359375 21.539062 0.960938 C 22.199219 1.800781 23.28125 2.160156 24.359375 1.5 C 24.660156 1.320312 24.960938 1.078125 25.140625 0.839844 C 25.199219 0.839844 25.199219 0.839844 25.199219 0.78125 C 26.460938 0.0585938 26.699219 -1.980469 26.878906 -3.300781 C 27.058594 -4.738281 27.179688 -6.179688 27.300781 -7.679688 C 27.480469 -10.621094 27.660156 -13.621094 27.78125 -16.558594 C 29.101562 -16.378906 30.480469 -17.21875 30.660156 -18.660156 Z M 14.339844 -19.140625 C 16.320312 -19.261719 18.300781 -19.199219 20.28125 -19.140625 L 20.28125 -18.839844 C 19.921875 -18.839844 19.5 -18.839844 19.078125 -18.898438 C 16.800781 -18.898438 14.460938 -18.78125 12.121094 -18.539062 L 12.121094 -18.78125 C 12.238281 -18.839844 12.300781 -18.960938 12.359375 -19.078125 C 13.019531 -19.078125 13.679688 -19.140625 14.339844 -19.140625 Z M 14.339844 -19.140625 "/>
            </g>
        </g>
    </g>
    <g fill="#e4e2dd" fill-opacity="1">
        <g transform="translate(44.248097, 55.124994)">
            <g>
                <path d="M 0.839844 -34.621094 C 0.960938 -34.019531 1.800781 -33.539062 2.339844 -33.359375 C 3.238281 -33 4.140625 -32.878906 5.101562 -32.878906 C 6.238281 -32.878906 7.558594 -33.179688 8.28125 -34.019531 C 9.421875 -34.261719 10.558594 -34.800781 11.460938 -35.460938 C 11.941406 -35.820312 12.359375 -36.421875 12.121094 -37.078125 C 11.519531 -38.640625 10.320312 -39.539062 8.699219 -39.960938 C 6.839844 -40.441406 4.980469 -39.71875 3.421875 -38.640625 C 3.300781 -38.578125 3.179688 -38.460938 3.058594 -38.339844 C 2.460938 -37.921875 1.980469 -37.441406 1.558594 -36.839844 C 1.140625 -36.238281 0.601562 -35.398438 0.839844 -34.621094 Z M 4.859375 -33.179688 C 4.140625 -33.238281 3.480469 -33.359375 2.820312 -33.601562 C 2.398438 -33.71875 2.039062 -33.960938 1.679688 -34.261719 C 1.199219 -34.679688 1.261719 -35.101562 1.5 -35.640625 C 1.738281 -36.058594 1.980469 -36.421875 2.28125 -36.78125 C 1.679688 -35.398438 2.339844 -34.019531 4.078125 -33.660156 C 5.460938 -33.421875 6.238281 -33.539062 6.960938 -33.71875 C 7.019531 -33.71875 6.601562 -33.179688 4.859375 -33.179688 Z M 11.101562 -3.179688 C 11.21875 -2.578125 12.179688 -2.640625 12.121094 -3.238281 C 10.980469 -11.761719 10.5 -20.28125 10.738281 -28.859375 C 10.738281 -28.921875 10.320312 -28.859375 10.320312 -28.738281 C 10.078125 -24.480469 10.078125 -18.179688 10.261719 -13.921875 C 10.140625 -13.921875 9.960938 -16.019531 9.839844 -15.960938 C 9.78125 -16.5 9.71875 -17.039062 9.71875 -17.460938 C 9.660156 -19.679688 9.539062 -21.898438 9.539062 -24.058594 C 9.539062 -26.28125 9.660156 -28.441406 9.660156 -30.660156 C 9.601562 -31.199219 9.121094 -31.441406 8.699219 -31.378906 C 7.738281 -33.78125 4.679688 -31.558594 3.421875 -30.71875 C 3.238281 -30.539062 3.058594 -30.359375 2.941406 -30.121094 C 2.21875 -29.398438 1.859375 -28.261719 1.679688 -27.121094 C 1.441406 -24.960938 1.5 -22.738281 1.5 -20.578125 C 1.441406 -16.078125 1.738281 -11.640625 2.28125 -7.199219 C 2.519531 -5.519531 2.578125 -3.71875 3.839844 -2.519531 C 4.140625 -2.28125 4.441406 -2.101562 4.738281 -1.980469 L 4.859375 -1.800781 C 6 -0.660156 7.800781 -0.300781 9.238281 -1.019531 C 9.78125 -1.261719 9.898438 -1.738281 9.839844 -2.160156 C 10.320312 -2.339844 10.800781 -2.699219 11.101562 -3.179688 Z M 4.441406 -27.660156 C 4.441406 -27.78125 4.679688 -28.140625 4.859375 -28.261719 L 4.921875 -28.261719 C 4.261719 -26.339844 4.140625 -24.121094 4.140625 -22.078125 C 4.078125 -19.378906 4.140625 -16.679688 4.140625 -13.980469 L 3.960938 -13.980469 C 3.78125 -15.421875 3.601562 -16.859375 3.480469 -18.300781 C 3.480469 -18.359375 3.480469 -18.359375 3.480469 -18.421875 L 3.480469 -19.019531 C 3.601562 -21.78125 3.539062 -24.960938 4.441406 -27.660156 Z M 4.441406 -27.660156 "/>
            </g>
        </g>
    </g>
</svg>