<svg xmlns="http://www.w3.org/2000/svg"
    xmlns:xlink="http://www.w3.org/1999/xlink" zoomAndPan="magnify" viewBox="0 0 240 89.999999" preserveAspectRatio="xMidYMid meet" version="1.0">
    <defs>
        <g/>
    </defs>
    <g fill="#2b2b2b" fill-opacity="1">
        <g transform="translate(13.970668, 59.867665)">
            <g>
                <path d="M 30.660156 -18.839844 C 32.160156 -20.460938 31.921875 -23.578125 29.578125 -24.359375 C 29.039062 -24.480469 28.558594 -24.660156 28.078125 -24.71875 L 28.078125 -26.039062 C 28.140625 -27.480469 28.140625 -28.921875 28.078125 -30.300781 C 28.078125 -30.480469 28.140625 -30.660156 28.078125 -30.839844 C 27.960938 -32.941406 28.199219 -35.578125 27.058594 -37.441406 C 25.859375 -39.480469 23.339844 -39.539062 21.539062 -38.339844 C 19.5 -36.960938 19.859375 -34.558594 20.21875 -32.460938 C 20.339844 -30 20.519531 -27.480469 20.640625 -25.019531 C 19.980469 -24.960938 19.378906 -24.839844 18.71875 -24.78125 C 16.621094 -24.601562 14.519531 -24.421875 12.421875 -24.121094 L 12.300781 -24.121094 C 12.121094 -26.820312 11.941406 -29.578125 11.761719 -32.339844 L 11.578125 -35.21875 C 11.519531 -35.761719 11.28125 -36.898438 10.679688 -37.140625 C 10.441406 -37.261719 10.261719 -37.320312 10.019531 -37.320312 L 10.019531 -37.441406 C 9.960938 -38.820312 8.460938 -39.78125 7.199219 -39.601562 C 5.878906 -39.421875 4.859375 -38.160156 5.039062 -36.78125 C 5.640625 -32.21875 5.761719 -27.539062 5.820312 -22.921875 L 5.699219 -22.921875 C 5.640625 -22.921875 5.578125 -22.800781 5.519531 -22.738281 C 5.339844 -24.960938 5.101562 -27.300781 4.859375 -29.519531 C 4.558594 -32.460938 4.378906 -35.460938 3.78125 -38.339844 C 3.78125 -38.460938 3.601562 -38.460938 3.601562 -38.339844 C 3.480469 -35.519531 3.71875 -32.640625 3.78125 -29.820312 C 3.898438 -27.359375 3.960938 -24.898438 4.019531 -22.5 C 3.121094 -22.199219 2.339844 -21.71875 1.859375 -20.941406 C 1.5 -20.640625 1.140625 -20.28125 0.898438 -19.921875 C -0.539062 -17.941406 1.558594 -15.480469 3.601562 -16.320312 L 4.199219 -16.558594 C 4.378906 -12.121094 4.441406 -7.621094 4.800781 -3.179688 C 4.800781 -2.761719 5.21875 -2.519531 5.578125 -2.519531 C 5.699219 -2.21875 5.820312 -1.921875 6 -1.621094 C 7.140625 0.480469 9.359375 0.238281 10.859375 -1.320312 C 11.578125 -2.101562 11.761719 -3.480469 11.878906 -4.5 C 11.941406 -4.980469 11.941406 -5.519531 12 -6 L 12 -6.179688 C 12.359375 -8.101562 12.300781 -10.140625 12.300781 -12.121094 C 12.300781 -13.859375 12.238281 -15.601562 12.179688 -17.339844 C 14.460938 -17.460938 16.800781 -17.519531 19.078125 -17.519531 C 19.5 -17.519531 19.859375 -17.519531 20.28125 -17.519531 L 20.28125 -15.300781 C 20.28125 -13.019531 20.339844 -10.679688 20.460938 -8.398438 C 20.519531 -6.058594 20.640625 -3.78125 20.820312 -1.441406 C 20.878906 -0.660156 21 0.359375 21.539062 0.960938 C 22.199219 1.800781 23.28125 2.160156 24.359375 1.5 C 24.660156 1.320312 24.960938 1.078125 25.140625 0.839844 C 25.199219 0.839844 25.199219 0.839844 25.199219 0.78125 C 26.460938 0.0585938 26.699219 -1.980469 26.878906 -3.300781 C 27.058594 -4.738281 27.179688 -6.179688 27.300781 -7.679688 C 27.480469 -10.621094 27.660156 -13.621094 27.78125 -16.558594 C 29.101562 -16.378906 30.480469 -17.21875 30.660156 -18.660156 Z M 14.339844 -19.140625 C 16.320312 -19.261719 18.300781 -19.199219 20.28125 -19.140625 L 20.28125 -18.839844 C 19.921875 -18.839844 19.5 -18.839844 19.078125 -18.898438 C 16.800781 -18.898438 14.460938 -18.78125 12.121094 -18.539062 L 12.121094 -18.78125 C 12.238281 -18.839844 12.300781 -18.960938 12.359375 -19.078125 C 13.019531 -19.078125 13.679688 -19.140625 14.339844 -19.140625 Z M 14.339844 -19.140625 "/>
            </g>
        </g>
    </g>
    <g fill="#2b2b2b" fill-opacity="1">
        <g transform="translate(40.370621, 59.867665)">
            <g>
                <path d="M 0.839844 -34.621094 C 0.960938 -34.019531 1.800781 -33.539062 2.339844 -33.359375 C 3.238281 -33 4.140625 -32.878906 5.101562 -32.878906 C 6.238281 -32.878906 7.558594 -33.179688 8.28125 -34.019531 C 9.421875 -34.261719 10.558594 -34.800781 11.460938 -35.460938 C 11.941406 -35.820312 12.359375 -36.421875 12.121094 -37.078125 C 11.519531 -38.640625 10.320312 -39.539062 8.699219 -39.960938 C 6.839844 -40.441406 4.980469 -39.71875 3.421875 -38.640625 C 3.300781 -38.578125 3.179688 -38.460938 3.058594 -38.339844 C 2.460938 -37.921875 1.980469 -37.441406 1.558594 -36.839844 C 1.140625 -36.238281 0.601562 -35.398438 0.839844 -34.621094 Z M 4.859375 -33.179688 C 4.140625 -33.238281 3.480469 -33.359375 2.820312 -33.601562 C 2.398438 -33.71875 2.039062 -33.960938 1.679688 -34.261719 C 1.199219 -34.679688 1.261719 -35.101562 1.5 -35.640625 C 1.738281 -36.058594 1.980469 -36.421875 2.28125 -36.78125 C 1.679688 -35.398438 2.339844 -34.019531 4.078125 -33.660156 C 5.460938 -33.421875 6.238281 -33.539062 6.960938 -33.71875 C 7.019531 -33.71875 6.601562 -33.179688 4.859375 -33.179688 Z M 11.101562 -3.179688 C 11.21875 -2.578125 12.179688 -2.640625 12.121094 -3.238281 C 10.980469 -11.761719 10.5 -20.28125 10.738281 -28.859375 C 10.738281 -28.921875 10.320312 -28.859375 10.320312 -28.738281 C 10.078125 -24.480469 10.078125 -18.179688 10.261719 -13.921875 C 10.140625 -13.921875 9.960938 -16.019531 9.839844 -15.960938 C 9.78125 -16.5 9.71875 -17.039062 9.71875 -17.460938 C 9.660156 -19.679688 9.539062 -21.898438 9.539062 -24.058594 C 9.539062 -26.28125 9.660156 -28.441406 9.660156 -30.660156 C 9.601562 -31.199219 9.121094 -31.441406 8.699219 -31.378906 C 7.738281 -33.78125 4.679688 -31.558594 3.421875 -30.71875 C 3.238281 -30.539062 3.058594 -30.359375 2.941406 -30.121094 C 2.21875 -29.398438 1.859375 -28.261719 1.679688 -27.121094 C 1.441406 -24.960938 1.5 -22.738281 1.5 -20.578125 C 1.441406 -16.078125 1.738281 -11.640625 2.28125 -7.199219 C 2.519531 -5.519531 2.578125 -3.71875 3.839844 -2.519531 C 4.140625 -2.28125 4.441406 -2.101562 4.738281 -1.980469 L 4.859375 -1.800781 C 6 -0.660156 7.800781 -0.300781 9.238281 -1.019531 C 9.78125 -1.261719 9.898438 -1.738281 9.839844 -2.160156 C 10.320312 -2.339844 10.800781 -2.699219 11.101562 -3.179688 Z M 4.441406 -27.660156 C 4.441406 -27.78125 4.679688 -28.140625 4.859375 -28.261719 L 4.921875 -28.261719 C 4.261719 -26.339844 4.140625 -24.121094 4.140625 -22.078125 C 4.078125 -19.378906 4.140625 -16.679688 4.140625 -13.980469 L 3.960938 -13.980469 C 3.78125 -15.421875 3.601562 -16.859375 3.480469 -18.300781 C 3.480469 -18.359375 3.480469 -18.359375 3.480469 -18.421875 L 3.480469 -19.019531 C 3.601562 -21.78125 3.539062 -24.960938 4.441406 -27.660156 Z M 4.441406 -27.660156 "/>
            </g>
        </g>
    </g>
    <g fill="#2b2b2b" fill-opacity="1">
        <g transform="translate(47.510593, 59.867665)">
            <g>
                <path d="M 34.199219 -22.859375 C 34.378906 -24.179688 34.019531 -25.261719 33.058594 -25.980469 C 32.28125 -26.578125 31.441406 -27.238281 30.601562 -27.839844 C 30.480469 -28.320312 30.238281 -28.800781 29.761719 -29.160156 C 23.878906 -33.121094 17.941406 -37.199219 11.339844 -39.300781 C 11.28125 -39.300781 11.21875 -39.359375 11.160156 -39.359375 C 10.738281 -39.539062 10.320312 -39.660156 9.898438 -39.839844 C 9.78125 -39.960938 9.601562 -40.078125 9.359375 -40.078125 C 7.378906 -40.441406 3.78125 -41.21875 2.640625 -39 C 1.980469 -37.621094 2.640625 -35.941406 3.78125 -34.980469 C 3.421875 -34.441406 3 -34.019531 2.519531 -33.660156 C 3 -31.621094 3.421875 -29.519531 3.839844 -27.480469 C 3.480469 -27.480469 3.121094 -27.480469 2.761719 -27.421875 C 0.960938 -27.421875 0.238281 -24.421875 1.921875 -23.339844 C 2.460938 -22.980469 3.121094 -22.621094 3.71875 -22.378906 L 2.339844 -22.199219 C 3 -21.960938 3.660156 -21.71875 4.320312 -21.539062 C 4.558594 -21.480469 4.679688 -21.300781 4.679688 -21.121094 C 4.800781 -21.121094 4.921875 -21.121094 5.039062 -21.121094 L 5.398438 -19.019531 C 5.878906 -16.199219 6.359375 -13.378906 6.839844 -10.558594 L 7.378906 -6.601562 C 7.5 -5.28125 7.378906 -3.839844 7.679688 -2.578125 C 7.679688 -1.921875 8.28125 -1.5 8.761719 -1.621094 C 8.820312 -1.261719 8.941406 -0.960938 9.121094 -0.660156 C 9.839844 0.179688 11.039062 0.121094 11.820312 -0.539062 C 12.421875 -1.019531 12.839844 -1.621094 13.199219 -2.339844 C 13.199219 -2.640625 13.199219 -3 13.140625 -3.359375 C 13.320312 -6.300781 13.019531 -9.359375 12.839844 -12.300781 C 12.71875 -15.058594 12.480469 -17.820312 12.179688 -20.519531 C 13.738281 -20.460938 15.359375 -20.339844 16.921875 -20.28125 C 17.21875 -19.738281 17.578125 -19.140625 17.941406 -18.601562 L 17.941406 -18.539062 C 18.300781 -17.941406 18.601562 -17.339844 18.898438 -16.679688 C 20.039062 -14.460938 21.660156 -10.5 22.320312 -8.941406 C 23.519531 -6.179688 24.71875 -3.359375 25.800781 -0.539062 C 26.039062 -0.421875 26.398438 -0.539062 26.578125 -0.71875 C 26.578125 -0.660156 26.640625 -0.660156 26.699219 -0.660156 C 27.238281 -0.421875 27.78125 -0.421875 28.320312 -0.480469 C 29.339844 -0.0585938 30.71875 -0.359375 30.898438 -1.679688 C 31.378906 -5.578125 29.28125 -9.359375 27.660156 -12.78125 C 26.398438 -15.359375 24.960938 -17.820312 23.339844 -20.21875 C 26.160156 -19.980469 28.980469 -19.738281 31.800781 -19.558594 C 32.761719 -19.441406 33.898438 -20.460938 34.019531 -21.601562 Z M 9.839844 -32.039062 L 9.660156 -33 C 14.820312 -31.800781 19.621094 -29.21875 24.238281 -26.039062 L 18.421875 -26.761719 C 17.039062 -27.898438 15.058594 -29.519531 13.261719 -28.378906 C 12.960938 -28.140625 12.78125 -27.78125 12.71875 -27.480469 C 12.421875 -27.539062 12.058594 -27.539062 11.761719 -27.601562 C 11.519531 -28.859375 11.21875 -30.121094 10.921875 -31.378906 C 10.859375 -31.921875 10.261719 -31.921875 9.960938 -31.621094 C 9.898438 -31.738281 9.898438 -31.921875 9.839844 -32.039062 Z M 14.101562 -5.039062 C 14.339844 -6.480469 14.820312 -7.078125 14.640625 -9.238281 C 14.339844 -12.839844 14.039062 -16.441406 13.441406 -19.921875 L 12.960938 -19.921875 C 13.679688 -15 13.859375 -10.019531 14.101562 -5.039062 Z M 14.101562 -5.039062 "/>
            </g>
        </g>
    </g>
    <g fill="#2b2b2b" fill-opacity="1">
        <g transform="translate(77.450539, 59.867665)">
            <g>
                <path d="M 1.378906 -31.679688 C 1.261719 -31.558594 1.261719 -31.378906 1.378906 -31.320312 C 2.699219 -31.921875 4.019531 -32.460938 5.398438 -32.878906 C 9.359375 -34.261719 13.441406 -35.160156 17.519531 -36.058594 C 19.859375 -36.601562 22.261719 -37.199219 24.601562 -37.800781 C 24.058594 -37.800781 23.519531 -37.800781 22.980469 -37.738281 C 20.398438 -37.558594 17.941406 -37.078125 15.480469 -36.601562 L 14.101562 -36.238281 C 9.78125 -35.101562 5.339844 -33.78125 1.378906 -31.679688 Z M 35.039062 -7.261719 C 35.761719 -7.800781 36.238281 -8.640625 36.179688 -9.71875 C 35.941406 -13.140625 34.800781 -18.421875 30.179688 -17.460938 C 29.519531 -17.28125 28.921875 -16.980469 28.261719 -16.800781 L 25.921875 -16.078125 C 24.480469 -15.601562 23.039062 -15.058594 21.601562 -14.519531 C 20.699219 -14.21875 19.800781 -13.859375 18.898438 -13.5 L 13.800781 -11.519531 C 12.480469 -10.980469 11.160156 -10.441406 9.839844 -9.839844 L 9.660156 -9.71875 C 9.660156 -9.839844 9.660156 -9.898438 9.660156 -9.960938 L 9.300781 -13.859375 C 10.980469 -14.699219 12.601562 -15.539062 14.339844 -16.261719 C 17.160156 -17.460938 19.980469 -18.359375 22.859375 -19.140625 C 24.300781 -19.5 25.800781 -19.800781 27.238281 -20.039062 C 28.621094 -20.339844 29.941406 -20.28125 31.199219 -20.878906 C 32.28125 -21.421875 33 -22.738281 32.761719 -23.878906 C 32.640625 -24.480469 32.28125 -25.078125 31.738281 -25.378906 C 31.679688 -25.378906 31.679688 -25.378906 31.621094 -25.441406 C 31.558594 -25.679688 31.441406 -25.921875 31.320312 -26.160156 C 31.261719 -26.28125 31.199219 -26.460938 31.078125 -26.640625 C 30.238281 -28.078125 28.800781 -28.140625 27.300781 -28.078125 C 26.578125 -28.019531 25.921875 -27.960938 25.199219 -27.839844 L 24.421875 -27.660156 C 22.5 -27.121094 20.519531 -26.578125 18.601562 -26.101562 C 15.179688 -24.839844 11.878906 -23.398438 8.519531 -21.960938 C 8.519531 -22.261719 8.160156 -24.421875 8.101562 -25.019531 L 8.21875 -25.140625 C 10.078125 -25.921875 12 -26.640625 13.921875 -27.300781 C 14.578125 -27.601562 20.519531 -29.398438 23.578125 -30.238281 C 23.699219 -30.238281 23.820312 -30.300781 23.941406 -30.359375 C 25.320312 -30.71875 26.699219 -31.140625 28.019531 -31.558594 L 31.019531 -32.460938 C 31.261719 -33.660156 31.078125 -34.921875 30.660156 -36.179688 C 30.359375 -36.421875 30 -36.71875 29.699219 -36.960938 L 28.738281 -37.320312 C 28.378906 -37.441406 27.960938 -37.5 27.539062 -37.558594 C 24.421875 -36.71875 21.300781 -35.878906 18.121094 -35.160156 C 14.039062 -34.320312 9.960938 -33.421875 6 -32.039062 C 4.738281 -31.621094 3.421875 -31.140625 2.160156 -30.601562 C 2.101562 -30.421875 1.980469 -30.238281 1.921875 -30.121094 C 1.078125 -29.398438 0.539062 -28.5 0.421875 -27.300781 C 0.300781 -26.28125 0.660156 -25.140625 1.378906 -24.359375 L 2.101562 -17.519531 L 2.820312 -10.320312 C 3 -8.21875 3.121094 -6.058594 3.480469 -4.019531 C 2.941406 -2.460938 3.960938 -0.660156 5.460938 -0.0585938 C 5.398438 0.238281 5.398438 0.480469 5.519531 0.78125 C 6 1.800781 7.078125 1.859375 8.039062 1.679688 C 8.28125 1.679688 8.640625 1.621094 8.640625 1.621094 C 8.578125 1.679688 12 0.660156 12.71875 0.179688 L 12.78125 0.121094 C 13.441406 -0.179688 14.101562 -0.421875 14.761719 -0.71875 C 14.878906 -0.78125 15.058594 -0.839844 15.179688 -0.898438 L 15.238281 -0.898438 C 17.21875 -1.738281 19.261719 -2.460938 21.300781 -3.179688 C 25.558594 -4.679688 30 -5.820312 34.441406 -6.660156 C 34.800781 -6.71875 34.980469 -6.960938 35.039062 -7.261719 Z M 20.519531 -19.980469 L 20.578125 -19.800781 C 20.21875 -19.679688 19.921875 -19.558594 19.558594 -19.378906 C 16.558594 -18.179688 13.441406 -17.039062 10.5 -15.539062 C 10.980469 -15.960938 11.339844 -16.558594 11.460938 -17.21875 C 12.601562 -17.519531 13.738281 -17.878906 14.941406 -18.238281 C 16.800781 -18.839844 18.660156 -19.378906 20.519531 -19.980469 Z M 7.261719 0.78125 C 8.460938 0.480469 9.601562 0 10.738281 -0.421875 C 11.878906 -0.78125 12.960938 -1.199219 14.039062 -1.621094 L 14.039062 -1.5 C 13.140625 -1.019531 12.238281 -0.539062 11.28125 -0.0585938 C 10.859375 0.179688 10.378906 0.421875 9.898438 0.660156 C 9.839844 0.71875 9.78125 0.71875 9.71875 0.71875 C 9.539062 0.78125 8.160156 0.898438 7.261719 0.78125 Z M 7.261719 0.78125 "/>
            </g>
        </g>
    </g>
    <g fill="#2b2b2b" fill-opacity="1">
        <g transform="translate(107.990481, 59.867665)">
            <g>
                <path d="M 36.121094 -6.121094 C 35.941406 -7.859375 35.519531 -9.601562 35.160156 -11.339844 C 34.738281 -13.320312 34.378906 -15.238281 34.019531 -17.21875 C 33.839844 -18.058594 33.660156 -18.960938 33.421875 -19.859375 C 33.300781 -20.878906 33.121094 -21.960938 32.941406 -22.980469 C 32.460938 -25.679688 31.980469 -28.378906 31.320312 -31.078125 C 30.71875 -33.539062 29.699219 -35.941406 27.839844 -37.800781 C 27.121094 -38.578125 25.800781 -38.578125 24.960938 -37.921875 C 24.238281 -38.339844 23.339844 -38.460938 22.320312 -38.160156 C 21.660156 -38.039062 21 -37.441406 20.878906 -36.839844 C 20.160156 -31.621094 18.839844 -26.460938 17.699219 -21.300781 C 16.921875 -17.941406 16.199219 -14.578125 15.421875 -11.21875 C 14.039062 -17.28125 12.71875 -24.300781 11.699219 -30.480469 C 11.460938 -31.980469 11.160156 -33.480469 11.039062 -34.921875 C 10.980469 -35.519531 10.738281 -36.121094 10.378906 -36.539062 C 9.960938 -37.621094 9.058594 -38.398438 7.921875 -38.640625 C 6.960938 -38.941406 5.878906 -38.820312 4.921875 -38.21875 C 4.199219 -37.800781 3.898438 -37.199219 3.898438 -36.601562 C 3.359375 -35.460938 3.421875 -34.140625 3.480469 -32.941406 C 3.480469 -31.5 3.539062 -30.121094 3.539062 -28.679688 L 3.539062 -27.300781 C 3.421875 -27.300781 3.359375 -28.621094 3.238281 -28.621094 C 3.179688 -31.199219 3.121094 -33.960938 2.761719 -36.359375 C 2.699219 -36.660156 2.101562 -36.660156 2.039062 -36.359375 C 1.378906 -32.941406 1.621094 -29.339844 1.679688 -25.921875 C 1.679688 -22.378906 1.738281 -18.78125 1.859375 -15.238281 C 1.921875 -11.761719 2.160156 -8.398438 2.640625 -4.921875 C 2.820312 -3.480469 2.941406 -1.679688 4.019531 -0.601562 C 4.558594 -0.0585938 5.398438 0.0585938 6.121094 -0.179688 C 6.179688 -0.0585938 6.238281 0 6.300781 0.0585938 C 6.539062 0.359375 6.960938 0.359375 7.320312 0.179688 C 9.238281 -0.660156 9.058594 -2.878906 9 -4.621094 C 8.878906 -9.660156 8.699219 -14.941406 8.460938 -19.980469 C 8.578125 -19.441406 8.761719 -18.960938 8.941406 -18.480469 C 9.421875 -16.5 9.960938 -14.460938 10.5 -12.480469 L 13.078125 -3.300781 C 13.320312 -2.339844 13.558594 -1.441406 14.101562 -0.601562 C 14.21875 -0.359375 14.460938 -0.300781 14.640625 -0.421875 C 14.878906 -0.238281 15.179688 -0.179688 15.480469 -0.179688 C 15.660156 -0.0585938 15.960938 -0.0585938 16.261719 -0.121094 C 17.21875 -0.359375 17.578125 -1.019531 17.878906 -1.859375 C 18.058594 -2.460938 18.179688 -3 18.300781 -3.601562 C 18.300781 -3.480469 18.480469 -3.421875 18.539062 -3.660156 C 19.019531 -6.179688 19.859375 -9.898438 20.640625 -13.199219 C 21.480469 -16.558594 22.980469 -21.78125 24.421875 -25.980469 C 24.960938 -23.460938 25.5 -20.941406 26.101562 -18.421875 C 27.421875 -13.199219 28.078125 -8.398438 28.199219 -3.121094 C 28.199219 -1.679688 29.28125 -0.480469 30.660156 -0.179688 C 32.160156 1.320312 34.378906 0.359375 35.28125 -1.199219 C 36.121094 -2.699219 36.238281 -4.441406 36.121094 -6.121094 Z M 11.21875 -22.441406 C 11.21875 -22.558594 11.160156 -22.679688 11.101562 -22.738281 C 10.320312 -26.460938 9.480469 -30.058594 8.578125 -33.71875 C 8.640625 -33.839844 8.640625 -33.898438 8.640625 -33.960938 C 8.941406 -34.019531 9.238281 -34.140625 9.480469 -34.320312 C 9.71875 -33.359375 9.839844 -32.460938 9.960938 -31.558594 C 10.5 -28.5 11.28125 -24.121094 11.878906 -21.058594 C 11.519531 -21.421875 11.460938 -21.839844 11.21875 -22.441406 Z M 20.339844 -13.320312 L 20.28125 -13.320312 C 20.21875 -13.320312 20.160156 -13.320312 20.101562 -13.378906 C 20.28125 -14.28125 20.460938 -15.179688 20.578125 -16.078125 C 21.539062 -20.160156 22.621094 -24.179688 23.941406 -28.140625 C 24.058594 -27.71875 24.121094 -27.300781 24.238281 -26.941406 C 22.738281 -22.441406 21.421875 -17.878906 20.339844 -13.320312 Z M 20.339844 -13.320312 "/>
            </g>
        </g>
    </g>
    <g fill="#2b2b2b" fill-opacity="1">
        <g transform="translate(137.930421, 59.867665)">
            <g>
                <path d="M 21.960938 -1.800781 C 23.339844 2.519531 27.78125 2.398438 27.121094 -3 C 26.640625 -6.601562 25.621094 -11.460938 24.839844 -15 C 28.140625 -17.101562 27.480469 -22.5 22.921875 -23.039062 C 22.5 -26.640625 22.140625 -35.699219 22.078125 -35.101562 C 21.839844 -33.121094 21.71875 -31.019531 21.660156 -28.980469 C 21.601562 -28.980469 21.601562 -28.980469 21.539062 -29.039062 C 21.300781 -31.378906 21.058594 -33.839844 20.878906 -36.238281 C 20.699219 -38.160156 19.441406 -39.359375 17.699219 -39.480469 C 17.21875 -40.441406 16.019531 -41.160156 15 -41.101562 C 11.941406 -41.039062 10.738281 -37.320312 9.660156 -34.980469 C 8.101562 -31.261719 7.140625 -27.359375 6.300781 -23.398438 C -0.839844 -22.320312 -0.839844 -15.78125 3 -14.820312 C 3.058594 -14.640625 3 -14.398438 2.941406 -14.28125 C 3.421875 -14.28125 4.019531 -14.339844 4.558594 -14.398438 C 3.660156 -10.921875 3.058594 -7.441406 2.578125 -3.898438 C 1.800781 1.738281 9.238281 2.578125 9.71875 -2.878906 L 10.078125 -5.578125 C 10.078125 -5.578125 11.101562 -11.699219 11.878906 -14.640625 L 12.421875 -14.640625 C 11.28125 -11.101562 10.738281 -7.441406 10.441406 -3.839844 C 10.378906 -3.121094 11.398438 -3.121094 11.398438 -3.839844 C 11.699219 -7.5 12.359375 -11.039062 13.261719 -14.640625 L 17.941406 -14.699219 C 18.421875 -12.539062 20.820312 -2.21875 21.960938 -1.800781 Z M 13.078125 -22.441406 C 13.621094 -25.261719 14.339844 -27.660156 15.300781 -31.019531 C 15.898438 -28.261719 16.199219 -24.179688 16.441406 -22.679688 C 15.601562 -22.621094 13.921875 -22.558594 13.078125 -22.441406 Z M 13.078125 -22.441406 "/>
            </g>
        </g>
    </g>
    <g fill="#2b2b2b" fill-opacity="1">
        <g transform="translate(160.670368, 59.867665)">
            <g>
                <path d="M 34.261719 -35.339844 C 35.699219 -35.941406 35.761719 -38.21875 34.378906 -39 C 34.261719 -39.121094 34.140625 -39.179688 34.019531 -39.238281 C 34.140625 -39.300781 34.320312 -39.300781 34.441406 -39.300781 C 35.039062 -39.421875 34.859375 -40.441406 34.320312 -40.378906 C 33.421875 -40.261719 32.519531 -40.199219 31.621094 -40.078125 C 31.261719 -40.140625 30.898438 -40.078125 30.601562 -40.078125 C 30 -40.019531 29.398438 -39.960938 28.738281 -39.839844 C 20.398438 -39.121094 12 -38.941406 3.601562 -39.421875 C 3.421875 -39.480469 3.359375 -39.121094 3.539062 -39.121094 C 6.78125 -38.578125 10.019531 -38.21875 13.261719 -38.039062 C 13.261719 -37.980469 13.199219 -37.921875 13.199219 -37.859375 C 9.898438 -37.859375 6.660156 -38.101562 3.359375 -38.398438 C 2.039062 -38.519531 0.839844 -37.378906 0.480469 -36.179688 C 0.121094 -34.738281 0.839844 -33.300781 2.039062 -32.640625 C 2.398438 -31.679688 3.179688 -30.839844 3.960938 -30.300781 C 5.039062 -29.640625 6.359375 -29.460938 7.621094 -29.28125 C 9.179688 -29.160156 10.800781 -29.101562 12.421875 -29.101562 C 13.199219 -29.101562 13.980469 -29.101562 14.761719 -29.101562 L 14.761719 -27.179688 L 14.640625 -24.539062 C 14.519531 -21.421875 14.339844 -18.300781 14.160156 -15.238281 C 14.039062 -12.179688 13.980469 -9.058594 14.160156 -6 C 14.28125 -3.660156 14.820312 -0.898438 17.339844 -0.121094 C 18.601562 0.238281 20.101562 -0.480469 20.519531 -1.800781 C 20.941406 -3 21 -4.679688 21.238281 -5.761719 L 21.238281 -3.480469 C 21.179688 -2.640625 21.179688 -1.800781 21.121094 -0.960938 L 21.121094 -0.839844 C 22.199219 -1.679688 22.441406 -3.121094 22.558594 -4.558594 C 22.5 -6.660156 22.378906 -8.761719 22.320312 -10.859375 C 22.320312 -14.519531 22.261719 -18.179688 22.261719 -21.839844 C 22.261719 -24.480469 22.320312 -27.121094 22.320312 -29.761719 C 25.378906 -30.179688 28.378906 -30.71875 31.441406 -31.320312 C 31.621094 -31.320312 31.738281 -31.441406 31.859375 -31.558594 C 32.160156 -31.621094 32.519531 -31.738281 32.761719 -31.921875 C 33.71875 -32.578125 33.960938 -33.660156 34.019531 -34.738281 C 34.140625 -34.921875 34.199219 -35.101562 34.261719 -35.339844 Z M 7.621094 -30.71875 C 6.179688 -30.78125 4.621094 -31.199219 3.660156 -32.101562 C 6 -31.378906 8.398438 -30.960938 10.800781 -30.71875 C 9.71875 -30.660156 8.640625 -30.660156 7.621094 -30.71875 Z M 7.621094 -30.71875 "/>
            </g>
        </g>
    </g>
    <g fill="#2b2b2b" fill-opacity="1">
        <g transform="translate(190.010317, 59.867665)">
            <g>
                <path d="M 1.378906 -31.679688 C 1.261719 -31.558594 1.261719 -31.378906 1.378906 -31.320312 C 2.699219 -31.921875 4.019531 -32.460938 5.398438 -32.878906 C 9.359375 -34.261719 13.441406 -35.160156 17.519531 -36.058594 C 19.859375 -36.601562 22.261719 -37.199219 24.601562 -37.800781 C 24.058594 -37.800781 23.519531 -37.800781 22.980469 -37.738281 C 20.398438 -37.558594 17.941406 -37.078125 15.480469 -36.601562 L 14.101562 -36.238281 C 9.78125 -35.101562 5.339844 -33.78125 1.378906 -31.679688 Z M 35.039062 -7.261719 C 35.761719 -7.800781 36.238281 -8.640625 36.179688 -9.71875 C 35.941406 -13.140625 34.800781 -18.421875 30.179688 -17.460938 C 29.519531 -17.28125 28.921875 -16.980469 28.261719 -16.800781 L 25.921875 -16.078125 C 24.480469 -15.601562 23.039062 -15.058594 21.601562 -14.519531 C 20.699219 -14.21875 19.800781 -13.859375 18.898438 -13.5 L 13.800781 -11.519531 C 12.480469 -10.980469 11.160156 -10.441406 9.839844 -9.839844 L 9.660156 -9.71875 C 9.660156 -9.839844 9.660156 -9.898438 9.660156 -9.960938 L 9.300781 -13.859375 C 10.980469 -14.699219 12.601562 -15.539062 14.339844 -16.261719 C 17.160156 -17.460938 19.980469 -18.359375 22.859375 -19.140625 C 24.300781 -19.5 25.800781 -19.800781 27.238281 -20.039062 C 28.621094 -20.339844 29.941406 -20.28125 31.199219 -20.878906 C 32.28125 -21.421875 33 -22.738281 32.761719 -23.878906 C 32.640625 -24.480469 32.28125 -25.078125 31.738281 -25.378906 C 31.679688 -25.378906 31.679688 -25.378906 31.621094 -25.441406 C 31.558594 -25.679688 31.441406 -25.921875 31.320312 -26.160156 C 31.261719 -26.28125 31.199219 -26.460938 31.078125 -26.640625 C 30.238281 -28.078125 28.800781 -28.140625 27.300781 -28.078125 C 26.578125 -28.019531 25.921875 -27.960938 25.199219 -27.839844 L 24.421875 -27.660156 C 22.5 -27.121094 20.519531 -26.578125 18.601562 -26.101562 C 15.179688 -24.839844 11.878906 -23.398438 8.519531 -21.960938 C 8.519531 -22.261719 8.160156 -24.421875 8.101562 -25.019531 L 8.21875 -25.140625 C 10.078125 -25.921875 12 -26.640625 13.921875 -27.300781 C 14.578125 -27.601562 20.519531 -29.398438 23.578125 -30.238281 C 23.699219 -30.238281 23.820312 -30.300781 23.941406 -30.359375 C 25.320312 -30.71875 26.699219 -31.140625 28.019531 -31.558594 L 31.019531 -32.460938 C 31.261719 -33.660156 31.078125 -34.921875 30.660156 -36.179688 C 30.359375 -36.421875 30 -36.71875 29.699219 -36.960938 L 28.738281 -37.320312 C 28.378906 -37.441406 27.960938 -37.5 27.539062 -37.558594 C 24.421875 -36.71875 21.300781 -35.878906 18.121094 -35.160156 C 14.039062 -34.320312 9.960938 -33.421875 6 -32.039062 C 4.738281 -31.621094 3.421875 -31.140625 2.160156 -30.601562 C 2.101562 -30.421875 1.980469 -30.238281 1.921875 -30.121094 C 1.078125 -29.398438 0.539062 -28.5 0.421875 -27.300781 C 0.300781 -26.28125 0.660156 -25.140625 1.378906 -24.359375 L 2.101562 -17.519531 L 2.820312 -10.320312 C 3 -8.21875 3.121094 -6.058594 3.480469 -4.019531 C 2.941406 -2.460938 3.960938 -0.660156 5.460938 -0.0585938 C 5.398438 0.238281 5.398438 0.480469 5.519531 0.78125 C 6 1.800781 7.078125 1.859375 8.039062 1.679688 C 8.28125 1.679688 8.640625 1.621094 8.640625 1.621094 C 8.578125 1.679688 12 0.660156 12.71875 0.179688 L 12.78125 0.121094 C 13.441406 -0.179688 14.101562 -0.421875 14.761719 -0.71875 C 14.878906 -0.78125 15.058594 -0.839844 15.179688 -0.898438 L 15.238281 -0.898438 C 17.21875 -1.738281 19.261719 -2.460938 21.300781 -3.179688 C 25.558594 -4.679688 30 -5.820312 34.441406 -6.660156 C 34.800781 -6.71875 34.980469 -6.960938 35.039062 -7.261719 Z M 20.519531 -19.980469 L 20.578125 -19.800781 C 20.21875 -19.679688 19.921875 -19.558594 19.558594 -19.378906 C 16.558594 -18.179688 13.441406 -17.039062 10.5 -15.539062 C 10.980469 -15.960938 11.339844 -16.558594 11.460938 -17.21875 C 12.601562 -17.519531 13.738281 -17.878906 14.941406 -18.238281 C 16.800781 -18.839844 18.660156 -19.378906 20.519531 -19.980469 Z M 7.261719 0.78125 C 8.460938 0.480469 9.601562 0 10.738281 -0.421875 C 11.878906 -0.78125 12.960938 -1.199219 14.039062 -1.621094 L 14.039062 -1.5 C 13.140625 -1.019531 12.238281 -0.539062 11.28125 -0.0585938 C 10.859375 0.179688 10.378906 0.421875 9.898438 0.660156 C 9.839844 0.71875 9.78125 0.71875 9.71875 0.71875 C 9.539062 0.78125 8.160156 0.898438 7.261719 0.78125 Z M 7.261719 0.78125 "/>
            </g>
        </g>
    </g>
    <g fill="#2b2b2b" fill-opacity="1">
        <g transform="translate(39.715265, 77.991663)">
            <g>
                <path d="M 4.253906 0.191406 C 6.660156 0.191406 8.203125 -0.722656 8.195312 -2.070312 C 8.195312 -3.242188 7.253906 -3.839844 5.070312 -4.054688 L 3.867188 -4.191406 C 3.027344 -4.273438 2.664062 -4.417969 2.675781 -4.660156 C 2.683594 -5.003906 3.351562 -5.222656 4.28125 -5.230469 C 5.277344 -5.238281 6.34375 -4.949219 7.054688 -4.480469 L 7.707031 -5.84375 C 6.894531 -6.359375 5.609375 -6.667969 4.265625 -6.667969 C 1.933594 -6.667969 0.363281 -5.882812 0.351562 -4.488281 C 0.351562 -3.34375 1.238281 -2.773438 3.296875 -2.558594 L 4.488281 -2.421875 C 5.464844 -2.320312 5.882812 -2.140625 5.882812 -1.871094 C 5.882812 -1.519531 5.304688 -1.308594 4.382812 -1.308594 C 3.136719 -1.308594 1.734375 -1.742188 0.964844 -2.339844 L 0.179688 -0.921875 C 1.046875 -0.261719 2.710938 0.191406 4.253906 0.191406 Z M 4.253906 0.191406 "/>
            </g>
        </g>
    </g>
    <g fill="#2b2b2b" fill-opacity="1">
        <g transform="translate(47.962193, 77.991663)">
            <g>
                <path d="M 0.453125 0 L 2.828125 0 L 2.828125 -6.46875 L 0.453125 -6.46875 Z M 0.453125 0 "/>
            </g>
        </g>
    </g>
    <g fill="#2b2b2b" fill-opacity="1">
        <g transform="translate(51.114589, 77.991663)">
            <g>
                <path d="M 0.453125 0 L 2.703125 0 L 2.703125 -4.03125 L 2.71875 -4.03125 L 4.816406 0 L 6.832031 0 L 8.855469 -4.039062 L 8.871094 -4.039062 L 8.871094 0 L 11.121094 0 L 11.121094 -6.46875 L 8.003906 -6.46875 L 5.792969 -2.105469 L 5.773438 -2.105469 L 3.523438 -6.46875 L 0.453125 -6.46875 Z M 0.453125 0 "/>
            </g>
        </g>
    </g>
    <g fill="#2b2b2b" fill-opacity="1">
        <g transform="translate(62.559154, 77.991663)">
            <g>
                <path d="M 0.453125 0 L 2.835938 0 L 2.835938 -1.996094 L 5.691406 -1.996094 C 7.527344 -1.996094 8.546875 -2.78125 8.546875 -4.199219 C 8.546875 -5.65625 7.535156 -6.46875 5.710938 -6.46875 L 0.453125 -6.46875 Z M 2.835938 -3.324219 L 2.835938 -5.140625 L 4.90625 -5.140625 C 5.710938 -5.140625 6.152344 -4.816406 6.152344 -4.238281 C 6.152344 -3.648438 5.710938 -3.324219 4.90625 -3.324219 Z M 2.835938 -3.324219 "/>
            </g>
        </g>
    </g>
    <g fill="#2b2b2b" fill-opacity="1">
        <g transform="translate(71.149331, 77.991663)">
            <g>
                <path d="M 0.453125 0 L 6.785156 0 L 6.785156 -1.742188 L 2.835938 -1.742188 L 2.835938 -6.46875 L 0.453125 -6.46875 Z M 0.453125 0 "/>
            </g>
        </g>
    </g>
    <g fill="#2b2b2b" fill-opacity="1">
        <g transform="translate(77.960034, 77.991663)">
            <g>
                <path d="M 0.453125 0 L 2.828125 0 L 2.828125 -6.46875 L 0.453125 -6.46875 Z M 0.453125 0 "/>
            </g>
        </g>
    </g>
    <g fill="#2b2b2b" fill-opacity="1">
        <g transform="translate(81.112428, 77.991663)">
            <g>
                <path d="M 0.453125 0 L 2.835938 0 L 2.835938 -2.269531 L 6.738281 -2.269531 L 6.738281 -3.621094 L 2.835938 -3.621094 L 2.835938 -4.796875 L 7.28125 -4.796875 L 7.28125 -6.46875 L 0.453125 -6.46875 Z M 0.453125 0 "/>
            </g>
        </g>
    </g>
    <g fill="#2b2b2b" fill-opacity="1">
        <g transform="translate(88.438002, 77.991663)">
            <g>
                <path d="M 3.136719 0 L 5.519531 0 L 5.519531 -2.214844 L 8.609375 -6.46875 L 6.082031 -6.46875 L 4.335938 -3.757812 L 4.328125 -3.757812 L 2.492188 -6.46875 L 0 -6.46875 L 3.136719 -2.214844 Z M 3.136719 0 "/>
            </g>
        </g>
    </g>
    <g fill="#2b2b2b" fill-opacity="1">
        <g transform="translate(96.919782, 77.991663)">
            <g>
                <path d="M 1.390625 0.0898438 C 2.085938 0.0898438 2.582031 -0.324219 2.582031 -0.921875 C 2.582031 -1.519531 2.085938 -1.933594 1.390625 -1.933594 C 0.703125 -1.933594 0.207031 -1.519531 0.207031 -0.921875 C 0.207031 -0.324219 0.703125 0.0898438 1.390625 0.0898438 Z M 1.390625 0.0898438 "/>
            </g>
        </g>
    </g>
    <g fill="#2b2b2b" fill-opacity="1">
        <g transform="translate(99.584404, 77.991663)">
            <g/>
        </g>
    </g>
    <g fill="#2b2b2b" fill-opacity="1">
        <g transform="translate(101.571564, 77.991663)">
            <g>
                <path d="M 5.015625 0.152344 C 7.410156 0.152344 9.132812 -0.847656 9.476562 -2.4375 L 7.273438 -2.828125 C 7.09375 -2.023438 6.234375 -1.519531 5.078125 -1.519531 C 3.613281 -1.519531 2.683594 -2.1875 2.675781 -3.234375 C 2.675781 -4.292969 3.503906 -4.949219 4.804688 -4.949219 C 5.726562 -4.949219 6.460938 -4.527344 6.6875 -3.859375 L 8.855469 -4.300781 C 8.421875 -5.726562 6.820312 -6.632812 4.742188 -6.632812 C 2.015625 -6.632812 0.289062 -5.3125 0.289062 -3.234375 C 0.289062 -1.09375 2.125 0.152344 5.015625 0.152344 Z M 5.015625 0.152344 "/>
            </g>
        </g>
    </g>
    <g fill="#2b2b2b" fill-opacity="1">
        <g transform="translate(111.055993, 77.991663)">
            <g>
                <path d="M 5.042969 0.226562 C 7.894531 0.226562 9.792969 -1.15625 9.792969 -3.234375 C 9.792969 -5.320312 7.894531 -6.695312 5.042969 -6.695312 C 2.1875 -6.695312 0.289062 -5.320312 0.289062 -3.234375 C 0.289062 -1.15625 2.1875 0.226562 5.042969 0.226562 Z M 5.042969 -1.445312 C 3.621094 -1.445312 2.675781 -2.160156 2.675781 -3.234375 C 2.675781 -4.308594 3.621094 -5.023438 5.042969 -5.023438 C 6.460938 -5.023438 7.398438 -4.308594 7.398438 -3.234375 C 7.398438 -2.160156 6.460938 -1.445312 5.042969 -1.445312 Z M 5.042969 -1.445312 "/>
            </g>
        </g>
    </g>
    <g fill="#2b2b2b" fill-opacity="1">
        <g transform="translate(121.010129, 77.991663)">
            <g>
                <path d="M 0.453125 0 L 2.703125 0 L 2.703125 -4.253906 L 2.710938 -4.253906 L 6.179688 0 L 9.042969 0 L 9.042969 -6.46875 L 6.792969 -6.46875 L 6.792969 -2.269531 L 6.785156 -2.269531 L 3.316406 -6.46875 L 0.453125 -6.46875 Z M 0.453125 0 "/>
            </g>
        </g>
    </g>
    <g fill="#2b2b2b" fill-opacity="1">
        <g transform="translate(130.377134, 77.991663)">
            <g>
                <path d="M 0.453125 0 L 2.703125 0 L 2.703125 -4.253906 L 2.710938 -4.253906 L 6.179688 0 L 9.042969 0 L 9.042969 -6.46875 L 6.792969 -6.46875 L 6.792969 -2.269531 L 6.785156 -2.269531 L 3.316406 -6.46875 L 0.453125 -6.46875 Z M 0.453125 0 "/>
            </g>
        </g>
    </g>
    <g fill="#2b2b2b" fill-opacity="1">
        <g transform="translate(139.744139, 77.991663)">
            <g>
                <path d="M 0.453125 0 L 7.382812 0 L 7.382812 -1.464844 L 2.765625 -1.464844 L 2.765625 -2.664062 L 6.929688 -2.664062 L 6.929688 -3.921875 L 2.765625 -3.921875 L 2.765625 -5.003906 L 7.289062 -5.003906 L 7.289062 -6.46875 L 0.453125 -6.46875 Z M 0.453125 0 "/>
            </g>
        </g>
    </g>
    <g fill="#2b2b2b" fill-opacity="1">
        <g transform="translate(147.178108, 77.991663)">
            <g>
                <path d="M 5.015625 0.152344 C 7.410156 0.152344 9.132812 -0.847656 9.476562 -2.4375 L 7.273438 -2.828125 C 7.09375 -2.023438 6.234375 -1.519531 5.078125 -1.519531 C 3.613281 -1.519531 2.683594 -2.1875 2.675781 -3.234375 C 2.675781 -4.292969 3.503906 -4.949219 4.804688 -4.949219 C 5.726562 -4.949219 6.460938 -4.527344 6.6875 -3.859375 L 8.855469 -4.300781 C 8.421875 -5.726562 6.820312 -6.632812 4.742188 -6.632812 C 2.015625 -6.632812 0.289062 -5.3125 0.289062 -3.234375 C 0.289062 -1.09375 2.125 0.152344 5.015625 0.152344 Z M 5.015625 0.152344 "/>
            </g>
        </g>
    </g>
    <g fill="#2b2b2b" fill-opacity="1">
        <g transform="translate(156.662537, 77.991663)">
            <g>
                <path d="M 2.59375 0 L 4.976562 0 L 4.976562 -4.796875 L 7.488281 -4.796875 L 7.488281 -6.46875 L 0.0820312 -6.46875 L 0.0820312 -4.796875 L 2.59375 -4.796875 Z M 2.59375 0 "/>
            </g>
        </g>
    </g>
    <g fill="#2b2b2b" fill-opacity="1">
        <g transform="translate(164.105541, 77.991663)">
            <g>
                <path d="M 1.390625 0.0898438 C 2.085938 0.0898438 2.582031 -0.324219 2.582031 -0.921875 C 2.582031 -1.519531 2.085938 -1.933594 1.390625 -1.933594 C 0.703125 -1.933594 0.207031 -1.519531 0.207031 -0.921875 C 0.207031 -0.324219 0.703125 0.0898438 1.390625 0.0898438 Z M 1.390625 0.0898438 "/>
            </g>
        </g>
    </g>
    <g fill="#2b2b2b" fill-opacity="1">
        <g transform="translate(166.770164, 77.991663)">
            <g/>
        </g>
    </g>
    <g fill="#2b2b2b" fill-opacity="1">
        <g transform="translate(168.757331, 77.991663)">
            <g>
                <path d="M 0.453125 0 L 2.835938 0 L 2.835938 -2.574219 L 6.371094 -2.574219 L 6.371094 0 L 8.761719 0 L 8.761719 -6.46875 L 6.371094 -6.46875 L 6.371094 -4.183594 L 2.835938 -4.183594 L 2.835938 -6.46875 L 0.453125 -6.46875 Z M 0.453125 0 "/>
            </g>
        </g>
    </g>
    <g fill="#2b2b2b" fill-opacity="1">
        <g transform="translate(177.844313, 77.991663)">
            <g>
                <path d="M 0.453125 0 L 2.828125 0 L 2.828125 -6.46875 L 0.453125 -6.46875 Z M 0.453125 0 "/>
            </g>
        </g>
    </g>
    <g fill="#2b2b2b" fill-opacity="1">
        <g transform="translate(180.996714, 77.991663)">
            <g>
                <path d="M 7.535156 0.179688 C 8.121094 0.179688 8.835938 -0.0273438 9.1875 -0.324219 L 8.808594 -1.28125 C 8.699219 -1.15625 8.484375 -1.085938 8.328125 -1.085938 C 8.066406 -1.085938 7.90625 -1.191406 7.777344 -1.375 L 7.335938 -2.042969 C 7.183594 -2.269531 6.984375 -2.457031 6.765625 -2.53125 L 6.765625 -2.539062 C 7.949219 -2.765625 8.644531 -3.441406 8.644531 -4.417969 C 8.644531 -5.71875 7.644531 -6.46875 5.910156 -6.46875 L 0.453125 -6.46875 L 0.453125 0 L 2.835938 0 L 2.835938 -2.140625 L 4.175781 -2.140625 C 4.625 -2.140625 5.015625 -1.953125 5.285156 -1.5625 L 5.664062 -0.941406 C 6.042969 -0.398438 6.542969 0.179688 7.535156 0.179688 Z M 2.835938 -3.46875 L 2.835938 -5.070312 L 5.1875 -5.070312 C 5.855469 -5.070312 6.253906 -4.769531 6.253906 -4.273438 C 6.253906 -3.765625 5.855469 -3.46875 5.175781 -3.46875 Z M 2.835938 -3.46875 "/>
            </g>
        </g>
    </g>
    <g fill="#2b2b2b" fill-opacity="1">
        <g transform="translate(190.056597, 77.991663)">
            <g>
                <path d="M 0.453125 0 L 7.382812 0 L 7.382812 -1.464844 L 2.765625 -1.464844 L 2.765625 -2.664062 L 6.929688 -2.664062 L 6.929688 -3.921875 L 2.765625 -3.921875 L 2.765625 -5.003906 L 7.289062 -5.003906 L 7.289062 -6.46875 L 0.453125 -6.46875 Z M 0.453125 0 "/>
            </g>
        </g>
    </g>
    <g fill="#2b2b2b" fill-opacity="1">
        <g transform="translate(197.490566, 77.991663)">
            <g>
                <path d="M 1.390625 0.0898438 C 2.085938 0.0898438 2.582031 -0.324219 2.582031 -0.921875 C 2.582031 -1.519531 2.085938 -1.933594 1.390625 -1.933594 C 0.703125 -1.933594 0.207031 -1.519531 0.207031 -0.921875 C 0.207031 -0.324219 0.703125 0.0898438 1.390625 0.0898438 Z M 1.390625 0.0898438 "/>
            </g>
        </g>
    </g>
</svg>