<svg viewBox="0 0 39 42" fill="none"
    xmlns="http://www.w3.org/2000/svg">
    <path d="M30.5083 21.2851C32.0083 19.6641 31.77 16.5469 29.4262 15.7656C28.8872 15.6445 28.4067 15.4648 27.9262 15.4062V14.0859C27.9887 12.6445 27.9887 11.2031 27.9262 9.82421C27.9262 9.64452 27.9887 9.46483 27.9262 9.28515C27.8091 7.18358 28.0473 4.54687 26.9067 2.68358C25.7075 0.644522 23.188 0.585929 21.3872 1.78515C19.3481 3.16405 19.7075 5.5664 20.0669 7.66405C20.188 10.125 20.3677 12.6445 20.4887 15.1055C19.8286 15.1641 19.227 15.2851 18.5669 15.3437C16.4692 15.5234 14.3677 15.7031 12.27 16.0039H12.1489C11.9692 13.3047 11.7895 10.5469 11.6098 7.78515L11.4262 4.90624C11.3677 4.36327 11.1294 3.22655 10.5278 2.98437C10.2895 2.86327 10.1098 2.80468 9.86765 2.80468V2.68358C9.80906 1.30468 8.30906 0.34374 7.04734 0.523428C5.72703 0.703115 4.70749 1.96483 4.88718 3.34374C5.48874 7.90624 5.60984 12.5859 5.66843 17.2031H5.54734C5.48874 17.2031 5.42624 17.3242 5.36765 17.3867C5.18796 15.1641 4.94968 12.8242 4.70749 10.6055C4.40671 7.66405 4.22703 4.66405 3.62937 1.78515C3.62937 1.66405 3.44968 1.66405 3.44968 1.78515C3.32859 4.60546 3.56687 7.48436 3.62937 10.3047C3.74656 12.7656 3.80906 15.2266 3.86765 17.625C2.96921 17.9258 2.18796 18.4062 1.70749 19.1836C1.34812 19.4844 0.988744 19.8437 0.746557 20.2031C-0.690943 22.1836 1.40671 24.6445 3.44968 23.8047L4.04734 23.5664C4.22703 28.0039 4.28953 32.5039 4.6489 36.9453C4.6489 37.3633 5.06687 37.6055 5.42624 37.6055C5.54734 37.9062 5.66843 38.2031 5.84812 38.5039C6.98874 40.6055 9.20749 40.3633 10.7075 38.8047C11.4262 38.0234 11.6098 36.6445 11.727 35.625C11.7895 35.1445 11.7895 34.6055 11.8481 34.125V33.9453C12.2075 32.0234 12.1489 29.9844 12.1489 28.0039C12.1489 26.2656 12.0864 24.5234 12.0278 22.7851C14.3091 22.6641 16.6489 22.6055 18.9262 22.6055C19.3481 22.6055 19.7075 22.6055 20.1294 22.6055V24.8242C20.1294 27.1055 20.188 29.4453 20.3091 31.7266C20.3677 34.0664 20.4887 36.3437 20.6684 38.6836C20.727 39.4648 20.8481 40.4844 21.3872 41.0859C22.0473 41.9258 23.1294 42.2851 24.2075 41.625C24.5083 41.4453 24.8091 41.2031 24.9887 40.9648C25.0473 40.9648 25.0473 40.9648 25.0473 40.9062C26.3091 40.1836 26.5473 38.1445 26.727 36.8242C26.9067 35.3867 27.0278 33.9453 27.1489 32.4453C27.3286 29.5039 27.5083 26.5039 27.6294 23.5664C28.9497 23.7461 30.3286 22.9062 30.5083 21.4648V21.2851ZM14.188 20.9844C16.1684 20.8633 18.1489 20.9258 20.1294 20.9844V21.2851C19.77 21.2851 19.3481 21.2851 18.9262 21.2266C16.6489 21.2266 14.3091 21.3437 11.9692 21.5859V21.3437C12.0864 21.2851 12.1489 21.1641 12.2075 21.0469C12.8677 21.0469 13.5278 20.9844 14.188 20.9844Z" fill="#E4E2DD"/>
    <path d="M27.0879 5.5039C27.209 6.10546 28.0489 6.58593 28.5879 6.76562C29.4864 7.12499 30.3887 7.24609 31.3496 7.24609C32.4864 7.24609 33.8067 6.94531 34.5293 6.10546C35.67 5.86327 36.8067 5.32421 37.709 4.66406C38.1895 4.30468 38.6075 3.70312 38.3692 3.04687C37.7676 1.48437 36.5684 0.585932 34.9473 0.164056C33.0879 -0.316412 31.2286 0.406244 29.67 1.48437C29.5489 1.54687 29.4278 1.66406 29.3067 1.78515C28.709 2.20312 28.2286 2.68359 27.8067 3.28515C27.3887 3.88671 26.8496 4.72656 27.0879 5.5039ZM31.1075 6.94531C30.3887 6.88671 29.7286 6.76562 29.0684 6.52343C28.6465 6.40624 28.2871 6.16406 27.9278 5.86328C27.4473 5.44531 27.5098 5.02343 27.7481 4.48437C27.9864 4.0664 28.2286 3.70312 28.5293 3.34374C27.9278 4.72656 28.5879 6.10546 30.3262 6.46484C31.709 6.70312 32.4864 6.58593 33.209 6.40624C33.2676 6.40624 32.8496 6.94531 31.1075 6.94531ZM37.3496 36.9453C37.4668 37.5469 38.4278 37.4844 38.3692 36.8867C37.2286 28.3633 36.7481 19.8437 36.9864 11.2656C36.9864 11.2031 36.5684 11.2656 36.5684 11.3867C36.3262 15.6445 36.3262 21.9453 36.5098 26.2031C36.3887 26.2031 36.209 24.1055 36.0879 24.1641C36.0293 23.625 35.9668 23.0859 35.9668 22.6641C35.9082 20.4453 35.7871 18.2266 35.7871 16.0664C35.7871 13.8437 35.9082 11.6836 35.9082 9.46484C35.8496 8.92578 35.3692 8.68359 34.9473 8.74609C33.9864 6.34374 30.9278 8.5664 29.67 9.40624C29.4864 9.58593 29.3067 9.76562 29.1895 10.0039C28.4668 10.7266 28.1075 11.8633 27.9278 13.0039C27.6895 15.1641 27.7481 17.3867 27.7481 19.5469C27.6895 24.0469 27.9864 28.4844 28.5293 32.9258C28.7676 34.6055 28.8262 36.4062 30.0879 37.6055C30.3887 37.8437 30.6895 38.0234 30.9864 38.1445L31.1075 38.3242C32.2481 39.4648 34.0489 39.8242 35.4864 39.1055C36.0293 38.8633 36.1465 38.3867 36.0879 37.9648C36.5684 37.7851 37.0489 37.4258 37.3496 36.9453ZM30.6895 12.4648C30.6895 12.3437 30.9278 11.9844 31.1075 11.8633H31.17C30.5098 13.7852 30.3887 16.0039 30.3887 18.0469C30.3262 20.7461 30.3887 23.4453 30.3887 26.1445H30.209C30.0293 24.7031 29.8496 23.2656 29.7286 21.8242C29.7286 21.7656 29.7286 21.7656 29.7286 21.7031V21.1055C29.8496 18.3437 29.7871 15.1641 30.6895 12.4648Z" fill="#E4E2DD"/>
</svg>
