<svg width="24" height="25" viewBox="0 0 24 25"
    xmlns="http://www.w3.org/2000/svg">
    <path fill-rule="evenodd" clip-rule="evenodd" d="M4 12.063C4 11.5107 4.44772 11.063 5 11.063H19C19.5523 11.063 20 11.5107 20 12.063C20 12.6152 19.5523 13.063 19 13.063H5C4.44772 13.063 4 12.6152 4 12.063Z" />
    <path fill-rule="evenodd" clip-rule="evenodd" d="M4 7.06296C4 6.51067 4.44772 6.06296 5 6.06296H19C19.5523 6.06296 20 6.51067 20 7.06296C20 7.61524 19.5523 8.06296 19 8.06296H5C4.44772 8.06296 4 7.61524 4 7.06296Z" />
    <path fill-rule="evenodd" clip-rule="evenodd" d="M4 17.063C4 16.5107 4.44772 16.063 5 16.063H19C19.5523 16.063 20 16.5107 20 17.063C20 17.6152 19.5523 18.063 19 18.063H5C4.44772 18.063 4 17.6152 4 17.063Z" />
</svg>
