<svg width="24" height="25" viewBox="0 0 24 25" fill="none"
    xmlns="http://www.w3.org/2000/svg">
    <path fill-rule="evenodd" clip-rule="evenodd" d="M18.0059 10.057C19.1104 10.057 20.0059 10.9524 20.0059 12.057V12.069C20.0059 13.1735 19.1104 14.069 18.0059 14.069C16.9013 14.069 16.0059 13.1735 16.0059 12.069V12.057C16.0059 10.9524 16.9013 10.057 18.0059 10.057Z" />
    <path fill-rule="evenodd" clip-rule="evenodd" d="M12.0059 10.057C13.1104 10.057 14.0059 10.9524 14.0059 12.057V12.069C14.0059 13.1735 13.1104 14.069 12.0059 14.069C10.9013 14.069 10.0059 13.1735 10.0059 12.069V12.057C10.0059 10.9524 10.9013 10.057 12.0059 10.057Z" />
    <path fill-rule="evenodd" clip-rule="evenodd" d="M6.00586 10.057C7.11043 10.057 8.00586 10.9524 8.00586 12.057V12.069C8.00586 13.1735 7.11043 14.069 6.00586 14.069C4.90129 14.069 4.00586 13.1735 4.00586 12.069L4.00586 12.057C4.00586 10.9524 4.90129 10.057 6.00586 10.057Z" />
</svg>
