<svg width="24" height="25" viewBox="0 0 24 25" fill="none"
    xmlns="http://www.w3.org/2000/svg">
    <path fill-rule="evenodd" clip-rule="evenodd" d="M6.85034 3.06295C6.85035 2.51067 7.29806 2.06296 7.85034 2.06296H16.1496C16.4148 2.06296 16.6692 2.16832 16.8567 2.35585C17.0442 2.54339 17.1496 2.79775 17.1496 3.06297L17.1495 10.7141C17.9346 11.7447 18.3482 12.7601 18.5657 13.5463C18.6846 13.976 18.7454 14.3389 18.7765 14.6015C18.7921 14.7329 18.8003 14.8397 18.8046 14.9179C18.8068 14.9569 18.808 14.9889 18.8086 15.0132L18.8092 15.044L18.8094 15.055L18.8094 15.0593L18.8094 15.0612C18.8094 15.0617 18.8094 15.063 17.8094 15.063H18.8094C18.8094 15.6152 18.3617 16.063 17.8094 16.063H6.19043C5.63814 16.063 5.19043 15.6152 5.19043 15.063H6.19043C5.19043 15.063 5.19043 15.0634 5.19043 15.063L5.19043 15.0612L5.19044 15.0593L5.19046 15.055L5.19057 15.044L5.19119 15.0132C5.19184 14.9889 5.19304 14.9569 5.1952 14.9179C5.19952 14.8397 5.20774 14.7329 5.22332 14.6015C5.25445 14.3389 5.31523 13.976 5.43411 13.5463C5.65161 12.7601 6.06525 11.7447 6.85028 10.7141L6.85034 3.06295ZM7.36634 14.063H16.6335C16.4548 13.4245 16.0973 12.5659 15.38 11.7016C15.2311 11.5221 15.1495 11.2962 15.1495 11.0629L15.1496 4.06296H8.85033L8.85028 11.063C8.85028 11.2962 8.76875 11.5221 8.61979 11.7016C7.90251 12.5659 7.545 13.4245 7.36634 14.063ZM7.19039 15.0703C7.19039 15.0707 7.19039 15.0706 7.19039 15.0703V15.0703Z" />
    <path fill-rule="evenodd" clip-rule="evenodd" d="M12 14.063C12.5523 14.063 13 14.5107 13 15.063V21.063C13 21.6152 12.5523 22.063 12 22.063C11.4477 22.063 11 21.6152 11 21.063V15.063C11 14.5107 11.4477 14.063 12 14.063Z" />
    <path fill-rule="evenodd" clip-rule="evenodd" d="M6 3.06296C6 2.51067 6.44772 2.06296 7 2.06296H17C17.5523 2.06296 18 2.51067 18 3.06296C18 3.61524 17.5523 4.06296 17 4.06296H7C6.44772 4.06296 6 3.61524 6 3.06296Z" />
</svg>
