<svg width="24" height="25" viewBox="0 0 24 25" fill="none"
    xmlns="http://www.w3.org/2000/svg">
    <path fill-rule="evenodd" clip-rule="evenodd" d="M22.199 2.05652C22.4668 2.32435 22.5604 2.72052 22.4406 3.07985L16.0766 22.1717C15.9546 22.5377 15.633 22.8009 15.2501 22.848C14.8672 22.8951 14.4914 22.7178 14.2843 22.3924L9.45384 14.8017L1.86314 9.97124C1.53768 9.76413 1.36037 9.38828 1.40751 9.0054C1.45464 8.62252 1.71781 8.30089 2.08379 8.1789L21.1757 1.81494C21.535 1.69516 21.9312 1.78868 22.199 2.05652ZM4.7094 9.41188L10.7151 13.2337C10.8385 13.3122 10.9433 13.417 11.0219 13.5405L14.8436 19.5461L19.9108 4.34476L4.7094 9.41188Z" />
    <path fill-rule="evenodd" clip-rule="evenodd" d="M22.199 2.05652C22.5895 2.44704 22.5898 3.08037 22.1993 3.4709L10.8856 14.7846C10.4951 15.1751 9.8619 15.1751 9.47137 14.7846C9.08085 14.3941 9.08085 13.7609 9.47137 13.3704L20.7851 2.05669C21.1756 1.66616 21.8085 1.66599 22.199 2.05652Z" />
</svg>
