<svg width="24" height="25" viewBox="0 0 24 25" fill="none"
    xmlns="http://www.w3.org/2000/svg">
    <path fill-rule="evenodd" clip-rule="evenodd" d="M12 4.06296C10.3431 4.06296 9 5.4061 9 7.06296C9 8.71981 10.3431 10.063 12 10.063C13.6569 10.063 15 8.71981 15 7.06296C15 5.4061 13.6569 4.06296 12 4.06296ZM7 7.06296C7 4.30153 9.23858 2.06296 12 2.06296C14.7614 2.06296 17 4.30153 17 7.06296C17 9.82438 14.7614 12.063 12 12.063C9.23858 12.063 7 9.82438 7 7.06296Z" />
    <path fill-rule="evenodd" clip-rule="evenodd" d="M9 16.063C7.34315 16.063 6 17.4061 6 19.063V21.063C6 21.6152 5.55228 22.063 5 22.063C4.44772 22.063 4 21.6152 4 21.063V19.063C4 16.3015 6.23858 14.063 9 14.063H15C17.7614 14.063 20 16.3015 20 19.063V21.063C20 21.6152 19.5523 22.063 19 22.063C18.4477 22.063 18 21.6152 18 21.063V19.063C18 17.4061 16.6569 16.063 15 16.063H9Z" />
</svg>
