<svg width="24" height="25" viewBox="0 0 24 25" fill="none"
    xmlns="http://www.w3.org/2000/svg">
    <path fill-rule="evenodd" clip-rule="evenodd" d="M12 1.06296C12.2795 1.06296 12.5462 1.17989 12.7355 1.38542L14.3821 3.17287L16.7018 2.44819C16.9686 2.36487 17.258 2.39695 17.5 2.53668C17.742 2.6764 17.9145 2.91102 17.9757 3.18368L18.508 5.55496L20.8793 6.08724C21.1519 6.14844 21.3866 6.32095 21.5263 6.56296C21.666 6.80497 21.6981 7.0944 21.6148 7.36114L20.8901 9.68087L22.6775 11.3275C22.8831 11.5168 23 11.7835 23 12.063C23 12.3424 22.8831 12.6091 22.6775 12.7984L20.8901 14.4451L21.6148 16.7648C21.6981 17.0315 21.666 17.3209 21.5263 17.563C21.3866 17.805 21.1519 17.9775 20.8793 18.0387L18.508 18.571L17.9757 20.9422C17.9145 21.2149 17.742 21.4495 17.5 21.5892C17.258 21.729 16.9686 21.761 16.7018 21.6777L14.3821 20.953L12.7355 22.7405C12.5462 22.946 12.2795 23.063 12 23.063C11.7205 23.063 11.4538 22.946 11.2645 22.7405L9.61791 20.953L7.29818 21.6777C7.03145 21.761 6.74201 21.729 6.5 21.5892C6.25799 21.4495 6.08548 21.2149 6.02428 20.9422L5.492 18.571L3.12073 18.0387C2.84806 17.9775 2.61345 17.805 2.47372 17.563C2.334 17.3209 2.30191 17.0315 2.38524 16.7648L3.10991 14.4451L1.32246 12.7984C1.11693 12.6091 1 12.3424 1 12.063C1 11.7835 1.11693 11.5168 1.32246 11.3275L3.10991 9.68087L2.38524 7.36114C2.30191 7.0944 2.334 6.80497 2.47372 6.56296C2.61345 6.32095 2.84806 6.14844 3.12073 6.08724L5.492 5.55496L6.02428 3.18368C6.08548 2.91102 6.25799 2.6764 6.5 2.53668C6.74201 2.39695 7.03145 2.36487 7.29818 2.44819L9.61791 3.17287L11.2645 1.38542C11.4538 1.17989 11.7205 1.06296 12 1.06296ZM12 3.53889L10.6598 4.99377C10.3977 5.2782 9.99521 5.38605 9.62609 5.27074L7.73797 4.6809L7.30472 6.61098C7.22003 6.98831 6.92535 7.28298 6.54802 7.36768L4.61794 7.80093L5.20778 9.68904C5.3231 10.0582 5.21524 10.4607 4.93081 10.7227L3.47593 12.063L4.93081 13.4032C5.21524 13.6652 5.3231 14.0677 5.20778 14.4369L4.61794 16.325L6.54802 16.7582C6.92535 16.8429 7.22003 17.1376 7.30472 17.5149L7.73797 19.445L9.62609 18.8552C9.99521 18.7399 10.3977 18.8477 10.6598 19.1321L12 20.587L13.3402 19.1321C13.6023 18.8477 14.0048 18.7399 14.3739 18.8552L16.262 19.445L16.6953 17.5149C16.78 17.1376 17.0746 16.8429 17.452 16.7582L19.3821 16.325L18.7922 14.4369C18.6769 14.0677 18.7848 13.6652 19.0692 13.4032L20.5241 12.063L19.0692 10.7227C18.7848 10.4607 18.6769 10.0582 18.7922 9.68904L19.3821 7.80093L17.452 7.36768C17.0746 7.28298 16.78 6.98831 16.6953 6.61098L16.262 4.6809L14.3739 5.27074C14.0048 5.38605 13.6023 5.2782 13.3402 4.99377L12 3.53889Z" />
    <path fill-rule="evenodd" clip-rule="evenodd" d="M15.7071 9.35585C16.0976 9.74638 16.0976 10.3795 15.7071 10.7701L11.7071 14.7701C11.3166 15.1606 10.6834 15.1606 10.2929 14.7701L8.29289 12.7701C7.90237 12.3795 7.90237 11.7464 8.29289 11.3559C8.68342 10.9653 9.31658 10.9653 9.70711 11.3559L11 12.6487L14.2929 9.35585C14.6834 8.96533 15.3166 8.96533 15.7071 9.35585Z" />
</svg>
